<svg width="20" height="20" viewBox="0 0 20 20" fill="none" xmlns="http://www.w3.org/2000/svg">
<path d="M18.8281 7.13281V5.27344C18.8281 4.30469 18.0391 3.51562 17.0703 3.51562H16.1406L12.7969 0.171875C12.7969 0.171875 12.7969 0.171875 12.793 0.167969C12.6875 0.0664063 12.543 0 12.3906 0C12.3867 0 12.3828 0 12.3828 0H4.10156C3.77734 0 3.51562 0.261719 3.51562 0.585938V3.51562H2.92969C1.96094 3.51562 1.17188 4.30469 1.17188 5.27344V7.13281C0.488281 7.375 0 8.02344 0 8.78906V15.8984C0 16.8672 0.789063 17.6562 1.75781 17.6562H3.51562V19.4141C3.51562 19.7383 3.77734 20 4.10156 20H15.8984C16.2227 20 16.4844 19.7383 16.4844 19.4141V17.6562H18.2422C19.2109 17.6562 20 16.8672 20 15.8984V8.78906C20 8.02344 19.5117 7.375 18.8281 7.13281ZM16.4844 4.6875H17.0703C17.3945 4.6875 17.6562 4.94922 17.6562 5.27344V7.03125H16.4844V4.6875ZM4.6875 1.17188H11.7969V4.10156C11.7969 4.42578 12.0586 4.6875 12.3828 4.6875H15.3125V7.03125H4.6875V1.17188ZM2.34375 5.27344C2.34375 4.94922 2.60547 4.6875 2.92969 4.6875H3.51562V7.03125H2.34375V5.27344ZM15.3125 18.8281H4.6875V12.9688H15.3125V18.8281ZM18.8281 15.8984C18.8281 16.2227 18.5664 16.4844 18.2422 16.4844H16.4844V12.9688H17.0703C17.3945 12.9688 17.6562 12.707 17.6562 12.3828C17.6562 12.0586 17.3945 11.7969 17.0703 11.7969C16.5938 11.7969 3.60156 11.7969 2.92969 11.7969C2.60547 11.7969 2.34375 12.0586 2.34375 12.3828C2.34375 12.707 2.60547 12.9688 2.92969 12.9688H3.51562V16.4844H1.75781C1.43359 16.4844 1.17188 16.2227 1.17188 15.8984V8.78906C1.17188 8.46484 1.43359 8.20312 1.75781 8.20312C2.46484 8.20312 17.4336 8.20312 18.2422 8.20312C18.5664 8.20312 18.8281 8.46484 18.8281 8.78906V15.8984Z" fill="#C0C0C0"/>
<path d="M13.5547 14.1406H6.44531C6.12109 14.1406 5.85938 14.4023 5.85938 14.7266C5.85938 15.0508 6.12109 15.3125 6.44531 15.3125H13.5547C13.8789 15.3125 14.1406 15.0508 14.1406 14.7266C14.1406 14.4023 13.8789 14.1406 13.5547 14.1406Z" fill="#C0C0C0"/>
<path d="M13.5547 16.4844H6.44531C6.12109 16.4844 5.85938 16.7461 5.85938 17.0703C5.85938 17.3945 6.12109 17.6562 6.44531 17.6562H13.5547C13.8789 17.6562 14.1406 17.3945 14.1406 17.0703C14.1406 16.7461 13.8789 16.4844 13.5547 16.4844Z" fill="#C0C0C0"/>
<path d="M4.10156 9.375H2.92969C2.60547 9.375 2.34375 9.63672 2.34375 9.96094C2.34375 10.2852 2.60547 10.5469 2.92969 10.5469H4.10156C4.42578 10.5469 4.6875 10.2852 4.6875 9.96094C4.6875 9.63672 4.42578 9.375 4.10156 9.375Z" fill="#C0C0C0"/>
</svg>