<svg width="16" height="20" viewBox="0 0 16 20" fill="none" xmlns="http://www.w3.org/2000/svg">
<path d="M3.96236 12.8687C3.96236 12.5368 3.73408 12.3377 3.33459 12.3377C3.17153 12.3377 3.06146 12.3543 3.00439 12.3709V13.437C3.07369 13.4536 3.15522 13.4578 3.27344 13.4578C3.70147 13.4578 3.96236 13.2379 3.96236 12.8687Z" fill="#C0C0C0"/>
<path d="M6.43653 12.3501C6.25717 12.3501 6.14303 12.3667 6.07373 12.3833V14.7438C6.14303 14.7604 6.25309 14.7604 6.35093 14.7604C7.07653 14.7646 7.5494 14.358 7.5494 13.4993C7.55755 12.7442 7.12545 12.3501 6.43653 12.3501Z" fill="#C0C0C0"/>
<path d="M11.0349 0H3.13885C1.98522 0 1.04764 0.954159 1.04764 2.12819V10.0021H0.843822C0.379108 10.0021 0 10.3837 0 10.8567V16.0589C0 16.5318 0.379108 16.9177 0.843822 16.9177H1.04764V17.8718C1.04764 19.0458 1.98522 20 3.13885 20H13.9088C15.2785 20 16 19.2657 16 17.8718V5.0363L11.0349 0ZM2.20943 11.7984C2.45809 11.7569 2.80459 11.7237 3.29376 11.7237C3.78701 11.7237 4.14166 11.8191 4.37809 12.0141C4.60229 12.1966 4.7572 12.4953 4.7572 12.848C4.7572 13.2006 4.64306 13.4993 4.43108 13.7026C4.15796 13.9639 3.7544 14.0842 3.27745 14.0842C3.17147 14.0842 3.07771 14.0801 3.00433 14.0676V15.3578H2.20943V11.7984ZM14.0718 18.8633H2.9758C2.52739 18.8633 2.16459 18.4941 2.16459 18.0378V16.9177H12.3679C12.8326 16.9177 13.2117 16.5318 13.2117 16.0589V10.8567C13.2117 10.3837 12.8326 9.99793 12.3679 9.99793H2.16459V1.96225C2.16459 1.51006 2.52739 1.13669 2.9758 1.13669L10.7169 1.21137V4.08214C10.7169 4.89525 11.2836 5.47604 12.0866 5.47604L14.8545 5.46775L14.8831 18.0336C14.8831 18.4941 14.5203 18.8633 14.0718 18.8633ZM5.27083 15.3412V11.7984C5.56433 11.7527 5.94752 11.7237 6.35516 11.7237C7.02777 11.7237 7.46395 11.8482 7.80637 12.1095C8.17325 12.3875 8.40561 12.8314 8.40561 13.4702C8.40561 14.1589 8.15694 14.636 7.81452 14.9305C7.43949 15.2458 6.87287 15.3951 6.17987 15.3951C5.76408 15.3951 5.47057 15.3661 5.27083 15.3412ZM11.0104 13.2421V13.9058H9.7386V15.3578H8.93554V11.7486H11.1042V12.4165H9.74268V13.2421H11.0104Z" fill="#C0C0C0"/>
</svg>