<svg width="12" height="14" viewBox="0 0 12 14" fill="none" xmlns="http://www.w3.org/2000/svg">
<path d="M11.4444 2.1875H6.55556V0.546875C6.55556 0.246094 6.30556 0 6 0C5.69444 0 5.44444 0.246094 5.44444 0.546875V2.1875H0.555556C0.25 2.1875 0 2.43359 0 2.73438V4.92188C0 5.22266 0.25 5.46875 0.555556 5.46875H1.61389V13.4531C1.61389 13.7539 1.86389 14 2.16944 14H9.82778C10.1333 14 10.3833 13.7539 10.3833 13.4531V5.46875H11.4444C11.75 5.46875 12 5.22266 12 4.92188V2.73438C12 2.43359 11.75 2.1875 11.4444 2.1875ZM9.275 12.9062H2.725V5.46875H9.27222V12.9062H9.275ZM10.8889 4.375C10.1472 4.375 1.55 4.375 1.11111 4.375V3.28125H10.8889V4.375ZM6.72222 11.2656V7.10938C6.72222 6.80859 6.97222 6.5625 7.27778 6.5625C7.58333 6.5625 7.83333 6.80859 7.83333 7.10938V11.2656C7.83333 11.5664 7.58333 11.8125 7.27778 11.8125C6.97222 11.8125 6.72222 11.5664 6.72222 11.2656ZM4.16667 11.2656V7.10938C4.16667 6.80859 4.41667 6.5625 4.72222 6.5625C5.02778 6.5625 5.27778 6.80859 5.27778 7.10938V11.2656C5.27778 11.5664 5.02778 11.8125 4.72222 11.8125C4.41667 11.8125 4.16667 11.5664 4.16667 11.2656Z" fill="#00859B"/>
</svg>