<svg width="8" height="8" viewBox="0 0 8 8" fill="none" xmlns="http://www.w3.org/2000/svg">
<path fill-rule="evenodd" clip-rule="evenodd" d="M1.7071 0.292894C1.31657 -0.0976306 0.68341 -0.0976306 0.292886 0.292894C-0.0976387 0.683418 -0.0976387 1.31658 0.292886 1.70711L2.58578 4L0.292886 6.29289C-0.0976386 6.68342 -0.0976386 7.31658 0.292886 7.70711C0.68341 8.09763 1.31658 8.09763 1.7071 7.70711L3.99999 5.41421L6.29289 7.70711C6.68341 8.09763 7.31658 8.09763 7.7071 7.70711C8.09762 7.31658 8.09762 6.68342 7.7071 6.29289L5.41421 4L7.7071 1.70711C8.09762 1.31658 8.09762 0.683418 7.7071 0.292894C7.31658 -0.0976306 6.68341 -0.0976306 6.29289 0.292894L3.99999 2.58579L1.7071 0.292894Z" fill="white"/>
</svg>
