<svg xmlns="http://www.w3.org/2000/svg" width="12" height="12" viewBox="0 0 12 12">
  <defs>
    <style>
      .cls-1 {
        fill: #333;
        fill-rule: evenodd;
      }
    </style>
  </defs>
  <path id="Shape_949_copy" data-name="Shape 949 copy" class="cls-1" d="M1231.69,6368.98l2.51,0.34a2.858,2.858,0,0,1,2.11,2.25,2.11,2.11,0,0,1-.37,2.07,2.181,2.181,0,0,0,2.88-.48c0.59-.81-0.15-2.87-0.15-2.87s-0.49-.34.4-0.33c1.7,0.04,4.34.05,3.87-2.1-0.55-2.48-.61-3.09-1.02-4.5a1.563,1.563,0,0,0-1.68-1.32c-0.31,0-2.49-.09-4.53-0.01-1.02.04-1.84,0.95-2.3,0.96a13.829,13.829,0,0,1-1.72.01l-0.69.75v4.45Z" transform="translate(-1231 -6362)"/>
</svg>
