<svg xmlns="http://www.w3.org/2000/svg" width="18" height="14" viewBox="0 0 18 14"><path id="Rounded_Rectangle_1055_copy_4" data-name="Rounded Rectangle 1055 copy 4" class="mailcls-1" d="M903,3845H891a3,3,0,0,1-3-3v-8a3,3,0,0,1,3-3h12a3,3,0,0,1,3,3v8A3,3,0,0,1,903,3845Zm-12-2h12a0.969,0.969,0,0,0,.475-0.14l-3.844-3.86-1.821,1.59c-0.021.03-.03,0.06-0.054,0.09a1.1,1.1,0,0,1-1.512,0c-0.024-.03-0.033-0.06-0.054-0.09l-1.821-1.59-3.844,3.86A0.969,0.969,0,0,0,891,3843Zm-1-2.44,2.861-2.88-2.861-2.5v5.38Zm13-7.56H891a1.037,1.037,0,0,0-.354.07l6.354,5.56,6.354-5.56A1.037,1.037,0,0,0,903,3833Zm1,2.18-2.861,2.5,2.861,2.88v-5.38Z" transform="translate(-888 -3831)"/></svg>