<svg xmlns="http://www.w3.org/2000/svg" width="10.031" height="10.031" viewBox="0 0 10.031 10.031">
  <defs>
    <style>
      .cls-1 {
        fill: #b8b8b8;
        fill-rule: evenodd;
      }
    </style>
  </defs>
  <path id="Rounded_Rectangle_818_copy_11" data-name="Rounded Rectangle 818 copy 11" class="cls-1" d="M287.017,751.005h0l-0.027,5.043a0.983,0.983,0,0,1-.989.99,1,1,0,0,1-1-1l0.014-2.672-6.327,6.352a1,1,0,1,1-1.415-1.414L283.563,752l-2.579,0a1,1,0,0,1-1-1,0.985,0.985,0,0,1,.989-0.99l4.771,0a1.01,1.01,0,0,1,1.269.961v0.036h0Z" transform="translate(-277 -750)"/>
</svg>
