<svg xmlns="http://www.w3.org/2000/svg" width="16" height="12" viewBox="0 0 16 12"><path id="Ellipse_302_copy_3" data-name="Ellipse 302 copy 3" class="cls-1" d="M549,146a8.546,8.546,0,0,1-8.008-6,8.344,8.344,0,0,1,16.016,0A8.547,8.547,0,0,1,549,146Zm0-2a6.591,6.591,0,0,0,5.967-4,7.022,7.022,0,0,0-1.141-1.76,4.977,4.977,0,0,1-9.652,0,7.053,7.053,0,0,0-1.142,1.76A6.591,6.591,0,0,0,549,144Zm-2.958-7.246c-0.007.084-.042,0.159-0.042,0.246a3,3,0,1,0,6,0c0-.087-0.035-0.162-0.042-0.246A6.179,6.179,0,0,0,546.042,136.753Z" transform="translate(-541 -134)"/></svg>