<svg xmlns="http://www.w3.org/2000/svg" width="14" height="14" viewBox="0 0 14 14">
  <defs>
    <style>
      .cls-1 {
        fill: #333;
        fill-rule: evenodd;
      }
    </style>
  </defs>
  <path id="Ellipse_217_copy_6" data-name="Ellipse 217 copy 6" class="cls-1" d="M1531,255a1,1,0,0,0,1-1v-1a10,10,0,0,1,10-10h1a1,1,0,1,0,0-2h-1a12,12,0,0,0-12,12v1A1,1,0,0,0,1531,255Zm12-9h-1a7,7,0,0,0-7,7v1a1,1,0,1,0,2,0v-1a5,5,0,0,1,5-5h1A1,1,0,0,0,1543,246Zm-1,5a2,2,0,1,0,2,2A2,2,0,0,0,1542,251Z" transform="translate(-1530 -241)"/>
</svg>
