<svg xmlns="http://www.w3.org/2000/svg" width="19" height="14" viewBox="0 0 19 14">
  <defs>
    <style>
      .cls-1 {
        fill: #333;
        fill-rule: evenodd;
      }
    </style>
  </defs>
  <path id="Rounded_Rectangle_873_copy_7" data-name="Rounded Rectangle 873 copy 7" class="cls-1" d="M1500,762.854a1.7,1.7,0,0,1,0,.226c0,0.007-.01.013-0.01,0.02a1,1,0,0,1-.07.3l-2.93,10.678a1.039,1.039,0,0,1-.11.417,1.273,1.273,0,0,1-.18.214h0a0.972,0.972,0,0,1-.28.2c-0.02.008-.03,0.018-0.05,0.025a1.016,1.016,0,0,1-.27.063,0.813,0.813,0,0,1-.12.012,0.9,0.9,0,0,1-.22-0.036,0.981,0.981,0,0,1-.13-0.022c-0.02-.008-0.04-0.026-0.06-0.036a0.43,0.43,0,0,0-.05-0.016l-3.31-1.9-3.34,2.506a0.756,0.756,0,0,1-.11.117c-0.03.039-.06,0.078-0.09,0.112a1.414,1.414,0,0,1-.22.148c-0.04.016-.06,0.033-0.1,0.045a0.89,0.89,0,0,1-.3.061c-0.02,0-.03.011-0.05,0.011s-0.02,0-.03-0.006a0.937,0.937,0,0,1-.29-0.059,0.974,0.974,0,0,1-.1-0.033c-0.02-.013-0.05-0.013-0.08-0.028a0.8,0.8,0,0,1-.13-0.116,0.63,0.63,0,0,1-.1-0.091,0.609,0.609,0,0,1-.13-0.193,0.418,0.418,0,0,1-.07-0.142,0.8,0.8,0,0,1-.05-0.213c0-.041-0.02-0.077-0.02-0.119v-4.986l-5.32-3.049a0.975,0.975,0,0,1-.62-0.622c-0.01-.039-0.03-0.076-0.04-0.117a0.073,0.073,0,0,0-.02-0.039c0-.028.01-0.054,0.01-0.082a0.987,0.987,0,0,1,.09-0.606,1,1,0,0,1,1.01-.511L1498.85,762a0.713,0.713,0,0,1,.08,0c0.02,0,.05,0,0.07,0a1.022,1.022,0,0,1,.31.038c0.03,0.009.05,0.028,0.09,0.041a1,1,0,0,1,.23.128,0.819,0.819,0,0,1,.12.13,0.963,0.963,0,0,1,.12.15c0.01,0.018.03,0.029,0.04,0.048a1.539,1.539,0,0,1,.06.211,0.236,0.236,0,0,0,.03.075C1500,762.837,1499.99,762.845,1500,762.854Zm-4.62,9.644,1.99-7.279-6.96,4.43Zm-6.38.6,1.47-1.1-1.47-.841V773.1Zm-0.54-4.569,5.78-3.676-9.3,1.658Z" transform="translate(-1481 -762)"/>
</svg>
