<svg xmlns="http://www.w3.org/2000/svg" width="58" height="56" viewBox="0 0 58 56"><path id="Rounded_Rectangle_704_copy_6" data-name="Rounded Rectangle 704 copy 6" class="cls-1" d="M1592,2335v32h-53.23c-3.39-.04-4.76-1.41-4.77-4.75V2335l1-2,9.56-6.8,1.56,1.25-9.59,6.89,26.47,18.72,26.47-18.72-9.59-6.89,1.56-1.25,9.56,6.8Zm-2,1.41c-0.81.58-1.84,1.33-3,2.16h0c-6.09,4.39-16.19,11.62-20.96,14.89a7.139,7.139,0,0,0-.64.5,3.413,3.413,0,0,1-2.4,1.04,3.259,3.259,0,0,1-2.38-1.03,5.842,5.842,0,0,0-.58-0.44c-4.71-3.27-14.9-10.57-21.04-14.97-1.16-.83-2.2-1.58-3-2.15V2362a3.075,3.075,0,0,0,.21,1.1c0.8-.68,1.79-1.53,2.9-2.48,3.2-2.75,7.47-6.4,11.45-9.82l1.76,1.24-11.61,9.93-3.11,2.67a3,3,0,0,0,1.4.36h48a3,3,0,0,0,1.4-.36l-3.11-2.67-11.61-9.93,1.76-1.24c3.98,3.42,8.25,7.07,11.45,9.82h0c1.11,0.95,2.1,1.8,2.89,2.48a2.879,2.879,0,0,0,.22-1.1v-25.59Zm-2.77,30.59H1592v-4.77C1591.99,2365.58,1590.63,2366.96,1587.23,2367ZM1565,2340a2,2,0,1,1-2-2A2.006,2.006,0,0,1,1565,2340Zm3.28-14.31c-3.51,3.51-4.19,3.1-4.28,7.31a1,1,0,0,1-2,0c0.01-4.41,1.2-5.46,4.76-8.68,1.54-1.46,3.23-3.28,3.25-5.45,0.03-4.16-3.42-5.9-6.64-5.92-4.07-.03-6.28,1.85-7.07,5.15a6.009,6.009,0,0,0-.3,1.9h0a1,1,0,0,1-1.99.03h-0.02a7.332,7.332,0,0,1,.61-3.04c1.24-3.67,4.34-5.98,8.89-5.98,4.65,0,8.5,2.89,8.5,7.73C1571.99,2321.88,1570.42,2323.68,1568.28,2325.69Z" transform="translate(-1534 -2311)"/>  <path class="op-cls" d="M1539,2338l23.94,16,24.06-16v24h-48v-24Z" transform="translate(-1534 -2311)"/></svg>