<svg xmlns="http://www.w3.org/2000/svg" width="18" height="14" viewBox="0 0 18 14"><path id="Ellipse_299_copy_2" data-name="Ellipse 299 copy 2" class="cls-1" d="M1346,916a3,3,0,0,1-6,0h-1a1.012,1.012,0,0,1-.42-0.1,1.917,1.917,0,0,1-.58.1h-2a3,3,0,0,1-6,0,2.344,2.344,0,0,1,.03-0.264A1.992,1.992,0,0,1,1329,914v-7a2,2,0,0,1,2-2h7a2,2,0,0,1,2,2h3l4,4v4A1,1,0,0,1,1346,916Zm-13,1a1,1,0,1,0-1-1A1,1,0,0,0,1333,917Zm5-10h-7v6.778a2.961,2.961,0,0,1,4.22.221H1338v-7Zm5,10a1,1,0,1,0-1-1A1,1,0,0,0,1343,917Zm2-5.313L1342.31,909H1340v5h0.78a2.96,2.96,0,0,1,4.22-.222v-2.09Z" transform="translate(-1329 -905)"/></svg>