<svg xmlns="http://www.w3.org/2000/svg" width="13" height="10" viewBox="0 0 13 10"><path id="Rounded_Rectangle_918_copy_2" data-name="Rounded Rectangle 918 copy 2" class="cls-1" d="M1621.5,603h2a0.5,0.5,0,0,1,0,1h-2A0.5,0.5,0,0,1,1621.5,603Zm5,0h7a0.5,0.5,0,0,1,0,1h-7A0.5,0.5,0,0,1,1626.5,603Zm-5,3h2a0.5,0.5,0,0,1,0,1h-2A0.5,0.5,0,0,1,1621.5,606Zm5,0h7a0.5,0.5,0,0,1,0,1h-7A0.5,0.5,0,0,1,1626.5,606Zm-5,3h2a0.5,0.5,0,0,1,0,1h-2A0.5,0.5,0,0,1,1621.5,609Zm5,0h7a0.5,0.5,0,0,1,0,1h-7A0.5,0.5,0,0,1,1626.5,609Zm-5,3h2a0.5,0.5,0,0,1,0,1h-2A0.5,0.5,0,0,1,1621.5,612Zm5,0h7a0.5,0.5,0,0,1,0,1h-7A0.5,0.5,0,0,1,1626.5,612Z" transform="translate(-1621 -603)"/></svg>