<svg width="12" height="9" viewBox="0 0 12 9" fill="none" xmlns="http://www.w3.org/2000/svg">
<path fill-rule="evenodd" clip-rule="evenodd" d="M0.991261 4.88898C0.146902 3.23106 0 1.28472 0 0H2C2 1.19147 2.14722 2.75172 2.77345 3.98134C3.07879 4.5809 3.48543 5.07686 4.02499 5.4261C4.36387 5.64544 4.77898 5.82243 5.29412 5.92274V0H7.29412V2.3472C7.94194 2.23943 8.52913 2.02784 8.98583 1.73207C9.64014 1.30833 10 0.7415 10 0H12C12 1.54421 11.1834 2.69167 10.073 3.41078C9.9374 3.4986 9.79714 3.5804 9.65292 3.6563C10.8561 4.46589 12 5.82727 12 8H10C10 6.48931 9.14862 5.62791 8.16755 5.09182C7.87091 4.92973 7.57068 4.8036 7.29412 4.7065V8.01318H6.29412C4.95007 8.01318 3.83697 7.68679 2.93824 7.10508C2.04398 6.52625 1.42121 5.73319 0.991261 4.88898Z" fill="#999999"/>
</svg>
