<svg width="11" height="11" viewBox="0 0 11 11" fill="none" xmlns="http://www.w3.org/2000/svg">
<path opacity="0.7" d="M8.64295 5.14083C8.86806 4.81726 9.00003 4.42404 9.00003 4C9.00003 2.89543 8.1046 2 7.00003 2C6.57598 2 6.18276 2.13197 5.85919 2.35707C5.28448 2.12673 4.65705 2 4.00003 2C3.83886 2 3.67948 2.00763 3.52222 2.02253C4.21057 0.814516 5.51018 0 7.00003 0C9.20916 0 11 1.79086 11 4C11 5.48985 10.1855 6.78945 8.97749 7.47781C8.9924 7.32055 9.00003 7.16116 9.00003 7C9.00003 6.34298 8.8733 5.71555 8.64295 5.14083Z" fill="#5FA800"/>
<circle cx="4" cy="7" r="3" stroke="#5FA800" stroke-width="2"/>
</svg>
