<svg width="0" height="0" class="hidden">
    <symbol viewBox="0 0 10 8" fill="none" xmlns="http://www.w3.org/2000/svg" id="icon-checkmark">
        <path d="M1 3.5L4 6.5L9 1.5" stroke-linecap="round"/>
    </symbol>
    <symbol viewBox="0 0 14 16" fill="none" xmlns="http://www.w3.org/2000/svg" id="icon-repost">
        <path fill-rule="evenodd" clip-rule="evenodd" d="M10.2929 0.292405C10.6834 -0.0981193 11.3166 -0.0981194 11.7071 0.292405L13.7071 2.2924C13.8946 2.47994 14 2.73429 14 2.99951C14 3.26473 13.8946 3.51908 13.7071 3.70662L11.7071 5.70662C11.3166 6.09714 10.6834 6.09714 10.2929 5.70662C9.90237 5.31609 9.90237 4.68293 10.2929 4.29241L10.5858 3.99951H3C2.44772 3.99951 2 4.44723 2 4.99951L2 7.04381C2 7.59609 1.55229 8.04381 1 8.04381C0.447716 8.04381 6.24244e-07 7.59609 5.64639e-07 7.04381L3.85825e-07 4.99951C2.66616e-07 3.34266 1.34315 1.99951 3 1.99951H10.5858L10.2929 1.70662C9.90237 1.31609 9.90237 0.682929 10.2929 0.292405Z" fill="#DCDCDC"/>
        <path d="M11 0.999512V4.99951H10V0.999512L11 0.999512Z" fill="#DCDCDC"/>
        <path fill-rule="evenodd" clip-rule="evenodd" d="M3.70711 15.7066C3.31658 16.0971 2.68342 16.0971 2.29289 15.7066L0.292893 13.7066C0.105357 13.5191 0 13.2647 0 12.9995C0 12.7343 0.105357 12.4799 0.292893 12.2924L2.29289 10.2924C2.68342 9.90188 3.31658 9.90188 3.70711 10.2924C4.09763 10.6829 4.09763 11.3161 3.70711 11.7066L3.41421 11.9995H11C11.5523 11.9995 12 11.5518 12 10.9995V8.95521C12 8.40293 12.4477 7.95521 13 7.95521C13.5523 7.95521 14 8.40293 14 8.95521V10.9995C14 12.6564 12.6569 13.9995 11 13.9995H3.41421L3.70711 14.2924C4.09763 14.6829 4.09763 15.3161 3.70711 15.7066Z" fill="#DCDCDC"/>
        <path d="M3 14.9995L3 10.9995H4V14.9995H3Z" fill="#DCDCDC"/>
    </symbol>
</svg>