<svg xmlns="http://www.w3.org/2000/svg" width="50.031" height="50" viewBox="0 0 50.031 50">
  <defs>
    <style>
      .cls-1, .cls-2 {
        fill: #3860d9;
        fill-rule: evenodd;
      }

      .cls-2 {
        opacity: 0.1;
      }
    </style>
  </defs>
  <path id="Rounded_Rectangle_1052_copy" data-name="Rounded Rectangle 1052 copy" class="cls-1" d="M707,456h-3a1,1,0,0,1-1-1h0a9,9,0,0,0-9-9h-6v35a3,3,0,0,0,3,3l4,0.485h1a1,1,0,0,1,1,1V489a1,1,0,0,1-1,1H670a1,1,0,0,1-1-1v-3.519a1,1,0,0,1,1-1h1l4-.485a3,3,0,0,0,3-3.006V446h-6a9,9,0,0,0-9,9h0a1,1,0,0,1-1,1h-3a1,1,0,0,1-1-1V441a1,1,0,0,1,1-1h48a1,1,0,0,1,1,1v14A1,1,0,0,1,707,456Zm-1-14H660v12h1.05A11,11,0,0,1,672,444h7a1,1,0,0,1,1,1v29.977h0v6.011a5.005,5.005,0,0,1-5,5.01l-4,.485h0V487h0v1h24v-1.515h0L691,486a5,5,0,0,1-5-5v-6h0V445a1,1,0,0,1,1-1h7a11,11,0,0,1,10.95,10H706V442Z" transform="translate(-658 -440)"/>
  <path id="T_copy_3" data-name="T copy 3" class="cls-2" d="M691,485l-2-1-2-2V451.01h15.91l1.707,3.658,3.408,0.3v10.04H705.6a19.013,19.013,0,0,0-1.211-3.231,11.058,11.058,0,0,0-1.752-2.874,16.633,16.633,0,0,0-2.406-2.39,4.927,4.927,0,0,0-2.414-1.242,11.008,11.008,0,0,0-1.748-.211c-1.1-.047-0.814-0.071-1.753-0.071h-1.327v26.968a4.618,4.618,0,0,0,.492,2.127,3.272,3.272,0,0,0,1.723,1.494,20.6,20.6,0,0,0,2.654.668,29.757,29.757,0,0,0,4.136.457v3.305h-26V489H696v-3Zm-15.606-26a11.42,11.42,0,0,0-1.668,2.847,24.944,24.944,0,0,0-1.257,3.161h-2.461v-14H679v4.684a6.46,6.46,0,0,0-1.205.818A16.462,16.462,0,0,0,675.394,459Z" transform="translate(-658 -440)"/>
</svg>
