<svg xmlns="http://www.w3.org/2000/svg" width="10" height="15" viewBox="0 0 10 15">
  <defs>
    <style>
      .cls-1 {
        fill: #b8b8b8;
        fill-rule: evenodd;
      }
    </style>
  </defs>
  <path id="Rounded_Rectangle_853_copy" data-name="Rounded Rectangle 853 copy" class="cls-1" d="M256.717,755.686l-4.027,4.031c-0.006.006-.015,0.008-0.021,0.014a1.007,1.007,0,0,1-.29.191h0a0.973,0.973,0,0,1-.52.06,0.79,0.79,0,0,1-.106-0.02,0.968,0.968,0,0,1-.473-0.245l-3.993-4.031a0.984,0.984,0,0,1,0-1.4,1,1,0,0,1,1.41,0l2.3,2.325V749a1,1,0,0,1,2,0v7.6l2.308-2.31a1,1,0,0,1,1.409,0A0.986,0.986,0,0,1,256.717,755.686ZM248,761h8a1,1,0,0,1,0,2h-8A1,1,0,0,1,248,761Z" transform="translate(-247 -748)"/>
</svg>
