<svg id="Group_281_copy" data-name="Group 281 copy" xmlns="http://www.w3.org/2000/svg" width="50" height="50" viewBox="0 0 50 50">
  <defs>
    <style>
      .cls-1, .cls-2 {
        fill: #3860d9;
      }

      .cls-1 {
        fill-rule: evenodd;
      }

      .cls-2 {
        opacity: 0.1;
      }
    </style>
  </defs>
  <path class="cls-1" d="M1236,490a25,25,0,1,1,25-25A25,25,0,0,1,1236,490Zm0-48a23,23,0,1,0,23,23A23,23,0,0,0,1236,442Zm10.68,30.526a14.984,14.984,0,0,1-21.36,0l0.01-.012a0.989,0.989,0,0,1-.33-0.733,1,1,0,0,1,1-1,0.974,0.974,0,0,1,.72.316,12.984,12.984,0,0,0,18.56,0,0.974,0.974,0,0,1,.72-0.316,1,1,0,0,1,1,1,0.991,0.991,0,0,1-.33.734ZM1244,462a2,2,0,1,1,2-2A2,2,0,0,1,1244,462Zm-16,0a2,2,0,1,1,2-2A2,2,0,0,1,1228,462Z" transform="translate(-1211 -440)"/>
  <circle class="cls-2" cx="27.5" cy="27.5" r="20.5"/>
</svg>
