<svg width="0" height="0" class="hidden">
  <symbol xmlns="http://www.w3.org/2000/svg" viewBox="0 0 18 18" id="back">
    <path d="M9 18.0001C7.21996 18.0001 5.47992 17.4724 3.99987 16.4835C2.51983 15.4945 1.36627 14.0889 0.685084 12.4444C0.00389528 10.7999 -0.174329 8.99004 0.172938 7.24421C0.520205 5.49838 1.37737 3.89497 2.63604 2.6363C3.89471 1.37763 5.49837 0.520189 7.2442 0.172922C8.99003 -0.174345 10.7996 0.00394052 12.4441 0.685129C14.0887 1.36632 15.4943 2.52003 16.4832 4.00007C17.4721 5.48011 18 7.22004 18 9.00007C18 11.387 17.0518 13.676 15.3639 15.3638C13.6761 17.0517 11.3869 18.0001 9 18.0001ZM9 2.00007C7.61553 2.00007 6.26216 2.41059 5.11102 3.17976C3.95987 3.94893 3.06265 5.04228 2.53283 6.32136C2.00302 7.60044 1.86439 9.00793 2.13449 10.3658C2.40458 11.7237 3.07129 12.9708 4.05026 13.9498C5.02922 14.9287 6.2765 15.5957 7.63436 15.8658C8.99223 16.1359 10.3997 15.9972 11.6788 15.4674C12.9578 14.9375 14.0511 14.0404 14.8203 12.8892C15.5894 11.7381 16 10.3845 16 9.00007C16 7.14356 15.2625 5.36312 13.9497 4.05036C12.637 2.73761 10.8565 2.00007 9 2.00007ZM10.694 12.7003C10.6018 12.793 10.4922 12.8664 10.3715 12.9166C10.2507 12.9668 10.1213 12.9927 9.9905 12.9927C9.85974 12.9927 9.73026 12.9668 9.60952 12.9166C9.48879 12.8664 9.37917 12.793 9.28698 12.7003L6.28698 9.70027C6.10073 9.5129 5.99621 9.25937 5.99621 8.99519C5.99621 8.731 6.10073 8.47747 6.28698 8.29011L9.28698 5.27009C9.47884 5.11032 9.72352 5.02813 9.97293 5.03962C10.2223 5.05111 10.4584 5.15537 10.6348 5.3321C10.8111 5.50883 10.915 5.74527 10.926 5.9947C10.9369 6.24413 10.8542 6.48873 10.694 6.68025L8.39401 8.9903L10.694 11.2799C10.8809 11.4689 10.9857 11.7245 10.9857 11.9903C10.9857 12.2561 10.8809 12.5112 10.694 12.7003Z"></path>
  </symbol>
</svg>