<svg xmlns="http://www.w3.org/2000/svg" width="12" height="9" viewBox="0 0 12 9">
  <defs>
    <style>
      .cls-1 {
        fill: #333;
        fill-rule: evenodd;
      }
    </style>
  </defs>
  <path id="Rounded_Rectangle_1065_copy" data-name="Rounded Rectangle 1065 copy" class="cls-1" d="M332,6417h-6a3,3,0,0,1-3-3v-2.6l-0.312.31a0.973,0.973,0,0,1-1.4,0,1.012,1.012,0,0,1,0-1.42l1.939-1.92c0.022-.02.035-0.06,0.061-0.08a1.007,1.007,0,0,1,1.434,0,0.426,0.426,0,0,1,.052.08l1.948,1.92a1.012,1.012,0,0,1,0,1.42,0.974,0.974,0,0,1-1.406,0L325,6411.4v2.6a1,1,0,0,0,1,1h6A1,1,0,0,1,332,6417Z" transform="translate(-321 -6408)"/>
</svg>
