<svg xmlns="http://www.w3.org/2000/svg" width="19" height="18" viewBox="0 0 19 18"><path id="Rounded_Rectangle_906_copy_3" data-name="Rounded Rectangle 906 copy 3" class="cls-1" d="M1005.97,4556.22l-1.01,4.02a0.031,0.031,0,0,0-.01.02,0.87,0.87,0,0,1-.14.29,0.423,0.423,0,0,1-.05.07,0.7,0.7,0,0,1-.2.18,0.359,0.359,0,0,1-.1.07,0.656,0.656,0,0,1-.21.08,1.127,1.127,0,0,1-.18.03,0.185,0.185,0,0,1-.07.02H993c-0.03,0-.056-0.02-0.086-0.02a1.137,1.137,0,0,1-.184-0.04,0.779,0.779,0,0,1-.207-0.08c-0.031-.02-0.059-0.04-0.088-0.06a0.879,0.879,0,0,1-.223-0.22s-0.007-.01-0.011-0.01a1,1,0,0,1-.172-0.43l-1.541-6.14H988a1,1,0,1,1,0-2h3.188a0.3,0.3,0,0,1,.092.02,0.964,0.964,0,0,1,.923.76l1.561,6.22h9.447l0.82-3.25a1,1,0,0,1,1.21-.73A0.982,0.982,0,0,1,1005.97,4556.22Zm-7.267.47c0,0.01,0,.01,0,0.01a1,1,0,0,1-1.414,0l-2.016-2.03a0.982,0.982,0,0,1,0-1.4,1,1,0,0,1,1.414,0l1.305,1.31,4.3-4.3a1,1,0,0,1,1.41,0,1.008,1.008,0,0,1,0,1.42ZM995,4562a3,3,0,1,1-3,3A3,3,0,0,1,995,4562Zm0,4a1,1,0,1,0-1-1A1,1,0,0,0,995,4566Zm7-4a3,3,0,1,1-3,3A3,3,0,0,1,1002,4562Zm0,4a1,1,0,1,0-1-1A1,1,0,0,0,1002,4566Z" transform="translate(-987 -4550)"/></svg>