<svg width="18" height="18" viewBox="0 0 18 18" fill="none" xmlns="http://www.w3.org/2000/svg">
    <path d="M9.00001 2C5.73966 2 2.99761 4.2299 2.22048 7.24926C2.08282 7.78411 1.53764 8.1061 1.00279 7.96844C0.467933 7.83078 0.145946 7.28559 0.283608 6.75074C1.28265 2.86919 4.805 0 9.00001 0C11.8283 0 14.3506 1.30446 16 3.34297V1C16 0.447715 16.4477 0 17 0C17.5523 0 18 0.447715 18 1V6C18 6.55228 17.5523 7 17 7H16.4418C16.4264 7.00035 16.4111 7.00035 16.3959 7H12C11.4477 7 11 6.55228 11 6C11 5.44772 11.4477 5 12 5H14.7456C13.48 3.18566 11.3777 2 9.00001 2Z" fill="#365EDC"/>
    <path d="M16.9972 10.0316C17.5321 10.1692 17.8541 10.7144 17.7164 11.2493C16.7174 15.1308 13.195 18 9.00001 18C6.17169 18 3.64938 16.6955 2 14.657V17C2 17.5523 1.55228 18 1 18C0.447715 18 0 17.5523 0 17V12C0 11.4477 0.447715 11 1 11H1.55826C1.57358 10.9996 1.58887 10.9996 1.60412 11H6C6.55228 11 7 11.4477 7 12C7 12.5523 6.55228 13 6 13H3.25443C4.51999 14.8143 6.62232 16 9.00001 16C12.2604 16 15.0024 13.7701 15.7795 10.7507C15.9172 10.2159 16.4624 9.8939 16.9972 10.0316Z" fill="#365EDC"/>
</svg>