<svg xmlns="http://www.w3.org/2000/svg" width="80" height="80" viewBox="0 0 80 80">
  <defs>
    <style>
      .cls-1 {
        fill: #2b303e;
        fill-rule: evenodd;
        opacity: 0.07;
      }
    </style>
  </defs>
  <path id="Rounded_Rectangle_942_copy_4" data-name="Rounded Rectangle 942 copy 4" class="cls-1" d="M417.328,256H346.671A4.314,4.314,0,0,1,342,251.328V180.671A4.314,4.314,0,0,1,346.671,176h70.657A4.314,4.314,0,0,1,422,180.671v70.657A4.314,4.314,0,0,1,417.328,256Zm-1.338-6.01V227.024l-15.983-15.945-13.043,13.012,25.96,25.9h3.066Zm-11.286,0-28.228-28.162L348.247,249.99H404.7Zm-56.695-67.981v60.018l26.412-26.35a2.912,2.912,0,0,1,4.11,0l4.323,4.314,15.1-15.063a2.912,2.912,0,0,1,4.11,0l13.928,13.9V182.009H348.009ZM365,210a11,11,0,1,1,11-11A11,11,0,0,1,365,210Zm0.014-15.986a5,5,0,1,0,5,5A5,5,0,0,0,365.012,194.012Z" transform="translate(-342 -176)"/>
</svg>
