<svg xmlns="http://www.w3.org/2000/svg" width="16" height="12" viewBox="0 0 16 12"><path id="Ellipse_302_copy_4" data-name="Ellipse 302 copy 4" class="cls-1" d="M666,241a8.546,8.546,0,0,1-8.008-6,8.344,8.344,0,0,1,16.016,0A8.547,8.547,0,0,1,666,241Zm0-2a6.591,6.591,0,0,0,5.967-4,7.04,7.04,0,0,0-1.141-1.76,4.977,4.977,0,0,1-9.652,0,7.072,7.072,0,0,0-1.142,1.76A6.591,6.591,0,0,0,666,239Zm-2.958-7.246c-0.007.085-.042,0.16-0.042,0.246a3,3,0,1,0,6,0c0-.086-0.035-0.161-0.042-0.245A6.176,6.176,0,0,0,663.042,231.753Z" transform="translate(-658 -229)"/></svg>