<svg xmlns="http://www.w3.org/2000/svg" width="15.969" height="12" viewBox="0 0 15.969 12">
  <defs>
    <style>
      .cls-1 {
        fill: #999;
        fill-rule: evenodd;
      }
    </style>
  </defs>
  <path id="Rounded_Rectangle_982_copy" data-name="Rounded Rectangle 982 copy" class="cls-1" d="M34,32H22.414l3.3,3.3A1,1,0,1,1,24.3,36.713l-4.978-4.978c-0.01-.01-0.024-0.012-0.034-0.022s-0.015-.041-0.03-0.058a0.974,0.974,0,0,1-.213-0.407,0.909,0.909,0,0,1-.024-0.123,0.982,0.982,0,0,1,.267-0.838c0.011-.011.025-0.014,0.036-0.024L24.3,25.287A1,1,0,0,1,25.713,26.7l-3.3,3.3H34A1,1,0,0,1,34,32Z" transform="translate(-19.031 -25)"/>
</svg>
