<svg class="svg svg-share" id="share.svg" xmlns="http://www.w3.org/2000/svg" width="14" height="16" viewBox="0 0 14 16"><path id="Ellipse_223_copy_8" data-name="Ellipse 223 copy 8" class="cls-1" d="M1613,203a2.967,2.967,0,0,1-1.86-.661l-3.22,2.01a2.689,2.689,0,0,1,0,1.3l3.22,2.01A2.961,2.961,0,0,1,1613,207a3,3,0,1,1-3,3,3.47,3.47,0,0,1,.07-0.651l-3.21-2.01a3,3,0,1,1,0-4.678l3.21-2.01A3.472,3.472,0,0,1,1610,200,3,3,0,1,1,1613,203Zm0,8a1,1,0,1,0-1-1A1,1,0,0,0,1613,211Zm-8-7a1,1,0,1,0,1,1A1,1,0,0,0,1605,204Zm8-5a1,1,0,1,0,1,1A1,1,0,0,0,1613,199Z" transform="translate(-1602 -197)"/></svg>