<?xml version="1.0" standalone="no"?>
<!DOCTYPE svg PUBLIC "-//W3C//DTD SVG 20010904//EN"
 "http://www.w3.org/TR/2001/REC-SVG-20010904/DTD/svg10.dtd">
<svg version="1.0" xmlns="http://www.w3.org/2000/svg"
 width="500.000000pt" height="500.000000pt" viewBox="0 0 500.000000 500.000000"
 preserveAspectRatio="xMidYMid meet">
<metadata>
Created by potrace 1.14, written by Peter Selinger 2001-2017
</metadata>
<g transform="translate(0.000000,500.000000) scale(0.100000,-0.100000)"
fill="#000000" stroke="none">
<path d="M1314 4895 c-4 -8 -15 -15 -25 -15 -10 0 -19 -4 -19 -9 0 -5 -11 -12
-25 -15 -14 -4 -25 -11 -25 -16 0 -6 -7 -10 -15 -10 -8 0 -15 -4 -15 -10 0 -5
-11 -10 -25 -10 -16 0 -25 -6 -25 -15 0 -9 -9 -15 -25 -15 -14 0 -25 -4 -25
-9 0 -5 -11 -12 -25 -15 -14 -4 -25 -11 -25 -16 0 -6 -7 -10 -15 -10 -8 0 -15
-4 -15 -10 0 -5 -9 -10 -20 -10 -11 0 -23 -7 -26 -15 -4 -8 -15 -15 -25 -15
-10 0 -19 -4 -19 -9 0 -5 -11 -12 -25 -15 -14 -4 -25 -11 -25 -16 0 -6 -7 -10
-15 -10 -8 0 -15 -4 -15 -10 0 -5 -11 -10 -25 -10 -16 0 -25 -6 -25 -15 0 -9
-9 -15 -25 -15 -14 0 -25 -4 -25 -9 0 -5 -11 -12 -25 -15 -14 -4 -25 -11 -25
-16 0 -6 -7 -10 -15 -10 -8 0 -15 -4 -15 -10 0 -5 -9 -10 -20 -10 -11 0 -23
-7 -26 -15 -4 -8 -15 -15 -25 -15 -19 0 -28 -6 -64 -37 -7 -7 -18 -13 -24 -13
-6 0 -11 -4 -11 -10 0 -5 -11 -10 -25 -10 -16 0 -25 -6 -25 -15 0 -9 -9 -15
-25 -15 -14 0 -25 -4 -25 -10 0 -5 -6 -10 -12 -10 -7 0 -19 -4 -27 -9 -12 -8
-12 -12 2 -25 8 -9 20 -16 26 -16 6 0 11 -7 11 -15 0 -8 7 -15 15 -15 8 0 15
-4 15 -10 0 -5 9 -10 20 -10 11 0 20 -7 20 -15 0 -8 7 -15 15 -15 8 0 15 -4
15 -10 0 -5 5 -10 11 -10 6 0 17 -6 24 -12 31 -28 44 -38 51 -38 4 0 17 -11
30 -25 13 -14 28 -25 34 -25 6 0 21 -11 34 -25 13 -14 28 -25 34 -25 6 0 22
-11 36 -25 14 -14 30 -25 36 -25 5 0 10 -4 10 -9 0 -5 10 -13 22 -17 12 -3 36
-22 54 -40 17 -19 41 -34 53 -34 12 0 21 -6 21 -15 0 -8 5 -15 10 -15 6 0 22
-11 36 -25 14 -14 30 -25 36 -25 6 0 21 -11 34 -25 13 -14 30 -25 39 -25 8 0
15 -4 15 -10 0 -5 7 -10 15 -10 8 0 15 -7 15 -15 0 -8 5 -15 11 -15 6 0 17 -6
24 -12 31 -28 44 -38 51 -38 4 0 17 -11 30 -25 13 -14 30 -25 39 -25 8 0 15
-4 15 -10 0 -5 7 -10 15 -10 8 0 15 -7 15 -15 0 -8 7 -15 15 -15 8 0 15 -4 15
-10 0 -5 9 -10 20 -10 11 0 20 -7 20 -15 0 -8 7 -15 15 -15 8 0 15 -4 15 -10
0 -5 5 -10 10 -10 10 0 22 -8 55 -37 7 -7 18 -13 24 -13 6 0 11 -7 11 -15 0
-8 9 -15 21 -15 11 0 35 -16 53 -35 19 -19 36 -35 40 -35 3 0 6 16 6 35 0 19
-4 35 -10 35 -5 0 -10 24 -10 53 -1 28 -7 63 -15 77 -8 14 -14 46 -15 73 0 26
-4 47 -10 47 -5 0 -10 26 -10 58 -1 34 -6 65 -15 76 -9 12 -15 42 -15 73 0 29
-4 53 -10 53 -5 0 -10 25 -10 56 0 36 -5 61 -15 70 -10 10 -15 35 -15 70 0 30
-4 54 -10 54 -6 0 -10 26 -10 58 0 36 -6 66 -15 78 -8 11 -14 41 -15 72 0 28
-4 52 -10 52 -5 0 -10 24 -10 53 -1 28 -7 63 -15 77 -8 14 -14 49 -15 78 0 28
-4 52 -10 52 -6 0 -10 27 -10 60 0 33 -4 60 -10 60 -5 0 -13 18 -16 40 -5 30
-11 40 -26 40 -10 0 -21 -7 -24 -15z"/>
<path d="M1740 3820 c0 -22 4 -40 9 -40 5 0 12 -29 16 -65 3 -36 11 -65 16
-65 5 0 9 -27 9 -60 0 -33 4 -60 9 -60 4 0 11 -20 13 -44 6 -48 21 -69 56 -80
12 -4 22 -12 22 -17 0 -5 11 -9 25 -9 14 0 25 -4 25 -10 0 -5 11 -12 25 -16
14 -3 25 -10 25 -15 0 -5 7 -9 15 -9 8 0 15 -4 15 -10 0 -5 9 -10 20 -10 11 0
23 -7 26 -15 4 -8 17 -15 30 -15 13 0 24 -3 24 -7 0 -11 58 -43 76 -43 8 0 14
-4 14 -9 0 -5 11 -12 25 -15 14 -4 25 -11 25 -16 0 -6 11 -10 25 -10 14 0 25
-4 25 -10 0 -5 7 -10 15 -10 8 0 15 -7 15 -15 0 -9 9 -15 25 -15 14 0 25 -4
25 -9 0 -5 11 -12 25 -15 14 -4 25 -11 25 -16 0 -6 11 -10 25 -10 14 0 25 -4
25 -9 0 -5 11 -12 25 -15 14 -4 25 -11 25 -16 0 -6 9 -10 20 -10 12 0 31 -9
43 -20 12 -12 32 -23 44 -26 13 -4 23 -10 23 -15 0 -5 9 -9 20 -9 11 0 23 -7
26 -15 4 -8 14 -15 24 -15 10 0 20 -3 22 -7 4 -11 67 -43 84 -43 8 0 14 -4 14
-9 0 -5 11 -12 25 -15 14 -4 25 -11 25 -16 0 -6 7 -10 15 -10 8 0 15 -4 15
-10 0 -5 11 -10 25 -10 16 0 25 -6 25 -15 0 -9 9 -15 25 -15 14 0 25 -4 25 -9
0 -5 11 -12 25 -15 14 -4 25 -11 25 -16 0 -6 11 -10 25 -10 14 0 25 -4 25 -10
0 -5 11 -12 25 -16 14 -3 25 -10 25 -15 0 -5 11 -9 25 -9 14 0 25 4 25 10 0 5
16 12 35 16 19 3 35 10 35 15 0 5 14 9 30 9 17 0 30 4 30 9 0 5 18 11 40 15
22 3 40 11 40 16 0 6 14 10 31 10 17 0 37 7 45 15 9 8 29 15 45 15 16 0 29 5
29 10 0 6 9 10 20 10 11 0 20 7 20 15 0 9 -9 15 -25 15 -14 0 -25 4 -25 9 0 5
-11 12 -25 15 -14 4 -25 11 -25 16 0 6 -7 10 -15 10 -8 0 -15 5 -15 10 0 6
-11 10 -25 10 -14 0 -25 4 -25 10 0 5 -11 12 -25 16 -14 3 -25 10 -25 15 0 5
-9 9 -20 9 -11 0 -20 4 -20 10 0 5 -11 12 -25 16 -14 3 -25 10 -25 15 0 5 -11
9 -24 9 -13 0 -26 7 -30 15 -3 8 -15 15 -26 15 -11 0 -20 5 -20 10 0 6 -7 10
-15 10 -8 0 -15 4 -15 10 0 5 -11 12 -25 16 -14 3 -25 10 -25 15 0 5 -11 9
-25 9 -14 0 -25 4 -25 10 0 5 -11 12 -25 16 -14 3 -25 10 -25 15 0 5 -11 9
-25 9 -16 0 -25 6 -25 15 0 9 -9 15 -25 15 -14 0 -25 5 -25 10 0 6 -7 10 -15
10 -8 0 -15 4 -15 10 0 5 -11 12 -25 16 -14 3 -25 10 -25 15 0 5 -6 9 -14 9
-17 0 -80 32 -84 43 -2 4 -12 7 -22 7 -10 0 -20 7 -24 15 -3 8 -15 15 -26 15
-11 0 -20 4 -20 9 0 5 -10 11 -23 15 -12 3 -32 14 -44 26 -12 11 -31 20 -43
20 -11 0 -20 4 -20 10 0 5 -11 12 -25 16 -14 3 -25 10 -25 15 0 5 -11 9 -25 9
-16 0 -25 6 -25 15 0 9 -9 15 -25 15 -14 0 -25 4 -25 9 0 5 -11 12 -25 15 -14
4 -25 11 -25 16 0 6 -7 10 -15 10 -8 0 -15 5 -15 10 0 6 -11 10 -25 10 -14 0
-25 4 -25 10 0 5 -11 12 -25 16 -14 3 -25 10 -25 15 0 5 -9 9 -20 9 -11 0 -20
4 -20 9 0 5 -11 12 -25 15 -14 4 -25 11 -25 16 0 6 -11 10 -24 10 -13 0 -26 7
-30 15 -3 8 -15 15 -26 15 -11 0 -20 5 -20 10 0 6 -7 10 -15 10 -8 0 -15 4
-15 10 0 5 -11 12 -25 16 -14 3 -25 10 -25 15 0 5 -11 9 -25 9 -14 0 -25 4
-25 10 0 5 -11 12 -25 16 -14 3 -25 10 -25 15 0 5 -11 9 -25 9 -16 0 -25 6
-25 15 0 9 -9 15 -25 15 -22 0 -25 -4 -25 -40z"/>
<path d="M1117 3554 c-4 -4 -7 -331 -7 -726 0 -472 -3 -718 -10 -718 -6 0 -10
-112 -10 -315 0 -203 4 -315 10 -315 6 0 10 4 10 9 0 5 11 12 25 15 14 4 25
11 25 16 0 6 5 10 11 10 7 0 22 11 35 25 13 14 30 25 39 25 8 0 15 5 15 10 0
6 7 10 15 10 8 0 15 7 15 15 0 9 9 15 21 15 22 0 49 22 49 39 0 6 7 11 15 11
8 0 15 4 15 9 0 5 11 12 25 15 14 4 25 11 25 16 0 6 5 10 11 10 39 0 39 4 39
654 0 411 3 626 10 626 6 0 10 50 10 131 0 122 -2 133 -22 150 -11 11 -27 19
-35 19 -7 0 -13 5 -13 10 0 6 -5 10 -11 10 -7 0 -22 11 -35 25 -13 14 -30 25
-39 25 -8 0 -15 7 -15 15 0 8 -7 15 -15 15 -8 0 -15 5 -15 10 0 6 -6 10 -13
10 -7 0 -24 11 -39 25 -15 14 -30 25 -33 25 -4 0 -13 6 -20 13 -31 27 -44 37
-51 37 -4 0 -12 7 -18 16 -6 8 -15 12 -19 8z"/>
<path d="M4840 3071 c0 -5 -16 -12 -35 -15 -19 -4 -35 -11 -35 -16 0 -6 -18
-10 -40 -10 -22 0 -40 -4 -40 -9 0 -5 -16 -12 -35 -15 -19 -4 -35 -11 -35 -16
0 -6 -18 -10 -40 -10 -22 0 -40 -4 -40 -9 0 -5 -16 -12 -35 -15 -19 -4 -35
-11 -35 -16 0 -6 -18 -10 -40 -10 -22 0 -40 -4 -40 -10 0 -5 -16 -12 -35 -16
-19 -3 -35 -10 -35 -15 0 -5 -18 -9 -40 -9 -22 0 -40 -4 -40 -10 0 -5 -16 -12
-35 -16 -19 -3 -35 -10 -35 -15 0 -5 -16 -9 -36 -9 -19 0 -42 -7 -50 -15 -9
-8 -26 -15 -40 -15 -13 0 -24 -4 -24 -10 0 -5 -16 -10 -36 -10 -19 0 -42 -7
-50 -15 -9 -8 -26 -15 -40 -15 -13 0 -24 -4 -24 -10 0 -5 -16 -10 -36 -10 -19
0 -42 -7 -50 -15 -9 -8 -26 -15 -40 -15 -13 0 -24 -4 -24 -10 0 -5 -16 -10
-35 -10 -19 0 -35 -4 -35 -10 0 -5 -18 -13 -40 -16 -22 -4 -40 -10 -40 -15 0
-5 -15 -9 -34 -9 -21 0 -36 -6 -40 -15 -3 -9 -19 -15 -41 -15 -19 0 -35 -4
-35 -10 0 -5 -12 -10 -26 -10 -14 0 -32 -7 -40 -15 -9 -8 -26 -15 -40 -15 -13
0 -24 -4 -24 -10 0 -5 -18 -10 -40 -10 -45 0 -54 -14 -15 -24 14 -4 25 -11 25
-16 0 -6 18 -10 40 -10 22 0 40 -4 40 -10 0 -5 11 -10 25 -10 14 0 28 -7 31
-15 4 -9 19 -15 40 -15 19 0 34 -4 34 -10 0 -5 16 -10 35 -10 22 0 38 -6 41
-15 4 -9 19 -15 40 -15 19 0 34 -4 34 -10 0 -5 16 -10 35 -10 22 0 38 -6 41
-15 4 -9 19 -15 40 -15 19 0 34 -4 34 -10 0 -5 11 -10 24 -10 14 0 31 -7 40
-15 8 -8 31 -15 50 -15 20 0 36 -4 36 -9 0 -5 18 -11 40 -15 22 -3 40 -11 40
-16 0 -6 16 -10 35 -10 19 0 35 -4 35 -9 0 -5 18 -11 40 -15 22 -3 40 -11 40
-16 0 -6 16 -10 35 -10 19 0 35 -4 35 -10 0 -5 11 -10 24 -10 14 0 31 -7 40
-15 8 -8 31 -15 50 -15 20 0 36 -4 36 -10 0 -5 11 -10 24 -10 14 0 31 -7 40
-15 8 -8 31 -15 50 -15 20 0 36 -4 36 -10 0 -5 11 -10 24 -10 14 0 31 -7 40
-15 8 -8 31 -15 50 -15 20 0 36 -4 36 -10 0 -5 11 -10 24 -10 14 0 31 -7 40
-15 8 -8 31 -15 50 -15 20 0 36 -4 36 -10 0 -5 11 -10 25 -10 l25 0 0 560 c0
491 -2 560 -15 560 -8 0 -15 -4 -15 -9z"/>
<path d="M3138 2352 c-10 -2 -18 -8 -18 -13 0 -5 -7 -9 -15 -9 -8 0 -15 -4
-15 -9 0 -5 -11 -12 -25 -15 -14 -4 -25 -11 -25 -16 0 -6 -11 -10 -25 -10 -14
0 -25 -4 -25 -10 0 -5 -11 -12 -25 -16 -14 -3 -25 -10 -25 -15 0 -5 -11 -9
-25 -9 -14 0 -25 -4 -25 -10 0 -5 -11 -12 -25 -16 -14 -3 -25 -10 -25 -15 0
-5 -9 -9 -19 -9 -10 0 -21 -7 -25 -15 -3 -8 -12 -15 -21 -15 -8 0 -15 -4 -15
-10 0 -5 -11 -10 -25 -10 -14 0 -25 -4 -25 -10 0 -5 -11 -12 -25 -16 -14 -3
-25 -10 -25 -15 0 -5 -9 -9 -20 -9 -11 0 -20 -4 -20 -9 0 -5 -11 -12 -25 -15
-14 -4 -25 -11 -25 -16 0 -6 -11 -10 -25 -10 -14 0 -25 -4 -25 -10 0 -5 -7
-10 -15 -10 -8 0 -15 -7 -15 -15 0 -9 -9 -15 -25 -15 -14 0 -25 -4 -25 -9 0
-5 -11 -12 -25 -15 -14 -4 -25 -11 -25 -16 0 -6 -11 -10 -25 -10 -14 0 -25 -4
-25 -10 0 -5 -11 -12 -25 -16 -14 -3 -25 -10 -25 -15 0 -5 -11 -9 -25 -9 -14
0 -25 -4 -25 -10 0 -5 -11 -12 -25 -16 -14 -3 -25 -10 -25 -15 0 -5 -7 -9 -15
-9 -8 0 -15 -4 -15 -10 0 -5 -11 -12 -25 -16 -14 -3 -25 -10 -25 -15 0 -5 -9
-9 -21 -9 -11 0 -27 -6 -34 -12 -36 -32 -45 -38 -64 -38 -10 0 -21 -7 -25 -15
-3 -8 -15 -15 -26 -15 -11 0 -20 -4 -20 -9 0 -5 -10 -11 -23 -15 -12 -3 -32
-14 -44 -26 -12 -11 -31 -20 -43 -20 -16 0 -20 -6 -20 -30 0 -16 -4 -30 -9
-30 -5 0 -12 -27 -16 -60 -4 -33 -11 -60 -16 -60 -5 0 -9 -27 -9 -60 0 -33 -4
-60 -10 -60 -5 0 -12 -27 -16 -60 -4 -33 -11 -60 -15 -60 -5 0 -9 -7 -9 -15 0
-9 9 -15 25 -15 14 0 25 4 25 10 0 5 11 12 25 16 14 3 25 10 25 15 0 5 7 9 15
9 8 0 15 5 15 10 0 6 9 10 20 10 11 0 23 7 26 15 4 8 17 15 30 15 13 0 24 3
24 8 0 10 58 42 76 42 8 0 14 4 14 9 0 5 11 12 25 15 14 4 25 11 25 16 0 6 11
10 25 10 14 0 25 5 25 10 0 6 7 10 15 10 8 0 15 4 15 10 0 5 11 12 25 16 14 3
25 10 25 15 0 5 11 9 25 9 16 0 25 6 25 15 0 9 9 15 25 15 14 0 25 4 25 9 0 5
11 12 25 15 14 4 25 11 25 16 0 6 9 10 20 10 12 0 31 9 43 20 12 12 32 23 44
26 13 4 23 10 23 15 0 5 9 9 20 9 11 0 23 7 26 15 4 8 17 15 30 15 13 0 24 3
24 8 0 10 58 42 76 42 8 0 14 4 14 9 0 5 11 12 25 15 14 4 25 11 25 16 0 6 7
10 15 10 8 0 15 4 15 9 0 5 11 12 25 15 14 4 25 11 25 16 0 6 11 10 25 10 14
0 25 4 25 9 0 5 11 12 25 15 14 4 25 11 25 16 0 6 11 10 25 10 14 0 25 4 25
10 0 5 11 12 25 16 14 3 25 10 25 15 0 5 9 9 20 9 12 0 31 11 44 25 13 14 33
25 45 25 11 0 21 4 21 10 0 5 11 12 25 16 14 3 25 10 25 15 0 5 9 9 21 9 11 0
27 6 34 13 36 31 46 37 65 37 11 0 20 5 20 10 0 6 7 10 15 10 9 0 18 7 21 15
4 8 15 15 25 15 10 0 19 4 19 9 0 5 11 12 25 15 14 4 25 11 25 16 0 6 11 10
25 10 14 0 25 4 25 9 0 5 11 12 25 15 14 4 25 11 25 16 0 6 11 10 25 10 14 0
25 5 25 11 0 20 -29 39 -59 39 -17 0 -31 4 -31 9 0 5 -13 12 -30 16 -16 4 -30
11 -30 16 0 5 -18 9 -40 9 -22 0 -40 4 -40 9 0 5 -16 12 -35 15 -19 4 -35 11
-35 16 0 6 -18 10 -40 10 -22 0 -40 4 -40 9 0 10 -46 18 -72 13z"/>
<path d="M1555 1605 c-11 -13 -30 -27 -42 -30 -13 -3 -23 -10 -23 -15 0 -6 -5
-10 -10 -10 -6 0 -22 -11 -36 -25 -14 -14 -31 -25 -39 -25 -8 0 -15 -4 -15
-10 0 -5 -7 -10 -15 -10 -8 0 -15 -7 -15 -15 0 -8 -9 -15 -20 -15 -11 0 -20
-4 -20 -10 0 -5 -7 -10 -15 -10 -8 0 -15 -7 -15 -15 0 -8 -7 -15 -15 -15 -8 0
-15 -4 -15 -10 0 -5 -7 -10 -15 -10 -9 0 -26 -11 -39 -25 -13 -14 -33 -25 -45
-25 -12 0 -21 -6 -21 -15 0 -8 -5 -15 -11 -15 -6 0 -17 -6 -24 -12 -33 -30
-45 -38 -55 -38 -5 0 -10 -4 -10 -10 0 -5 -5 -10 -11 -10 -6 0 -17 -6 -24 -12
-33 -30 -45 -38 -54 -38 -5 0 -11 -7 -15 -15 -3 -8 -13 -15 -22 -15 -9 0 -31
-16 -50 -35 -18 -19 -42 -35 -53 -35 -12 0 -21 -7 -21 -15 0 -8 -7 -15 -15
-15 -8 0 -15 -4 -15 -10 0 -5 -7 -10 -15 -10 -9 0 -26 -11 -39 -25 -13 -14
-28 -25 -35 -25 -6 0 -11 -4 -11 -9 0 -5 -10 -13 -22 -17 -12 -3 -32 -17 -45
-30 -13 -13 -30 -24 -38 -24 -8 0 -15 -4 -15 -10 0 -5 -7 -10 -15 -10 -8 0
-15 -7 -15 -15 0 -8 -9 -15 -20 -15 -11 0 -20 -4 -20 -10 0 -5 -7 -10 -15 -10
-8 0 -15 -7 -15 -15 0 -8 -7 -15 -15 -15 -8 0 -15 -4 -15 -10 0 -5 -8 -10 -19
-10 -10 0 -27 -11 -37 -25 -10 -14 -23 -25 -29 -25 -5 0 -16 -4 -24 -9 -12 -8
-12 -12 2 -25 8 -9 20 -16 26 -16 6 0 11 -4 11 -9 0 -5 10 -13 23 -17 12 -4
24 -9 27 -13 8 -10 44 -31 62 -37 10 -4 18 -10 18 -15 0 -5 9 -9 19 -9 10 0
21 -7 25 -15 3 -8 15 -15 26 -15 11 0 20 -4 20 -10 0 -5 7 -10 15 -10 8 0 15
-4 15 -10 0 -5 11 -12 25 -16 14 -3 25 -10 25 -15 0 -5 11 -9 25 -9 16 0 25
-6 25 -15 0 -8 7 -15 15 -15 8 0 15 -4 15 -10 0 -5 7 -10 15 -10 14 0 61 -25
75 -40 3 -3 22 -14 43 -24 20 -11 37 -23 37 -28 0 -4 11 -8 25 -8 16 0 25 -6
25 -15 0 -9 9 -15 25 -15 14 0 25 -4 25 -10 0 -5 5 -10 11 -10 6 0 17 -6 24
-13 35 -31 45 -37 60 -37 9 0 26 -11 39 -25 13 -14 33 -25 45 -25 11 0 21 -4
21 -10 0 -5 11 -12 25 -16 14 -3 25 -10 25 -15 0 -5 6 -9 14 -9 8 0 16 -5 18
-11 2 -5 11 -7 21 -4 13 5 17 19 17 54 0 25 7 55 15 65 9 11 15 41 15 68 0 26
4 48 9 48 5 0 11 28 13 62 3 35 10 64 16 66 7 2 12 26 12 63 0 33 4 59 10 59
6 0 10 21 10 48 0 26 7 56 15 66 9 11 15 41 15 68 0 26 5 48 10 48 6 0 10 22
10 48 0 27 6 57 15 68 9 11 14 42 15 77 0 31 5 57 10 57 6 0 10 19 10 43 0 23
7 51 15 61 9 12 15 42 15 73 0 29 4 53 9 53 5 0 11 26 13 57 3 31 10 59 16 61
7 2 12 27 12 63 0 33 4 59 10 59 6 0 10 18 10 40 0 32 -4 40 -17 40 -10 -1
-27 -12 -38 -25z"/>
</g>
</svg>
