<svg xmlns="http://www.w3.org/2000/svg" width="13" height="10" viewBox="0 0 13 10"><path id="Rounded_Rectangle_917_copy_3" data-name="Rounded Rectangle 917 copy 3" class="cls-1" d="M1566,603h1a1,1,0,0,1,0,2h-1A1,1,0,0,1,1566,603Zm5,0h1a1,1,0,0,1,0,2h-1A1,1,0,0,1,1571,603Zm5,0h1a1,1,0,0,1,0,2h-1A1,1,0,0,1,1576,603Zm-10,4h1a1,1,0,0,1,0,2h-1A1,1,0,0,1,1566,607Zm5,0h1a1,1,0,0,1,0,2h-1A1,1,0,0,1,1571,607Zm5,0h1a1,1,0,0,1,0,2h-1A1,1,0,0,1,1576,607Zm-10,4h1a1,1,0,0,1,0,2h-1A1,1,0,0,1,1566,611Zm5,0h1a1,1,0,0,1,0,2h-1A1,1,0,0,1,1571,611Zm5,0h1a1,1,0,0,1,0,2h-1A1,1,0,0,1,1576,611Z" transform="translate(-1565 -603)"/></svg>