<svg xmlns="http://www.w3.org/2000/svg" width="84.03" height="72" viewBox="0 0 84.03 72">
  <defs>
    <style>
      .cls-1 {
        fill: #ccc;
        fill-rule: evenodd;
      }
    </style>
  </defs>
  <path id="Rounded_Rectangle_906_copy_10" data-name="Rounded Rectangle 906 copy 10" class="cls-1" d="M1570.92,203.46l-4.57,18.2a4.479,4.479,0,0,1-4.75,3.334c-0.04,0-.07.01-0.1,0.01h-47c-0.14,0-.26-0.028-0.39-0.04a4.219,4.219,0,0,1-4.67-3.445L1502.72,193H1491.5a4.5,4.5,0,0,1,0-9h14c0.1,0,.19.022,0.28,0.028a4.253,4.253,0,0,1,4.32,3.488L1512.57,198h53.93a0.117,0.117,0,0,1,.02,0,4.469,4.469,0,0,1,1.1.113A4.415,4.415,0,0,1,1570.92,203.46ZM1516.81,216h41.7l2.26-9h-46.08Zm5.69,13a13.5,13.5,0,1,1-13.5,13.5A13.5,13.5,0,0,1,1522.5,229Zm0,18a4.5,4.5,0,1,0-4.5-4.5A4.5,4.5,0,0,0,1522.5,247Zm31-18a13.5,13.5,0,1,1-13.5,13.5A13.5,13.5,0,0,1,1553.5,229Zm0,18a4.5,4.5,0,1,0-4.5-4.5A4.5,4.5,0,0,0,1553.5,247Z" transform="translate(-1487 -184)"/>
</svg>
