<svg xmlns="http://www.w3.org/2000/svg" width="11" height="8" viewBox="0 0 11 8">
  <defs>
    <style>
      .cls-1 {
        fill: #fff;
        fill-rule: evenodd;
      }
    </style>
  </defs>
  <path id="Rounded_Rectangle_1064" data-name="Rounded Rectangle 1064" class="cls-1" d="M1408.83,622.835l-6.98,7v0.017a0.51,0.51,0,0,1-.36.144,0.421,0.421,0,0,1-.06-0.011,0.511,0.511,0,0,1-.3-0.133l-3.01-3.029a0.5,0.5,0,0,1,0-.7,0.522,0.522,0,0,1,.72,0l2.65,2.67,6.64-6.664a0.5,0.5,0,0,1,.7,0A0.5,0.5,0,0,1,1408.83,622.835Z" transform="translate(-1398 -622)"/>
</svg>
