<svg width="68" height="12" viewBox="0 0 68 12" fill="none" xmlns="http://www.w3.org/2000/svg">
<g clip-path="url(#clip0)">
<path fill-rule="evenodd" clip-rule="evenodd" d="M11 7H7V11C7 11.2652 6.89469 11.5196 6.70715 11.7071C6.51962 11.8946 6.26522 12 6 12C5.73478 12 5.48038 11.8946 5.29285 11.7071C5.10531 11.5196 5 11.2652 5 11V7H1C0.734784 7 0.480383 6.89463 0.292847 6.70709C0.10531 6.51956 0 6.26522 0 6C0 5.73478 0.10531 5.48044 0.292847 5.29291C0.480383 5.10537 0.734784 5 1 5H5V1C5 0.734784 5.10531 0.480444 5.29285 0.292908C5.48038 0.105371 5.73478 0 6 0C6.26522 0 6.51962 0.105371 6.70715 0.292908C6.89469 0.480444 7 0.734784 7 1V5H11C11.2652 5 11.5196 5.10537 11.7072 5.29291C11.8947 5.48044 12 5.73478 12 6C12 6.26522 11.8947 6.51956 11.7072 6.70709C11.5196 6.89463 11.2652 7 11 7Z" fill="#333333"/>
<path fill-rule="evenodd" clip-rule="evenodd" d="M18.4 5.985L21.6999 9.279C21.8637 9.47031 21.9494 9.71641 21.9397 9.96809C21.9299 10.2198 21.8256 10.4585 21.6475 10.6365C21.4695 10.8146 21.2306 10.919 20.979 10.9287C20.7273 10.9384 20.4813 10.8529 20.29 10.689L16.9799 7.39503L13.68 10.688C13.5906 10.7934 13.4803 10.8791 13.3562 10.9398C13.232 11.0004 13.0965 11.0347 12.9585 11.0404C12.8204 11.046 12.6827 11.0231 12.5539 10.9729C12.4252 10.9226 12.3082 10.8462 12.2104 10.7485C12.1127 10.6509 12.0362 10.534 11.9859 10.4053C11.9356 10.2766 11.9126 10.1388 11.9182 10.0007C11.9238 9.86266 11.9578 9.72726 12.0184 9.60304C12.079 9.47882 12.1647 9.36846 12.27 9.279L15.5699 5.985L12.28 2.70399C12.1162 2.51269 12.0305 2.26664 12.0402 2.01497C12.05 1.76329 12.1543 1.52454 12.3324 1.34645C12.5105 1.16835 12.7493 1.06399 13.0009 1.05427C13.2526 1.04455 13.4986 1.13019 13.6899 1.29402L16.99 4.57502L20.28 1.29402C20.3696 1.18934 20.4799 1.10429 20.604 1.04426C20.728 0.98424 20.8632 0.950522 21.0009 0.945203C21.1387 0.939883 21.2759 0.963105 21.4043 1.01338C21.5326 1.06365 21.6492 1.13992 21.7467 1.23738C21.8441 1.33483 21.9203 1.45134 21.9705 1.57966C22.0208 1.70799 22.0441 1.84533 22.0388 1.98304C22.0335 2.12076 21.9997 2.25589 21.9397 2.37996C21.8796 2.50402 21.7946 2.61434 21.6899 2.70399L18.4 5.985Z" fill="#333333"/>
<path fill-rule="evenodd" clip-rule="evenodd" d="M22 12V6C22 6.26522 22.1053 6.51956 22.2928 6.70709C22.4804 6.89463 22.7348 7 23 7H27V11C27 11.2652 27.1053 11.5196 27.2928 11.7071C27.4804 11.8946 27.7348 12 28 12C28.2652 12 28.5196 11.8946 28.7072 11.7071C28.8947 11.5196 29 11.2652 29 11V7H33C33.2652 7 33.5196 6.89463 33.7072 6.70709C33.8947 6.51956 34 6.26522 34 6C34 5.73478 33.8947 5.48044 33.7072 5.29291C33.5196 5.10537 33.2652 5 33 5H29V1C29 0.736507 28.8961 0.483638 28.7107 0.296387C28.5253 0.109135 28.2735 0.00263493 28.01 0H34V12H22ZM27 1V5H23C22.7348 5 22.4804 5.10537 22.2928 5.29291C22.1053 5.48044 22 5.73478 22 6V0H27.99C27.7265 0.00263493 27.4747 0.109135 27.2893 0.296387C27.1039 0.483638 27 0.736507 27 1Z" fill="white"/>
<path fill-rule="evenodd" clip-rule="evenodd" d="M34 12V0H46V12H34ZM44.6899 2.70001C44.7946 2.61037 44.8797 2.50004 44.9397 2.37598C44.9997 2.25191 45.0335 2.11678 45.0388 1.97906C45.0441 1.84135 45.0209 1.70401 44.9706 1.57568C44.9203 1.44736 44.8442 1.33079 44.7467 1.23334C44.6492 1.13588 44.5326 1.05961 44.4043 1.00934C44.276 0.959064 44.1387 0.935904 44.001 0.941223C43.8633 0.946543 43.7281 0.98026 43.604 1.04028C43.4799 1.10031 43.3697 1.1853 43.28 1.28998L39.99 4.57098L36.6899 1.28998C36.4986 1.12615 36.2527 1.04057 36.001 1.05029C35.7493 1.06001 35.5105 1.16431 35.3324 1.34241C35.1543 1.5205 35.05 1.75925 35.0403 2.01093C35.0306 2.2626 35.1162 2.50871 35.28 2.70001L38.5699 5.98102L35.27 9.27502C35.1647 9.36448 35.079 9.47478 35.0184 9.599C34.9579 9.72322 34.9238 9.85868 34.9182 9.99677C34.9126 10.1348 34.9356 10.2726 34.986 10.4013C35.0363 10.53 35.1127 10.6469 35.2104 10.7446C35.3082 10.8423 35.4252 10.9186 35.554 10.9688C35.6827 11.019 35.8204 11.0421 35.9585 11.0364C36.0966 11.0307 36.232 10.9964 36.3562 10.9358C36.4804 10.8751 36.5907 10.7894 36.6801 10.684L39.98 7.39099L43.29 10.685C43.4813 10.8488 43.7273 10.9344 43.979 10.9247C44.2307 10.915 44.4695 10.8107 44.6476 10.6326C44.8257 10.4545 44.93 10.2157 44.9397 9.96405C44.9494 9.71237 44.8638 9.46633 44.7 9.27502L41.4 5.98102L44.6899 2.70001Z" fill="white"/>
<path fill-rule="evenodd" clip-rule="evenodd" d="M57 7H53V11C53 11.2652 52.8947 11.5196 52.7072 11.7071C52.5196 11.8946 52.2652 12 52 12C51.7348 12 51.4804 11.8946 51.2928 11.7071C51.1053 11.5196 51 11.2652 51 11V7H47C46.7348 7 46.4804 6.89463 46.2928 6.70709C46.1053 6.51956 46 6.26522 46 6C46 5.73478 46.1053 5.48044 46.2928 5.29291C46.4804 5.10537 46.7348 5 47 5H51V1C51 0.734784 51.1053 0.480444 51.2928 0.292908C51.4804 0.105371 51.7348 0 52 0C52.2652 0 52.5196 0.105371 52.7072 0.292908C52.8947 0.480444 53 0.734784 53 1V5H57C57.2652 5 57.5196 5.10537 57.7072 5.29291C57.8947 5.48044 58 5.73478 58 6C58 6.26522 57.8947 6.51956 57.7072 6.70709C57.5196 6.89463 57.2652 7 57 7Z" fill="white"/>
<path fill-rule="evenodd" clip-rule="evenodd" d="M64.4 5.985L67.6999 9.279C67.8637 9.47031 67.9494 9.71641 67.9397 9.96809C67.9299 10.2198 67.8256 10.4585 67.6475 10.6365C67.4695 10.8146 67.2306 10.919 66.979 10.9287C66.7273 10.9384 66.4813 10.8529 66.29 10.689L62.9799 7.39503L59.68 10.688C59.5906 10.7934 59.4803 10.8791 59.3562 10.9398C59.232 11.0004 59.0965 11.0347 58.9585 11.0404C58.8204 11.046 58.6827 11.0231 58.5539 10.9729C58.4252 10.9226 58.3082 10.8462 58.2104 10.7485C58.1127 10.6509 58.0362 10.534 57.9859 10.4053C57.9356 10.2766 57.9126 10.1388 57.9182 10.0007C57.9238 9.86266 57.9578 9.72726 58.0184 9.60304C58.079 9.47882 58.1647 9.36846 58.27 9.279L61.5699 5.985L58.28 2.70399C58.1162 2.51269 58.0305 2.26664 58.0402 2.01497C58.05 1.76329 58.1543 1.52454 58.3324 1.34645C58.5105 1.16835 58.7493 1.06399 59.0009 1.05427C59.2526 1.04455 59.4986 1.13019 59.6899 1.29402L62.99 4.57502L66.28 1.29402C66.3696 1.18934 66.4799 1.10429 66.604 1.04426C66.728 0.98424 66.8632 0.950522 67.0009 0.945203C67.1387 0.939883 67.2759 0.963105 67.4043 1.01338C67.5326 1.06365 67.6492 1.13992 67.7467 1.23738C67.8441 1.33483 67.9203 1.45134 67.9705 1.57966C68.0208 1.70799 68.0441 1.84533 68.0388 1.98304C68.0335 2.12076 67.9997 2.25589 67.9397 2.37996C67.8796 2.50402 67.7946 2.61434 67.6899 2.70399L64.4 5.985Z" fill="white"/>
</g>
<defs>
<clipPath id="clip0">
<rect width="68" height="12" fill="white"/>
</clipPath>
</defs>
</svg>
