<svg xmlns="http://www.w3.org/2000/svg" width="18" height="12" viewBox="0 0 18 12">
  <defs>
    <style>
      .cls-1 {
        fill: #999;
        fill-rule: evenodd;
      }
    </style>
  </defs>
  <path id="Rounded_Rectangle_1044_copy" data-name="Rounded Rectangle 1044 copy" class="cls-1" d="M1345,711h-14a2,2,0,0,1-2-2v-8a2,2,0,0,1,2-2h14a2,2,0,0,1,2,2v8A2,2,0,0,1,1345,711Zm0-10h-2v4a1,1,0,0,1-2,0v-4h-2v2a1,1,0,0,1-2,0v-2h-2v4a1,1,0,0,1-2,0v-4h-2v8h14v-8Z" transform="translate(-1329 -699)"/>
</svg>
