<svg width="70" height="140" viewBox="0 0 70 140" fill="none" xmlns="http://www.w3.org/2000/svg">
<g clip-path="url(#clip0)">
<path fill-rule="evenodd" clip-rule="evenodd" d="M0 70V35C0 41.9223 2.05271 48.6892 5.89856 54.4449C9.74441 60.2007 15.2107 64.6867 21.6061 67.3358C28.0015 69.9849 35.0389 70.678 41.8282 69.3275C48.6175 67.977 54.8539 64.6436 59.7487 59.7487C64.6436 54.8539 67.977 48.6175 69.3275 41.8282C70.678 35.0388 69.9848 28.0015 67.3358 21.6061C64.6867 15.2107 60.2007 9.74441 54.4449 5.89856C48.6892 2.05271 41.9223 0 35 0H70V70H0ZM35 2C41.5268 2 47.907 3.93541 53.3338 7.56149C58.7606 11.1876 62.9903 16.3415 65.488 22.3715C67.9857 28.4014 68.6392 35.0366 67.3659 41.438C66.0926 47.8394 62.9497 53.7194 58.3345 58.3345C53.7194 62.9497 47.8394 66.0926 41.438 67.3659C35.0366 68.6392 28.4014 67.9857 22.3715 65.488C16.3415 62.9903 11.1876 58.7607 7.56152 53.3338C3.93544 47.907 2 41.5268 2 35C2 26.2479 5.47677 17.8542 11.6655 11.6655C17.8542 5.47677 26.2479 2 35 2V2ZM18.29 37.694L28.284 47.702C28.4193 47.8384 28.5916 47.9322 28.7796 47.9718C28.9676 48.0115 29.1631 47.9952 29.342 47.925C29.35 47.925 29.359 47.925 29.367 47.925C29.4881 47.8758 29.5982 47.8031 29.691 47.711H29.698L51.713 25.69C51.8084 25.5976 51.8844 25.4872 51.9366 25.3651C51.9889 25.243 52.0162 25.1117 52.0172 24.979C52.0182 24.8462 51.9927 24.7146 51.9422 24.5917C51.8917 24.4689 51.8173 24.3574 51.7233 24.2636C51.6293 24.1699 51.5176 24.0958 51.3946 24.0457C51.2716 23.9956 51.1399 23.9704 51.0071 23.9718C50.8744 23.9731 50.7432 24.0009 50.6213 24.0535C50.4993 24.106 50.3891 24.1824 50.297 24.278L28.984 45.597L19.703 36.297C19.5145 36.1109 19.2603 36.0066 18.9955 36.0066C18.7306 36.0066 18.4765 36.1109 18.288 36.297C18.1033 36.4827 17.9998 36.734 18.0002 36.9959C18.0006 37.2578 18.1047 37.5089 18.29 37.694ZM0 35V0H35C25.7174 0 16.8151 3.68748 10.2513 10.2513C3.68751 16.815 0 25.7174 0 35V35Z" fill="white"/>
<path fill-rule="evenodd" clip-rule="evenodd" d="M0 140V105C0 111.922 2.05271 118.689 5.89856 124.445C9.74441 130.201 15.2107 134.687 21.6061 137.336C28.0015 139.985 35.0389 140.678 41.8282 139.327C48.6175 137.977 54.8539 134.644 59.7487 129.749C64.6436 124.854 67.977 118.617 69.3275 111.828C70.678 105.039 69.9848 98.0015 67.3358 91.6061C64.6867 85.2107 60.2007 79.7444 54.4449 75.8986C48.6892 72.0527 41.9223 70 35 70H70V140H0ZM35 72C41.5268 72 47.907 73.9354 53.3338 77.5615C58.7606 81.1876 62.9903 86.3415 65.488 92.3715C67.9857 98.4014 68.6392 105.037 67.3659 111.438C66.0926 117.839 62.9497 123.719 58.3345 128.335C53.7194 132.95 47.8394 136.093 41.438 137.366C35.0366 138.639 28.4014 137.986 22.3715 135.488C16.3415 132.99 11.1876 128.761 7.56152 123.334C3.93544 117.907 2 111.527 2 105C2 96.2479 5.47677 87.8542 11.6655 81.6655C17.8542 75.4768 26.2479 72 35 72V72ZM18.29 107.694L28.284 117.702C28.4193 117.838 28.5916 117.932 28.7796 117.972C28.9676 118.011 29.1631 117.995 29.342 117.925C29.35 117.925 29.359 117.925 29.367 117.925C29.4881 117.876 29.5982 117.803 29.691 117.711H29.698L51.713 95.69C51.8084 95.5976 51.8844 95.4872 51.9366 95.3651C51.9889 95.243 52.0162 95.1117 52.0172 94.979C52.0182 94.8462 51.9927 94.7146 51.9422 94.5917C51.8917 94.4689 51.8173 94.3574 51.7233 94.2636C51.6293 94.1699 51.5176 94.0958 51.3946 94.0457C51.2716 93.9956 51.1399 93.9704 51.0071 93.9718C50.8744 93.9731 50.7432 94.0009 50.6213 94.0535C50.4993 94.106 50.3891 94.1824 50.297 94.278L28.984 115.597L19.703 106.297C19.5145 106.111 19.2603 106.007 18.9955 106.007C18.7306 106.007 18.4765 106.111 18.288 106.297C18.1033 106.483 17.9998 106.734 18.0002 106.996C18.0006 107.258 18.1047 107.509 18.29 107.694ZM0 105V70H35C25.7174 70 16.8151 73.6875 10.2513 80.2513C3.68751 86.815 0 95.7174 0 105V105Z" fill="#1B1B1B"/>
</g>
<defs>
<clipPath id="clip0">
<rect width="70" height="140" fill="white"/>
</clipPath>
</defs>
</svg>
