<svg width="30" height="30" viewBox="0 0 30 30" fill="none" xmlns="http://www.w3.org/2000/svg">
<path d="M19.1281 15.9515H18.9543V16.1253V17.8627V18.0365H19.1281H20.8655H21.0393V17.8627V16.1253V15.9515H20.8655H19.1281Z" fill="#F89A1C"/>
<path d="M15.1286 15.9515H14.9548V16.1253V17.8627V18.0365H15.1286H16.866H17.0398V17.8627V16.1253V15.9515H16.866H15.1286Z" fill="#F89A1C"/>
<path d="M11.1286 15.9515H10.9548V16.1253V17.8627V18.0365H11.1286H12.866H13.0398V17.8627V16.1253V15.9515H12.866H11.1286Z" fill="#F89A1C"/>
<path d="M22.9755 0C21.6093 0 20.2842 0.394402 19.1427 1.14035C18.0625 1.84633 17.1996 2.82915 16.6425 3.98803H6.37239L5.98958 0.156371L5.97394 0H5.81699H0.173745H0V0.173745V1.9112V2.08494H0.173745H4.08707L4.32104 4.42181L5.89459 20.1579C4.74846 20.6183 3.98803 21.7338 3.98803 22.9755C3.98803 24.6498 5.35019 26.012 7.02452 26.012H8.11679C8.01544 26.3178 7.9639 26.6369 7.9639 26.9635C7.9639 28.6378 9.32606 30 11.0004 30C12.6747 30 14.0369 28.6378 14.0369 26.9635C14.0369 26.6369 13.9853 26.3183 13.884 26.012H18.11C18.0087 26.3178 17.9571 26.6369 17.9571 26.9635C17.9571 28.6378 19.3193 30 20.9936 30C22.668 30 24.0301 28.6378 24.0301 26.9635C24.0301 26.6369 23.9786 26.3183 23.8772 26.012H25.7554H25.9291V25.8382V24.1008V23.927H25.7554H7.02452C6.49981 23.927 6.07297 23.5002 6.07297 22.9755C6.07297 22.4508 6.49981 22.0239 7.02452 22.0239H25.756H25.9129L25.9286 21.8676L26.8257 12.8965C27.7691 12.2763 28.5573 11.4301 29.1081 10.4461C29.6919 9.40541 30 8.2222 30 7.02452C30 3.15116 26.8488 0 22.9755 0ZM24.0261 19.9396H7.96795L6.58147 6.07297H16.0164C15.9736 6.38861 15.9515 6.70772 15.9515 7.02452C15.9515 10.8979 19.1027 14.049 22.9755 14.049C23.5367 14.049 24.0938 13.9824 24.6347 13.851L24.0261 19.9396ZM16.218 5.89923C16.2029 5.99073 16.1896 6.08282 16.178 6.17548C16.1896 6.08282 16.2029 5.99073 16.218 5.89923ZM20.7811 13.5145C20.5158 13.4247 20.2581 13.3187 20.0085 13.1983C20.2581 13.3187 20.5158 13.4241 20.7811 13.5145ZM19.8597 13.1241C19.7612 13.0737 19.6639 13.021 19.5683 12.966C19.4728 12.911 19.3784 12.8537 19.2857 12.794C19.1931 12.7344 19.1021 12.673 19.0124 12.6093C19.1021 12.673 19.1931 12.7344 19.2857 12.794C19.3784 12.8537 19.4728 12.911 19.5683 12.966C19.6639 13.021 19.7612 13.0737 19.8597 13.1241ZM18.8797 12.512C18.7917 12.4459 18.7054 12.3782 18.6208 12.3087C18.7054 12.3782 18.7917 12.4465 18.8797 12.512ZM22.9755 13.8747C22.2672 13.8747 21.5838 13.7664 20.9403 13.566C21.5838 13.767 22.2672 13.8747 22.9755 13.8747ZM18.0365 7.02452C18.0365 4.30077 20.2523 2.08494 22.9755 2.08494C25.6992 2.08494 27.9151 4.30077 27.9151 7.02452C27.9151 9.74826 25.6992 11.9641 22.9755 11.9641C20.2523 11.9635 18.0365 9.74768 18.0365 7.02452ZM22.9755 1.9112C23.9264 1.9112 24.8178 2.17239 25.5817 2.62703C24.8183 2.17239 23.927 1.9112 22.9755 1.9112ZM25.6645 2.67683C25.7091 2.70463 25.7537 2.73301 25.7977 2.76255C25.7537 2.73359 25.7091 2.70463 25.6645 2.67683ZM25.8637 2.80714C25.9118 2.84015 25.9593 2.87432 26.0062 2.90849C25.9593 2.87432 25.9118 2.84015 25.8637 2.80714ZM26.056 2.94556C26.1411 3.01042 26.2245 3.07761 26.3056 3.1471C26.2245 3.07761 26.1411 3.01042 26.056 2.94556ZM26.3305 3.16853C26.3867 3.21718 26.4417 3.26757 26.4956 3.31853C26.4417 3.26757 26.3867 3.21776 26.3305 3.16853ZM17.488 11.1203C17.5541 11.2083 17.6218 11.2946 17.6913 11.3792C17.6218 11.2946 17.5541 11.2083 17.488 11.1203ZM16.9535 10.2869C17.0328 10.4322 17.1168 10.5747 17.206 10.7137C17.1168 10.5747 17.0322 10.4328 16.9535 10.2869ZM16.7311 9.84093C16.6853 9.73958 16.6419 9.63764 16.6008 9.53398C16.5394 9.37876 16.4832 9.22008 16.4334 9.05965C16.4838 9.22066 16.5394 9.37876 16.6008 9.53398C16.6419 9.63764 16.6853 9.73958 16.7311 9.84093C16.7768 9.94228 16.8249 10.0419 16.8753 10.1403C16.8255 10.0419 16.7768 9.94228 16.7311 9.84093ZM16.134 7.37606C16.1398 7.49247 16.149 7.6083 16.1606 7.72355C16.149 7.60888 16.1403 7.49305 16.134 7.37606ZM6.38919 5.89923L6.51834 7.19131L6.38919 5.89923ZM22.9755 12.1373C23.7452 12.1373 24.4749 11.9658 25.1305 11.66C24.4755 11.9664 23.7452 12.1373 22.9755 12.1373ZM28.0888 7.02452C28.0888 5.61486 27.5154 4.33668 26.5894 3.41062C27.5154 4.3361 28.0888 5.61486 28.0888 7.02452C28.0888 8.51931 27.4442 9.86641 26.418 10.8017C27.4442 9.86583 28.0888 8.51931 28.0888 7.02452ZM26.4017 10.8168C26.1151 11.0763 25.7988 11.3033 25.4589 11.4927C25.7983 11.3033 26.1145 11.0763 26.4017 10.8168ZM29.8239 6.84788C29.821 6.73031 29.8153 6.6139 29.806 6.49807C29.8153 6.6139 29.821 6.73031 29.8239 6.84788ZM29.5662 5.15097C29.6276 5.36757 29.6792 5.58822 29.7191 5.81293C29.7394 5.92529 29.7568 6.0388 29.7712 6.1529C29.7568 6.0388 29.7394 5.92529 29.7191 5.81293C29.6786 5.58822 29.6276 5.36757 29.5662 5.15097C29.5355 5.04266 29.5019 4.93552 29.466 4.82954C29.5019 4.93552 29.5349 5.04266 29.5662 5.15097ZM29.4098 4.67143C29.3716 4.5666 29.3305 4.46293 29.2871 4.36042C29.3305 4.46293 29.3716 4.5666 29.4098 4.67143ZM29.1498 4.05695C29.1017 3.95734 29.0514 3.85888 28.9981 3.76158C29.0508 3.85888 29.1017 3.95734 29.1498 4.05695ZM28.833 3.4749C28.3749 2.72143 27.7755 2.06293 27.0718 1.53649C27.7755 2.06293 28.3749 2.72143 28.833 3.4749ZM26.8031 1.34537C26.7122 1.28398 26.6195 1.22432 26.5251 1.16699C26.6195 1.22432 26.7122 1.28398 26.8031 1.34537ZM19.6512 1.0361C19.7919 0.957915 19.9355 0.883784 20.082 0.815444C19.9355 0.883784 19.7919 0.957915 19.6512 1.0361C19.5104 1.11429 19.3726 1.19768 19.2382 1.28571C19.3726 1.19768 19.5104 1.11486 19.6512 1.0361ZM6.21544 4.16178H16.7531C16.8208 4.01467 16.8938 3.87046 16.9714 3.72915C17.049 3.58784 17.1319 3.45 17.2193 3.31506C17.3068 3.18012 17.3983 3.04865 17.4944 2.92008C17.6386 2.7278 17.7927 2.54305 17.956 2.36757C18.0649 2.25058 18.1778 2.13707 18.2942 2.02761C18.1772 2.13707 18.0649 2.25058 17.956 2.36757C17.7927 2.54363 17.6386 2.7278 17.4944 2.92008C17.3983 3.04807 17.3062 3.18012 17.2193 3.31506C17.1319 3.45 17.0496 3.58784 16.9714 3.72915C16.8938 3.87046 16.8208 4.01467 16.7531 4.16178H6.21544L5.81641 0.173745L6.21544 4.16178ZM4.16178 22.9755C4.16178 23.6658 4.40734 24.3006 4.81622 24.7952C4.40734 24.3006 4.16178 23.6664 4.16178 22.9755ZM4.90598 24.8994C4.99865 25.0014 5.09826 25.0963 5.20425 25.1838C5.09826 25.0963 4.99865 25.0014 4.90598 24.8994ZM21.9452 26.9635C21.9452 27.4882 21.5183 27.9151 20.9936 27.9151C20.4689 27.9151 20.0421 27.4882 20.0421 26.9635C20.0421 26.4388 20.4689 26.012 20.9936 26.012C21.5183 26.012 21.9452 26.4388 21.9452 26.9635ZM13.8035 26.3809C13.7838 26.2871 13.7595 26.1944 13.7311 26.1041C13.7595 26.1944 13.7838 26.2865 13.8035 26.3809C13.833 26.5222 13.8515 26.667 13.8597 26.8147C13.8515 26.667 13.8324 26.5222 13.8035 26.3809ZM11.0004 27.9151C10.4757 27.9151 10.0488 27.4882 10.0488 26.9635C10.0488 26.4388 10.4757 26.012 11.0004 26.012C11.5251 26.012 11.9519 26.4388 11.9519 26.9635C11.9519 27.4882 11.5251 27.9151 11.0004 27.9151ZM6.09151 22.3471C6.05097 22.4068 6.01622 22.471 5.98784 22.5382C5.93108 22.6726 5.89923 22.8209 5.89923 22.9761C5.89923 22.8209 5.9305 22.6732 5.98784 22.5382C6.01622 22.471 6.05097 22.4068 6.09151 22.3471C6.19286 22.1977 6.32896 22.0732 6.48822 21.9863C6.32896 22.0732 6.19286 22.1971 6.09151 22.3471Z" fill="#F89A1C"/>
<path d="M26.4236 5.87258L25.1952 4.6442L25.0724 4.52142L24.9496 4.6442L22.4002 7.19363L21.0027 5.79614L20.8799 5.67336L20.7572 5.79614L19.5288 7.02452L19.406 7.1473L19.5288 7.27008L22.2769 10.0193L22.3996 10.1421L22.5224 10.0193L26.423 6.11814L26.5458 5.99536L26.4236 5.87258ZM22.3996 7.43919L25.0718 4.76698L22.3996 7.43919L20.8794 5.91892L22.3996 7.43919Z" fill="#F89A1C"/>
</svg>
