<svg width="30" height="36" viewBox="0 0 30 36" fill="none" xmlns="http://www.w3.org/2000/svg">
<path d="M29.4971 8.61398L15.5025 0.141328C15.1914 -0.0471094 14.8079 -0.0471094 14.4968 0.141328L0.502872 8.61398C0.191762 8.80242 0 9.15047 0 9.52734V26.4727C0 26.8495 0.191762 27.1976 0.502872 27.386L14.4968 35.8587C14.6523 35.9529 14.826 36 14.9997 36C15.1733 36 15.347 35.9529 15.5025 35.8587L29.4965 27.386C29.8076 27.1976 29.9993 26.8495 29.9993 26.4727V9.52734C30 9.15047 29.8082 8.80242 29.4971 8.61398ZM22.3228 6.7057L10.3404 13.9605L7.68724 12.3539L19.6697 5.09977L22.3228 6.7057ZM9.33465 15.7873V18.9907L6.67747 17.382L6.68015 14.1799L9.33465 15.7873ZM14.9997 2.2725L17.6582 3.88195L5.67508 11.1368L3.01723 9.52734L14.9997 2.2725ZM13.9939 33.1186L2.01149 25.8638V11.3541L4.66933 12.9635L4.66531 17.9902C4.66531 18.367 4.85707 18.7158 5.16818 18.9042L9.83685 21.7315C10.3605 22.0486 10.8325 21.7371 10.8426 21.7315C11.1537 21.543 11.3455 21.195 11.3455 20.8181V17.0058L13.9939 18.6089V33.1186ZM14.9997 16.7822L12.3512 15.1791L24.3343 7.92422L26.9828 9.52734L14.9997 16.7822ZM27.9885 25.8638L16.0054 33.1186V18.6089L27.9878 11.3541V25.8638H27.9885Z" fill="#F89A1C"/>
</svg>
