<svg width="30" height="30" viewBox="0 0 30 30" fill="none" xmlns="http://www.w3.org/2000/svg">
<path d="M29.0625 13.125C28.5469 13.125 28.125 13.5469 28.125 14.0625V24.6797L20.625 27.6797V17.8125C20.625 17.2969 20.2031 16.875 19.6875 16.875C19.1719 16.875 18.75 17.2969 18.75 17.8125V27.6797L11.25 24.6797V9.8203L15.5918 11.5605C16.0664 11.7539 16.6172 11.5195 16.8105 11.039C17.0039 10.5586 16.7695 10.0137 16.2891 9.8203L10.6758 7.57616L10.6582 7.5703C10.4355 7.48241 10.1836 7.48241 9.96094 7.5703L9.94336 7.57616L0.585938 11.3203C0.234375 11.4609 0 11.8066 0 12.1875V29.0625C0 29.373 0.158203 29.666 0.410156 29.8359C0.568359 29.9414 0.75 30 0.9375 30C1.05469 30 1.17188 29.9765 1.28906 29.9297L10.3125 26.3203L19.3242 29.9238L19.3418 29.9297C19.5645 30.0176 19.8164 30.0176 20.0391 29.9297L20.0566 29.9238L29.4141 26.1855C29.7656 26.039 30 25.6992 30 25.3125V14.0625C30 13.5469 29.5781 13.125 29.0625 13.125ZM9.375 24.6797L1.875 27.6797V12.8203L9.375 9.8203V24.6797Z" fill="#F89A1C"/>
<path d="M23.4375 3.75C21.8848 3.75 20.625 5.00977 20.625 6.5625C20.625 8.11523 21.8848 9.375 23.4375 9.375C24.9902 9.375 26.25 8.11523 26.25 6.5625C26.25 5.00977 24.9902 3.75 23.4375 3.75ZM23.4375 7.5C22.9219 7.5 22.5 7.07812 22.5 6.5625C22.5 6.04688 22.9219 5.625 23.4375 5.625C23.9531 5.625 24.375 6.04688 24.375 6.5625C24.375 7.07812 23.9531 7.5 23.4375 7.5Z" fill="#F89A1C"/>
<path d="M23.4375 0C19.8164 0 16.875 2.94141 16.875 6.5625C16.875 9.93164 22.1426 15.8965 22.7402 16.5645C22.916 16.7637 23.1738 16.875 23.4375 16.875C23.7012 16.875 23.959 16.7578 24.1348 16.5645C24.7324 15.8965 30 9.93164 30 6.5625C30 2.94141 27.0586 0 23.4375 0ZM23.4375 14.5078C21.3926 12.082 18.75 8.34961 18.75 6.5625C18.75 3.97852 20.8535 1.875 23.4375 1.875C26.0215 1.875 28.125 3.97852 28.125 6.5625C28.125 8.34961 25.4824 12.0762 23.4375 14.5078Z" fill="#F89A1C"/>
</svg>
