<svg width="30" height="28" viewBox="0 0 30 28" fill="none" xmlns="http://www.w3.org/2000/svg">
<path d="M10.2933 13.9379H25.356C26.8712 13.9379 28.1175 12.7184 28.1175 11.1879V2.74999C28.1175 1.23117 26.8835 0 25.3554 0H10.2933C8.76748 0 7.53174 1.22883 7.53174 2.74999V11.1873C7.53115 12.7224 8.78272 13.9379 10.2933 13.9379ZM9.28897 2.74999C9.28897 2.1986 9.73662 1.75047 10.2927 1.75047H25.3554C25.9114 1.75047 26.3591 2.1986 26.3591 2.74999V3.74952H9.28897V2.74999ZM9.28897 5.50057H26.3591V11.1879C26.3591 11.7451 25.9044 12.1874 25.3554 12.1874H10.2933C9.746 12.1874 9.28955 11.7468 9.28955 11.1879L9.28897 5.50057Z" fill="#F89A1C"/>
<path d="M28.2334 17.8426C27.1605 17.3629 25.899 17.5561 25.0201 18.3339C23.7967 19.4168 22.4906 20.5727 21.5268 21.4258C21.4881 19.9408 20.2693 18.7487 18.7658 18.7487H15.123C14.942 18.6968 14.5658 18.59 14.0812 18.4523C12.5396 18.0135 10.8551 18.3257 9.5748 19.2873C8.59101 20.0266 7.91191 21.0996 7.65 22.2824L5.52246 21.7525V20.5622C5.52246 20.0791 5.12871 19.687 4.64355 19.687H0.878906C0.39375 19.687 0 20.0791 0 20.5622V27.1248C0 27.6079 0.39375 28 0.878906 28H20.9713C22.2117 28 23.3783 27.5192 24.2555 26.6457L29.7422 21.1819C29.9068 21.0179 29.9994 20.7944 29.9994 20.5622C30 19.39 29.3068 18.3234 28.2334 17.8426ZM3.76582 26.2495H1.75781V21.4375H3.76582V26.2495ZM23.0127 25.4075C22.4678 25.9502 21.7424 26.2495 20.9713 26.2495H5.52363V23.5584L8.19726 24.2242C8.45976 24.2896 8.73809 24.2306 8.95137 24.0643C9.16465 23.8986 9.28945 23.6436 9.28945 23.3741C9.28945 22.3238 9.79219 21.3184 10.6342 20.6859C11.4768 20.0534 12.5848 19.848 13.599 20.1363C14.2881 20.3323 14.758 20.4659 14.758 20.4659C14.8365 20.4887 14.918 20.4998 15 20.4998H18.7658C19.3219 20.4998 19.7695 20.9479 19.7695 21.4993V22.4988H15.9416C15.4564 22.4988 15.0627 22.8909 15.0627 23.3741C15.0627 23.8572 15.4564 24.2493 15.9416 24.2493H20.6484H20.6496H20.6508H20.652C20.8764 24.2481 21.0809 24.1635 21.2355 24.0252C21.3404 23.9325 23.9068 21.6603 26.1873 19.6421C26.55 19.3205 27.0709 19.2412 27.5127 19.439C27.8555 19.5925 28.1039 19.8906 28.1994 20.2413L23.0127 25.4075Z" fill="#F89A1C"/>
<path d="M21.5898 10.1878H23.4725C23.9576 10.1878 24.3514 9.79568 24.3514 9.31255C24.3514 8.82942 23.9576 8.43732 23.4725 8.43732H21.5898C21.1047 8.43732 20.7109 8.82942 20.7109 9.31255C20.7109 9.79568 21.1041 10.1878 21.5898 10.1878Z" fill="#F89A1C"/>
</svg>
