<svg width="30" height="30" viewBox="0 0 30 30" fill="none" xmlns="http://www.w3.org/2000/svg">
<path d="M25.6066 4.39344C22.7734 1.56023 19.0066 0 15 0C10.9934 0 7.22664 1.56023 4.39344 4.39344C1.56023 7.22664 0 10.9934 0 15C0 19.0066 1.56023 22.7734 4.39344 25.6066C7.22664 28.4398 10.9934 30 15 30C19.0066 30 22.7734 28.4398 25.6066 25.6066C28.4398 22.7734 30 19.0066 30 15C30 10.9934 28.4398 7.22664 25.6066 4.39344ZM15 27.9151C11.55 27.9151 8.30676 26.5714 5.86737 24.132C3.42857 21.6932 2.08494 18.45 2.08494 15C2.08494 11.55 3.42857 8.30676 5.86737 5.86737C8.30676 3.42857 11.55 2.08494 15 2.08494C18.45 2.08494 21.6932 3.42857 24.132 5.86795C26.5714 8.30676 27.9151 11.55 27.9151 15C27.9151 18.45 26.5714 21.6932 24.132 24.132C21.6927 26.5708 18.45 27.9151 15 27.9151Z" fill="#F89A1C"/>
<path d="M15.0001 3.78357C8.81535 3.78357 3.78369 8.81523 3.78369 15C3.78369 21.1847 8.81535 26.2164 15.0001 26.2164C21.1848 26.2164 26.2165 21.1847 26.2165 15C26.2165 8.81523 21.1848 3.78357 15.0001 3.78357ZM15.0001 10.1027C16.5024 10.1027 17.7244 11.3247 17.7244 12.827C17.7244 14.3293 16.5024 15.5513 15.0001 15.5513C13.4978 15.5513 12.2758 14.3293 12.2758 12.827C12.2758 11.3247 13.4978 10.1027 15.0001 10.1027ZM15.0001 17.638C17.7267 17.638 20.0283 19.7409 20.282 22.4438C18.731 23.5482 16.9067 24.1314 15.0001 24.1314C13.0935 24.1314 11.2692 23.5482 9.71825 22.4438C9.97191 19.7409 12.2735 17.638 15.0001 17.638ZM18.2926 16.328C19.2598 15.4187 19.8094 14.1573 19.8094 12.8264C19.8094 10.1745 17.652 8.01716 15.0001 8.01716C12.3482 8.01716 10.1908 10.1745 10.1908 12.8264C10.1908 14.1573 10.7404 15.4187 11.7076 16.328C9.90821 17.2285 8.5252 18.8606 7.93388 20.7764C6.59952 19.1473 5.86863 17.1081 5.86863 15C5.86863 9.96484 9.96496 5.86851 15.0001 5.86851C20.0352 5.86851 24.1316 9.96484 24.1316 15C24.1316 17.1087 23.4007 19.1473 22.0663 20.7764C21.475 18.8612 20.092 17.2291 18.2926 16.328Z" fill="#F89A1C"/>
</svg>
