<svg width="30" height="30" viewBox="0 0 30 30" fill="none" xmlns="http://www.w3.org/2000/svg">
<g clip-path="url(#clip0)">
<path d="M20.1562 8.90625C20.1562 6.06328 17.843 3.75 15 3.75C12.157 3.75 9.84375 6.06328 9.84375 8.90625C9.84375 11.7492 12.157 14.0625 15 14.0625C17.843 14.0625 20.1562 11.7492 20.1562 8.90625ZM11.7187 8.90625C11.7187 7.09687 13.1906 5.625 15 5.625C16.8094 5.625 18.2812 7.09687 18.2812 8.90625C18.2812 10.7156 16.8094 12.1875 15 12.1875C13.1906 12.1875 11.7187 10.7156 11.7187 8.90625Z" fill="#F89A1C"/>
<path d="M29.9546 28.7766L26.2046 17.0578C26.1055 16.749 25.8542 16.5129 25.5389 16.4338L21.718 15.4787C22.9655 13.4139 23.9053 11.1217 23.9053 8.90625C23.9053 3.99551 19.9098 0 14.9991 0C10.0883 0 6.09284 3.99551 6.09284 8.90625C6.09284 11.1217 7.03268 13.4139 8.28014 15.4793L4.45924 16.4344C4.1446 16.5129 3.89264 16.749 3.79362 17.0584L0.043619 28.7771C-0.0600919 29.1012 0.0201815 29.4557 0.252213 29.7041C0.484244 29.9525 0.833463 30.0551 1.16335 29.9725L8.4196 28.1584L14.7407 29.9643C14.9089 30.0123 15.0876 30.0123 15.2557 29.9643L21.5768 28.1584L28.8331 29.9725C28.9087 29.9912 28.9848 30.0006 29.0604 30.0006C29.3165 30.0006 29.5649 29.8957 29.7442 29.7041C29.9786 29.4557 30.0583 29.1006 29.9546 28.7766ZM14.0616 22.4455V27.8197L9.49889 26.516L10.7616 18.9381C12.1561 20.6256 13.4704 21.8971 14.0616 22.4455ZM15.9366 22.4455C16.5278 21.8965 17.8421 20.6256 19.2366 18.9381L20.4993 26.516L15.9366 27.8197V22.4455ZM14.9991 1.875C18.8762 1.875 22.0303 5.0291 22.0303 8.90625C22.0303 13.5475 16.8208 18.9873 14.9985 20.7475C13.1757 18.9885 7.96784 13.5545 7.96784 8.90625C7.96784 5.0291 11.1219 1.875 14.9991 1.875ZM5.42018 18.1266L9.15143 17.1938L7.61276 26.427L2.34284 27.7447L5.42018 18.1266ZM22.3854 26.427L20.8467 17.1943L24.578 18.1271L27.6553 27.7447L22.3854 26.427Z" fill="#F89A1C"/>
</g>
<defs>
<clipPath id="clip0">
<rect width="30" height="30" fill="white"/>
</clipPath>
</defs>
</svg>