<svg width="20" height="20" viewBox="0 0 20 20" fill="none" xmlns="http://www.w3.org/2000/svg">
<path fill-rule="evenodd" clip-rule="evenodd" d="M9.67558 3C6.89327 3.00026 4.96537 3.00952 3.97577 3.97591C3.00944 4.9653 3.00018 6.98375 3.00018 9.67557C5.98911 9.58537 7.35593 9.51053 8.44606 8.44601C9.51051 7.35588 9.58538 5.98907 9.67558 3ZM3.97559 16.0243C3.00926 15.0349 3 13.0165 3 10.3247C5.98893 10.4149 7.35575 10.4897 8.44588 11.5542C9.51033 12.6444 9.5852 14.0112 9.6754 17C6.89309 17 4.96519 16.991 3.97559 16.0243ZM10.3246 17C10.4148 14.0112 10.4897 12.6444 11.5542 11.5542C12.6443 10.4897 14.0111 10.4149 17 10.3247C16.9997 13.0165 16.9905 15.0349 16.0242 16.0243C15.0346 16.991 13.107 17 10.3246 17ZM10.3246 3C10.4148 5.98907 10.4897 7.35588 11.5541 8.44601C12.6442 9.51053 14.0111 9.58537 17 9.67557C16.9997 6.98375 16.9905 4.9653 16.0241 3.97591C15.0345 3.00952 13.1069 3.00026 10.3246 3Z" fill="#222222"/>
</svg>
