<svg id="Group_195_copy_2" data-name="Group 195 copy 2" xmlns="http://www.w3.org/2000/svg" width="50" height="50" viewBox="0 0 50 50">
  <defs>
    <style>
      .cls-1 {
        fill: #307edd;
      }

      .cls-1, .cls-2 {
        fill-rule: evenodd;
      }

      .cls-2 {
        fill: #3d8ee9;
        opacity: 0.1;
      }
    </style>
  </defs>
  <path id="Rounded_Rectangle_955" data-name="Rounded Rectangle 955" class="cls-1" d="M754.975,772.245s0,0,0,.006l-5,42.869c0,0.006,0,.011-0.006.018a0.962,0.962,0,0,1-.027.2,0.908,0.908,0,0,1-.089.151l-0.009.016a0.981,0.981,0,0,1-.24.279l-0.007,0a0.994,0.994,0,0,1-.32.165l-0.032.008a0.972,0.972,0,0,1-.341.027c-0.011,0-.022,0-0.033,0s-0.023-.01-0.036-0.012a0.934,0.934,0,0,1-.165-0.022l-15.788-5.533-6.014,10.088a0.991,0.991,0,0,1-1.265.4c-0.017-.007-0.035-0.009-0.051-0.017s-0.035-.008-0.051-0.017a0.959,0.959,0,0,1-.1-0.089,0.984,0.984,0,0,1-.191-0.168c-0.006-.008-0.01-0.017-0.016-0.025a0.973,0.973,0,0,1-.158-0.247L719.126,805.6,706,801a0.887,0.887,0,0,1-.136-0.028,0.956,0.956,0,0,1-.2-0.041,0.852,0.852,0,0,1-.132-0.065,0.947,0.947,0,0,1-.209-0.141,0.8,0.8,0,0,1-.066-0.076,0.968,0.968,0,0,1-.137-0.155c-0.017-.03-0.017-0.063-0.031-0.093s-0.009-.032-0.015-0.047a0.986,0.986,0,0,1-.071-0.351s0,0,0,0,0-.008,0-0.012a0.982,0.982,0,0,1,.074-0.364c0-.013.012-0.024,0.017-0.037a0.986,0.986,0,0,1,.183-0.272c0.021-.021.043-0.037,0.065-0.057a0.957,0.957,0,0,1,.147-0.129l48.024-28.01a0.961,0.961,0,0,1,.143-0.048,1.018,1.018,0,0,1,.135-0.045,0.993,0.993,0,0,1,.266-0.021c0.024,0,.046-0.008.07,0s0.026,0.011.041,0.013a0.967,0.967,0,0,1,.276.093,0.74,0.74,0,0,1,.08.039,0.971,0.971,0,0,1,.222.194c0.019,0.021.038,0.04,0.055,0.062a1.077,1.077,0,0,1,.077.088,0.955,0.955,0,0,1,.061.185c0.008,0.024.017,0.046,0.024,0.071a0.983,0.983,0,0,1,.025.328c0,0.013,0,.025,0,0.039ZM708.309,799.8l11.568,4.022,27.511-26.816Zm12.869,5.546,4.982,12.435L750.775,776.5Zm12.728,3.354,14.242,4.951,4.183-35.853Z" transform="translate(-705 -771)"/>
  <path id="Shape_929_copy" data-name="Shape 929 copy" class="cls-2" d="M722,809.2l4.213,10.4,26.637-44.1-1.244.085Z" transform="translate(-705 -771)"/>
</svg>
