<svg width="20" height="20" viewBox="0 0 20 20" fill="none" xmlns="http://www.w3.org/2000/svg">
<path d="M16.9829 13.6048C16.9219 13.3996 16.6298 13.255 16.6298 13.255C16.6022 13.2402 16.5775 13.2269 16.5572 13.2166C16.0704 12.9774 15.6388 12.6896 15.2756 12.3633C14.9835 12.1006 14.7336 11.8113 14.5331 11.5042C14.2875 11.1293 14.1727 10.8163 14.1233 10.6466C14.0957 10.5359 14.1 10.4916 14.1233 10.434C14.1422 10.3853 14.1988 10.3395 14.225 10.3174C14.3892 10.1993 14.6537 10.0251 14.8164 9.91881C14.9574 9.82581 15.078 9.7461 15.1492 9.69591C15.3773 9.53353 15.5342 9.3682 15.6258 9.18958C15.7449 8.9593 15.7594 8.7054 15.6664 8.45593C15.5415 8.11936 15.232 7.9186 14.8382 7.9186C14.751 7.9186 14.6609 7.92893 14.5708 7.94812C14.3456 7.99831 14.132 8.0795 13.9533 8.15036C13.9402 8.15626 13.9257 8.14593 13.9271 8.13117C13.946 7.68094 13.9678 7.07571 13.9184 6.50148C13.8748 5.98186 13.7687 5.54344 13.5973 5.16111C13.4244 4.77731 13.1991 4.49388 13.0233 4.2887C12.8562 4.09384 12.5612 3.80599 12.1166 3.54766C11.4918 3.18452 10.7798 3 10.0009 3C9.22355 3 8.51301 3.18452 7.88673 3.54766C7.41594 3.82075 7.11516 4.12927 6.97857 4.2887C6.80275 4.49388 6.57752 4.77731 6.40461 5.16111C6.23169 5.54344 6.12707 5.98039 6.08348 6.50148C6.03408 7.07866 6.05442 7.63518 6.07476 8.13117C6.07476 8.14593 6.06168 8.15626 6.04715 8.15036C5.86843 8.0795 5.65483 7.99831 5.4296 7.94812C5.34096 7.92893 5.25087 7.9186 5.16224 7.9186C4.76991 7.9186 4.46041 8.11936 4.33399 8.45593C4.24099 8.7054 4.25552 8.9593 4.37467 9.18958C4.46767 9.3682 4.62315 9.53353 4.85128 9.69591C4.92103 9.7461 5.04308 9.82581 5.18403 9.91881C5.34242 10.0236 5.59961 10.1934 5.76526 10.31C5.7856 10.3248 5.85535 10.3779 5.87714 10.434C5.90039 10.493 5.90475 10.5373 5.87424 10.6554C5.82338 10.8267 5.70859 11.1367 5.46738 11.5042C5.26686 11.8127 5.01693 12.1006 4.72486 12.3633C4.3616 12.6896 3.93004 12.9774 3.44326 13.2166C3.42001 13.2284 3.3924 13.2417 3.36334 13.2594C3.36334 13.2594 3.07273 13.41 3.01751 13.6048C2.93614 13.8927 3.15265 14.1628 3.37206 14.3075C3.73242 14.5437 4.17125 14.6706 4.42553 14.74C4.49673 14.7592 4.56067 14.7769 4.61879 14.7946C4.65512 14.8064 4.74666 14.8418 4.78589 14.8935C4.8353 14.9585 4.84111 15.0382 4.85855 15.1282C4.88615 15.2803 4.94864 15.4677 5.13317 15.5976C5.3366 15.7394 5.5938 15.7497 5.92074 15.763C6.26221 15.7763 6.6865 15.7925 7.17328 15.9563C7.3985 16.0316 7.60339 16.1601 7.83878 16.3077C8.33283 16.6162 8.94747 17 9.99659 17C11.0472 17 11.6662 16.6147 12.1631 16.3047C12.3985 16.1586 12.6005 16.0316 12.8213 15.9578C13.3081 15.794 13.7324 15.7777 14.0739 15.7644C14.4008 15.7512 14.658 15.7423 14.8614 15.5991C15.0591 15.4604 15.1157 15.2537 15.1419 15.0987C15.1564 15.0219 15.1651 14.9526 15.2087 14.8965C15.2465 14.8477 15.3308 14.8138 15.37 14.8005C15.4296 14.7813 15.4964 14.7636 15.5705 14.7429C15.8248 14.6736 16.1445 14.5924 16.5325 14.3695C17.0004 14.0993 17.0323 13.7687 16.9829 13.6048Z" fill="#222222"/>
</svg>
