<svg width="20" height="20" viewBox="0 0 20 20" fill="none" xmlns="http://www.w3.org/2000/svg">
<path d="M15.598 6.07521C14.1576 6.07521 12.9858 4.87967 12.9858 3.41016C12.9858 3.18361 12.8058 3 12.5837 3H10.4306C10.2087 3 10.0286 3.18361 10.0286 3.41016V12.4163C10.0286 13.2802 9.33959 13.983 8.49283 13.983C7.64607 13.983 6.95718 13.2802 6.95718 12.4163C6.95718 11.5523 7.64607 10.8495 8.49283 10.8495C8.71488 10.8495 8.89485 10.6659 8.89485 10.4393V8.24263C8.89485 8.01619 8.71488 7.83247 8.49283 7.83247C6.01546 7.83247 4 9.88881 4 12.4163C4 14.9438 6.01546 17 8.49283 17C10.9702 17 12.9858 14.9438 12.9858 12.4163V8.42976C13.7858 8.86502 14.6763 9.09221 15.598 9.09221C15.82 9.09221 16 8.9086 16 8.68205V6.48537C16 6.25893 15.82 6.07521 15.598 6.07521Z" fill="#222222"/>
</svg>
