<svg id="Group_279_copy" data-name="Group 279 copy" xmlns="http://www.w3.org/2000/svg" width="50" height="50" viewBox="0 0 50 50">
  <defs>
    <style>
      .cls-1, .cls-2 {
        fill: #3860d9;
        fill-rule: evenodd;
      }

      .cls-2 {
        opacity: 0.1;
      }
    </style>
  </defs>
  <path id="Rounded_Rectangle_993_copy_2" data-name="Rounded Rectangle 993 copy 2" class="cls-1" d="M970.989,459v-8h1.236l0.851,2.321,0.488,1.459h0.052V451H975v8h-1.2l-0.848-2.332-0.5-1.516H972.4V459h-1.412ZM948.5,455.08a1.4,1.4,0,0,1,.287.4,1.832,1.832,0,0,1,.154.488,3.116,3.116,0,0,1,.046.54,2.706,2.706,0,0,1-.561,1.89,2.172,2.172,0,0,1-1.672.6h-1.764v-8h1.8a2.1,2.1,0,0,1,1.6.563,2.341,2.341,0,0,1,.532,1.666,2.247,2.247,0,0,1-.051.477,1.852,1.852,0,0,1-.155.442,1.317,1.317,0,0,1-.269.368,1.063,1.063,0,0,1-.4.241v0.058A1.163,1.163,0,0,1,948.5,455.08Zm-1.242-2.43a0.81,0.81,0,0,0-.55-0.155h-0.161v1.585h0.2a0.664,0.664,0,0,0,.687-0.8A0.849,0.849,0,0,0,947.255,452.65Zm0.074,3.074a0.619,0.619,0,0,0-.5-0.2h-0.287V457.5h0.275a0.628,0.628,0,0,0,.35-0.087,0.589,0.589,0,0,0,.206-0.237,1.046,1.046,0,0,0,.1-0.346,3.775,3.775,0,0,0,.023-0.428A1.071,1.071,0,0,0,947.329,455.724ZM980,470h-6.055l-3.57-2H980a3,3,0,0,0,3-3V445a3,3,0,0,0-3-3H940a3,3,0,0,0-3,3v20a3,3,0,0,0,3,3h12v2H940a5,5,0,0,1-5-5V445a5,5,0,0,1,5-5h40a5,5,0,0,1,5,5v20A5,5,0,0,1,980,470Zm-30.014-13v-5.984h1.534v6.018a0.464,0.464,0,0,0,.135.382,0.507,0.507,0,0,0,.327.108,0.483,0.483,0,0,0,.321-0.108,0.473,0.473,0,0,0,.13-0.382v-6.018h1.556V457a2.024,2.024,0,0,1-.507,1.516,2.08,2.08,0,0,1-1.5.49A1.769,1.769,0,0,1,949.986,457Zm6.37,2v-6.5h-1.362V451h4.454V452.5h-1.361V459h-1.731Zm5.546,0v-6.5h-1.361V451H965V452.5h-1.362V459H961.9Zm4.1-1.985v-4.037a1.928,1.928,0,0,1,.53-1.5,2.555,2.555,0,0,1,2.982,0,2.022,2.022,0,0,1,.491,1.5v4.037a2,2,0,0,1-.508,1.5A2.088,2.088,0,0,1,968,459,1.762,1.762,0,0,1,966,457.012Zm2.447,0.069v-4.163a0.425,0.425,0,0,0-.451-0.486,0.49,0.49,0,0,0-.327.114,0.456,0.456,0,0,0-.136.372v4.163a0.456,0.456,0,0,0,.136.378,0.507,0.507,0,0,0,.327.108,0.487,0.487,0,0,0,.321-0.108A0.471,0.471,0,0,0,968.451,457.081Zm-12.472,4.879a0.967,0.967,0,0,1,.247.049c0.024,0,.048.007,0.072,0.014a0.962,0.962,0,0,1,.233.123,0.948,0.948,0,0,1,.1.052l17.95,12.444c0.006,0,.008.011,0.014,0.016a1.072,1.072,0,0,1,.124.151,0.923,0.923,0,0,1,.12.161,0.109,0.109,0,0,1,.013.017,0.9,0.9,0,0,1,.039.153,1.01,1.01,0,0,1,.05.2,0.962,0.962,0,0,1-.02.221,1.017,1.017,0,0,1-.023.155,0.992,0.992,0,0,1-.132.249,0.714,0.714,0,0,1-.043.082l-0.01.008a0.985,0.985,0,0,1-.213.175,0.848,0.848,0,0,1-.1.073c-0.009,0-.014.013-0.023,0.017l-4.391,2.145,3.158,6.65a1,1,0,0,1-.472,1.333l-7.467,3.444a1,1,0,0,1-1.333-.473l-2.932-6.629-4.487,2.14a0.983,0.983,0,0,1-.442.088,0.3,0.3,0,0,1-.032.007,0.986,0.986,0,0,1-.231-0.046c-0.022-.006-0.045,0-0.066-0.013a0.986,0.986,0,0,1-.7-0.936l0-21.067A1,1,0,0,1,955.979,461.96Zm5.032,18.582a1,1,0,0,1,1.333.472l2.937,6.642,5.626-2.6-3.148-6.63a1,1,0,0,1,.472-1.333l3.751-1.832-15-10.4,0,17.6Z" transform="translate(-935 -440)"/>
  <path class="cls-2" d="M958.971,482.93l0.047-18.01,13.607,10.207-3.644,2.824,3.4,6.852-6.941,3.542-3.027-6.8Z" transform="translate(-935 -440)"/>
</svg>
