<svg xmlns="http://www.w3.org/2000/svg" width="11.94" height="12.03" viewBox="0 0 11.94 12.03">
  <defs>
    <style>
      .cls-1 {
        fill: #333;
        fill-rule: evenodd;
      }
    </style>
  </defs>
  <path class="cls-1" d="M1187.68,6367l2.5-.34a2.856,2.856,0,0,0,2.1-2.26,2.11,2.11,0,0,0-.37-2.07,2.157,2.157,0,0,1,2.87.48c0.59,0.81-.15,2.87-0.15,2.87s-0.48.35,0.4,0.33c1.69-.03,4.32-0.04,3.84,2.12-0.54,2.48-.6,3.1-1,4.51a1.578,1.578,0,0,1-1.68,1.32c-0.31,0-2.48.08-4.51,0.01-1.01-.04-1.82-0.95-2.28-0.96a10.368,10.368,0,0,0-1.72-.01l-0.68-.76v-4.45Z" transform="translate(-1187 -6361.97)"/>
</svg>
