<svg xmlns="http://www.w3.org/2000/svg" width="13" height="13" viewBox="0 0 13 13"><path id="Rounded_Rectangle_866_copy" data-name="Rounded Rectangle 866 copy" class="cls-1" d="M910.931,77.494l0.007,0.006-3.049,9.55a1.489,1.489,0,0,1-2.744.075h-0.02l-1.438-4.812-4.562-1.344,0-.045a1.474,1.474,0,0,1-.244-2.779l0-.019,9.625-3.062,0.006,0.006A1.977,1.977,0,0,1,911,77,1.963,1.963,0,0,1,910.931,77.494Zm-10.4,1.975,3.359,1.2,1.4-1.372a1,1,0,1,1,1.414,1.414l-1.374,1.346,1.138,3.414,2.5-8.375Z" transform="translate(-898 -75)"/></svg>