<svg xmlns="http://www.w3.org/2000/svg" width="5" height="11" viewBox="0 0 5 11"><path id="Shape_51_copy_13" data-name="Shape 51 copy 13" class="cls-1" d="M402.738,141a18.086,18.086,0,0,0,1.136,1.727,0.474,0.474,0,0,1-.144.735l-0.3.257a1,1,0,0,1-.805.279,4.641,4.641,0,0,1-1.491-.232,4.228,4.228,0,0,1-1.9-3.1,9.614,9.614,0,0,1,.025-4.3,4.335,4.335,0,0,1,1.934-3.118,4.707,4.707,0,0,1,1.493-.244,0.974,0.974,0,0,1,.8.272l0.3,0.255a0.481,0.481,0,0,1,.113.739c-0.454.677-.788,1.159-1.132,1.731a0.43,0.43,0,0,1-.557.181l-0.468-.061a0.553,0.553,0,0,0-.7.309,6.205,6.205,0,0,0-.395,2.079,6.128,6.128,0,0,0,.372,2.076,0.541,0.541,0,0,0,.7.3l0.468-.063a0.432,0.432,0,0,1,.555.175h0Z" transform="translate(-399 -133)"/></svg>