<svg xmlns="http://www.w3.org/2000/svg" width="18.031" height="17.969" viewBox="0 0 18.031 17.969">
  <defs>
    <style>
      .cls-1 {
        fill: #999;
        fill-rule: evenodd;
      }
    </style>
  </defs>
  <path id="Rounded_Rectangle_3_copy_2" data-name="Rounded Rectangle 3 copy 2" class="cls-1" d="M673.56,155.153c-4.179-4.179-6.507-7.88-2.45-12.3l0,0a3,3,0,0,1,4.242,0l1.87,2.55a3.423,3.423,0,0,1,.258,3.821l-0.006-.007c-0.744.7-.722,0.693,0.044,1.459l0.777,0.873c0.744,0.788.759,0.788,1.458,0.044l-0.009-.01a3.153,3.153,0,0,1,3.777.264l2.619,1.889a3,3,0,0,1,0,4.243C681.722,162.038,677.739,159.331,673.56,155.153Zm11.17,1.414a1,1,0,0,0,0-1.414l-2.618-1.89a1.4,1.4,0,0,0-.926-0.241l0.009,0.009c-1.791,1.835-2.453,1.746-4.375-.132l-1.05-1.194c-1.835-1.878-1.518-2.087.272-3.922l0,0a1.342,1.342,0,0,0-.227-0.962l-1.87-2.549a1,1,0,0,0-1.414,0l-0.008-.009c-2.7,3.017-.924,6.1,2.453,9.477s6.748,5.54,9.765,2.837Z" transform="translate(-669 -142)"/>
</svg>
