<svg xmlns="http://www.w3.org/2000/svg" width="45" height="34" viewBox="0 0 45 34"><path id="Rounded_Rectangle_812_copy" data-name="Rounded Rectangle 812 copy" class="cls-1" d="M572.9,331.389a0.036,0.036,0,0,1,0,.01l0,0c-0.009.02-.016,0.039-0.026,0.059l-11.895,26.794a0.9,0.9,0,0,1-1.333.684l-7.164-3.043-8.727,7.754a0.807,0.807,0,0,1-.058.073l-0.015.014a1.04,1.04,0,0,1-.366.2l-0.064.022c-0.02,0-.036.015-0.056,0.018a0.7,0.7,0,0,1-.079,0,0.96,0.96,0,0,1-1.109-1.149l-1.853-12.094-11.531-4.815a1,1,0,0,1-.555-1.3,0.978,0.978,0,0,1,.67-0.576,0.083,0.083,0,0,1,.013-0.007l42.945-14a0.939,0.939,0,0,1,.31-0.035h0A0.974,0.974,0,0,1,572.9,331.389Zm-22.457,23.645-1.957-.832-2.262,4.58Zm-18.561-9.916,8.878,3.708L563.5,334.81Zm10.229,5.222,1.434,9.357,3.6-7.288a0.984,0.984,0,0,1,.513-0.459l18.381-16.361Zm7.786,2.291,9.591,4.074,9.256-20.85Z" transform="translate(-528 -330)"/></svg>