<svg width="20" height="20" viewBox="0 0 20 20" fill="none" xmlns="http://www.w3.org/2000/svg">
<path fill-rule="evenodd" clip-rule="evenodd" d="M7.36536 12.9225C7.5499 11.9004 7.94213 10.1098 8.02671 9.9378C8.08272 9.82376 8.11573 9.6984 8.12367 9.56984C8.13162 9.44128 8.11428 9.31234 8.0728 9.19139C7.88135 8.52682 7.88135 7.81595 8.0728 7.15139C8.12231 6.96262 8.20886 6.78733 8.3267 6.63722C8.44454 6.48711 8.59101 6.36565 8.75621 6.28091C8.92141 6.19617 9.1016 6.15013 9.28475 6.14585C9.4679 6.14157 9.64977 6.17916 9.81827 6.2561C10.6564 6.63546 10.195 8.04425 10.0951 8.47792C9.86727 9.15097 9.72004 9.85219 9.65682 10.5648C9.66288 10.8808 9.78483 11.1815 9.99632 11.402C10.2078 11.6225 10.4919 11.745 10.7871 11.7432C11.1776 11.7109 11.552 11.563 11.8684 11.3159C12.1848 11.0689 12.4307 10.7324 12.5787 10.3443C12.9627 9.49035 13.1624 8.55497 13.1631 7.60729C13.1997 6.8521 12.9935 6.10626 12.5787 5.49406C12.2558 5.12953 11.8654 4.84107 11.4325 4.64709C10.9996 4.45312 10.5335 4.35787 10.0643 4.36748C9.17279 4.35193 8.30843 4.69527 7.64225 5.32947C6.93524 6.00496 6.50442 6.95065 6.44269 7.9628C6.40492 8.47763 6.5007 8.99364 6.71949 9.45392C6.89214 9.655 7.00931 9.90342 7.05787 10.1715C7.02711 10.3476 6.8887 10.8627 6.86564 10.9574C6.84257 11.052 6.64259 11.2421 6.32734 11.0249C5.79222 10.6714 5.39379 10.1237 5.20474 9.4819C4.92407 8.50835 4.93216 7.46564 5.22783 6.49719C5.59769 5.53017 6.2063 4.68905 6.9886 4.06386C7.97701 3.32905 9.16147 2.95712 10.3642 3.00394C11.0061 2.98797 11.644 3.11558 12.2372 3.37857C12.8304 3.64157 13.3656 4.03418 13.8089 4.53127C14.2161 4.98833 14.5313 5.52994 14.735 6.1226C14.9386 6.71525 15.0265 7.34635 14.9931 7.97681C15.0078 9.41625 14.5165 10.809 13.6167 11.879C13.2866 12.28 12.8774 12.5975 12.4186 12.8084C11.9598 13.0194 11.4629 13.1185 10.964 13.0986C10.6278 13.0864 10.2975 13.0008 9.99332 12.847C9.68919 12.6931 9.41761 12.4743 9.19539 12.2041C9.19539 12.2041 8.76481 13.8302 8.6264 14.3313C8.42076 15.0179 8.14216 15.677 7.796 16.2956C7.63946 16.582 7.42054 16.8237 7.15783 17C7.04708 16.1107 7.03414 15.2106 7.11935 14.3182C7.16513 13.8465 7.24739 13.3796 7.36536 12.9225Z" fill="#222222"/>
</svg>
