<svg id="Group_189_copy_2" data-name="Group 189 copy 2" xmlns="http://www.w3.org/2000/svg" width="50" height="50" viewBox="0 0 50 50">
  <defs>
    <style>
      .cls-1, .cls-2 {
        fill: #3860d9;
        fill-rule: evenodd;
      }

      .cls-2 {
        opacity: 0.1;
      }
    </style>
  </defs>
  <path id="Rounded_Rectangle_995_copy" data-name="Rounded Rectangle 995 copy" class="cls-1" d="M1531,453h-12a6,6,0,0,1,0-12h12A6,6,0,0,1,1531,453Zm0-10h-12a4,4,0,1,0,0,8h12A4,4,0,1,0,1531,443Zm0,5h-12a1,1,0,0,1,0-2h12A1,1,0,0,1,1531,448Zm-26,5h-12a6,6,0,0,1,0-12h12A6,6,0,0,1,1505,453Zm0-10h-12a4,4,0,1,0,0,8h12A4,4,0,1,0,1505,443Zm0,5h-12a1,1,0,0,1,0-2h12A1,1,0,0,1,1505,448Zm-13,9h40a3,3,0,0,1,3,3v12a2.954,2.954,0,0,0,0,4v12a3,3,0,0,1-3,3h-40a3,3,0,0,1-3-3V476a2.954,2.954,0,0,0,0-4V460A3,3,0,0,1,1492,457Zm-1,31a1,1,0,0,0,1,1h40a1,1,0,0,0,1-1V476a1,1,0,0,0-1-1h-40a1,1,0,0,0-1,1v12Zm0-16a1,1,0,0,0,1,1h40a1,1,0,0,0,1-1V460a1,1,0,0,0-1-1h-40a1,1,0,0,0-1,1v12Zm6-7h17a1,1,0,1,1,0,2h-17A1,1,0,1,1,1497,465Zm25.69-.711,1.31,1.3,1.28-1.3a1.009,1.009,0,0,1,1.41,0,0.97,0.97,0,0,1,0,1.388l-1.98,2.022a1.021,1.021,0,0,1-1.42,0v-0.006l-2.01-2a0.98,0.98,0,0,1,0-1.4A1,1,0,0,1,1522.69,464.289ZM1497,481h17a1,1,0,0,1,0,2h-17A1,1,0,0,1,1497,481Zm25.69-.71,1.31,1.3,1.28-1.3a1.009,1.009,0,0,1,1.41,0,0.97,0.97,0,0,1,0,1.388l-1.98,2.022a1.019,1.019,0,0,1-1.42,0v-0.006l-2.01-2a0.98,0.98,0,0,1,0-1.4A1,1,0,0,1,1522.69,480.289Z" transform="translate(-1487 -441)"/>
  <path id="Rectangle_781_copy_2" data-name="Rectangle 781 copy 2" class="cls-2" d="M1493,461h41v13h-41V461Zm0,16h41v13h-41V477Zm1-32h13a3,3,0,1,1,0,6h-13A3,3,0,1,1,1494,445Zm26,0h13a3,3,0,1,1,0,6h-13A3,3,0,1,1,1520,445Z" transform="translate(-1487 -441)"/>
</svg>
