<svg xmlns="http://www.w3.org/2000/svg" width="10" height="10" viewBox="0 0 10 10"><path id="Rounded_Rectangle_969_copy_7" data-name="Rounded Rectangle 969 copy 7" class="cls-1" d="M644,76a1,1,0,1,1-1,1A1,1,0,0,1,644,76Zm4,0a1,1,0,1,1-1,1A1,1,0,0,1,648,76Zm4,0a1,1,0,1,1-1,1A1,1,0,0,1,652,76Zm-8,4a1,1,0,1,1-1,1A1,1,0,0,1,644,80Zm4,0a1,1,0,1,1-1,1A1,1,0,0,1,648,80Zm4,0a1,1,0,1,1-1,1A1,1,0,0,1,652,80Zm-8,4a1,1,0,1,1-1,1A1,1,0,0,1,644,84Zm4,0a1,1,0,1,1-1,1A1,1,0,0,1,648,84Zm4,0a1,1,0,1,1-1,1A1,1,0,0,1,652,84Z" transform="translate(-643 -76)"/></svg>