<svg xmlns="http://www.w3.org/2000/svg" width="26" height="26" viewBox="0 0 26 26">
  <defs>
    <style>
      .inputlogincls-1, .inputlogincls-2 {
        fill: #1d7ce6;
        fill-rule: evenodd;
      }

      .inputlogincls-2 {
        opacity: 0.1;
      }
    </style>
  </defs>
  <path class="inputlogincls-1" d="M1173,405a13,13,0,1,1,13-13A13,13,0,0,1,1173,405Zm5.01-3.218a7.948,7.948,0,0,0-10.03,0A10.933,10.933,0,0,0,1178.01,401.782ZM1173,381a10.994,10.994,0,0,0-6.77,19.661,9.942,9.942,0,0,1,13.54,0A10.994,10.994,0,0,0,1173,381Zm0,16a6,6,0,1,1,6-6A6,6,0,0,1,1173,397Zm0-10a4,4,0,1,0,4,4A4,4,0,0,0,1173,387Z" transform="translate(-1160 -379)"/>
  <path class="inputlogincls-2" d="M1176,404h-4l-2-1a7.348,7.348,0,0,1,6-3c2.75-.062,3,1,3,1v1Zm-2-8a4,4,0,1,1,4-4A4,4,0,0,1,1174,396Z" transform="translate(-1160 -379)"/>
</svg>
