<svg xmlns="http://www.w3.org/2000/svg" width="16" height="16" viewBox="0 0 16 16">
  <defs>
    <style>
      .cls-1 {
        fill: #999;
        fill-rule: evenodd;
      }
    </style>
  </defs>
  <path id="Rounded_Rectangle_979" data-name="Rounded Rectangle 979" class="cls-1" d="M36.973,545.2c-0.005.026,0,.051-0.007,0.076l-0.007.023a1.944,1.944,0,0,1-.174.567L32.969,558.3A0.991,0.991,0,0,1,32,559v0H31v-0.013a0.98,0.98,0,0,1-.952-0.607l-1.847-6.6L21.594,549.9a1,1,0,0,1-.585-0.9H21v-1h0.017a0.987,0.987,0,0,1,.715-0.984l12.415-3.806a1.971,1.971,0,0,1,.552-0.169l0.047-.014a0.777,0.777,0,0,1,.118-0.008c0.046,0,.089-0.019.136-0.019,0.013,0,.023.007,0.036,0.007a0.96,0.96,0,0,1,.292.056,1.973,1.973,0,0,1,1.654,1.755,0.954,0.954,0,0,1,.013.13C37,544.966,37,544.982,37,545A1.882,1.882,0,0,1,36.973,545.2Zm-13.175,3.3,4.882,1.391,2.606-2.606a0.988,0.988,0,0,1,1.414,0,1.026,1.026,0,0,1,0,1.436l-2.593,2.594,1.386,4.949,3.43-11.174Z" transform="translate(-21 -543)"/>
</svg>
