<svg id="Group_222_copy" data-name="Group 222 copy" xmlns="http://www.w3.org/2000/svg" width="466" height="50" viewBox="0 0 466 50">
  <defs>
    <style>
      .cls-1, .cls-2, .cls-3 {
        fill: #fafafa;
      }

      .cls-1, .cls-2 {
        fill-rule: evenodd;
      }

      .cls-2, .cls-3 {
        opacity: 0.9;
      }
    </style>
  </defs>
  <path id="Ellipse_275_copy_2" data-name="Ellipse 275 copy 2" class="cls-1" d="M1365,1157v-7a1,1,0,0,0,2,0v-8.3a24.946,24.946,0,0,0,47.83-7.18,0.948,0.948,0,0,0,.17-0.52,1,1,0,0,0-2,0h-0.05a19.8,19.8,0,0,0-2.65-9h3.7a1,1,0,0,0,1-1v-10a1,1,0,0,0-2,0v8.3a24.964,24.964,0,0,0-23-15.3h25v50h-50Zm3.83-16h5.09a20.008,20.008,0,0,0,17.62,13.93c-0.51.03-1.02,0.07-1.54,0.07A23,23,0,0,1,1368.83,1141Zm42.34-18h-2.2a19.98,19.98,0,0,0-35.97,12,20.248,20.248,0,0,0,.4,4H1366a1,1,0,0,0-1,1v-10a1,1,0,0,0,2,0h0.1A22.994,22.994,0,0,1,1411.17,1123Zm-46,6.48a0.922,0.922,0,0,0-.17.52v-23h25A24.972,24.972,0,0,0,1365.17,1129.48Z" transform="translate(-949 -1107)"/>
  <path id="Ellipse_275_copy_3" data-name="Ellipse 275 copy 3" class="cls-2" d="M1409.51,1123H1404a1,1,0,0,0,0,2h6.84a20.062,20.062,0,0,1,1.76,3.82c0.53,1.64.26,3.38,0.35,5.18h-0.05a22.992,22.992,0,0,1-21.36,20.93c-3.3-.24-6.39-0.62-9.05-2.26a23.672,23.672,0,0,1-3.91-3.29,20.3,20.3,0,0,1-4-5.57,22.82,22.82,0,0,1-.99-2.81H1376a1,1,0,0,0,0-2h-2.93a20.255,20.255,0,0,1-.34-4,22.442,22.442,0,0,1,1-7.29,19.4,19.4,0,0,1,4.86-7.25,22.729,22.729,0,0,1,5.27-3.92,20.373,20.373,0,0,1,9.14-2.01,21.805,21.805,0,0,1,7.53,1.34,20.872,20.872,0,0,1,5.23,2.91A23.557,23.557,0,0,1,1409.51,1123Zm-24.7.38a1.015,1.015,0,0,0-1.41-.21,1,1,0,0,0-.2,1.4l4.8,6.43h-8a1,1,0,0,0,0,2h8l-4.8,6.43a1,1,0,0,0,.2,1.4,1.025,1.025,0,0,0,1.41-.21l5.19-6.95,5.19,6.95a1.014,1.014,0,0,0,1.4.21,1,1,0,0,0,.21-1.4L1392,1133h8a1,1,0,0,0,0-2h-8l4.8-6.43a1,1,0,1,0-1.61-1.19l-5.19,6.94Z" transform="translate(-949 -1107)"/>
  <path id="Rectangle_743_copy_3" data-name="Rectangle 743 copy 3" class="cls-1" d="M1313,1157v-10a1,1,0,0,0,1,1h2v5a4,4,0,0,0,4,4h39a4,4,0,0,0,4-4v-42a4,4,0,0,0-4-4h4v50h-50Zm48-46v1h-29v43h-3v-46h30A2,2,0,0,1,1361,1111Zm-43,42v-5h2.28a2,2,0,1,0,1.72-3,1.968,1.968,0,0,0-1.72,1H1318v-8h2.28a1.968,1.968,0,0,0,1.72,1,2,2,0,0,0,0-4,1.968,1.968,0,0,0-1.72,1H1318v-8h2.28a2,2,0,1,0,1.72-3,1.968,1.968,0,0,0-1.72,1H1318v-8h2.28a2,2,0,1,0,1.72-3,1.968,1.968,0,0,0-1.72,1H1318v-5a2,2,0,0,1,2-2h7v46h-7A2.006,2.006,0,0,1,1318,1153Zm-2-42v5h-2a1,1,0,0,0-1,1v-10h7A4,4,0,0,0,1316,1111Zm-2,7h2v8h-2a1,1,0,0,0-1,1v-10A1,1,0,0,0,1314,1118Zm0,10h2v8h-2a1,1,0,0,0-1,1v-10A1,1,0,0,0,1314,1128Zm0,10h2v8h-2a1,1,0,0,0-1,1v-10A1,1,0,0,0,1314,1138Z" transform="translate(-949 -1107)"/>
  <path id="Rectangle_743_copy_4" data-name="Rectangle 743 copy 4" class="cls-2" d="M1361,1153a2.006,2.006,0,0,1-2,2h-27v-43h29v41Zm-26-21h11a1,1,0,0,0,0-2h-11A1,1,0,0,0,1335,1132Zm18-14h-18a1,1,0,0,0,0,2h18A1,1,0,0,0,1353,1118Zm0,6h-18a1,1,0,0,0,0,2h18A1,1,0,0,0,1353,1124Z" transform="translate(-949 -1107)"/>
  <path id="Shape_929_copy_3" data-name="Shape 929 copy 3" class="cls-1" d="M1261,1157v-20.99a1.09,1.09,0,0,0,.07.35c0.01,0.01.01,0.03,0.02,0.04a0.381,0.381,0,0,0,.03.1,0.934,0.934,0,0,0,.13.15c0.03,0.03.05,0.06,0.07,0.08a0.771,0.771,0,0,0,.21.14,0.517,0.517,0,0,0,.13.06,0.734,0.734,0,0,0,.2.05c0.05,0,.09.02,0.14,0.02l13.13,4.6,5.9,14.75a1.325,1.325,0,0,0,.16.25,0.038,0.038,0,0,1,.02.02,0.772,0.772,0,0,0,.19.17,0.9,0.9,0,0,0,.1.09,0.257,0.257,0,0,0,.05.02c0.02,0,.03.01,0.05,0.01a0.986,0.986,0,0,0,1.27-.4l6.01-10.09,15.79,5.54c0.05,0.01.11,0.01,0.16,0.02a0.227,0.227,0,0,1,.04.01h0.03a0.961,0.961,0,0,0,.34-0.03,0.037,0.037,0,0,0,.03-0.01,1.011,1.011,0,0,0,.33-0.16v-0.01a0.814,0.814,0,0,0,.24-0.28l0.01-.01a1.191,1.191,0,0,0,.09-0.15,1.621,1.621,0,0,0,.03-0.2v-0.02l5-42.87v-0.01l0.02-.13v-0.04a0.872,0.872,0,0,0-.03-0.32,0.145,0.145,0,0,0-.02-0.07,1.056,1.056,0,0,0-.06-0.19c-0.02-.03-0.06-0.06-0.08-0.09a0.265,0.265,0,0,1-.05-0.06,0.834,0.834,0,0,0-.23-0.19,0.2,0.2,0,0,0-.08-0.04,0.987,0.987,0,0,0-.27-0.1,0.227,0.227,0,0,1-.04-0.01c-0.03,0-.05.01-0.07,0.01a0.822,0.822,0,0,0-.27.02c-0.05.01-.09,0.03-0.14,0.04a1.213,1.213,0,0,0-.14.05l-48.02,28.01c-0.06.04-.1,0.09-0.15,0.13l-0.06.06a1.015,1.015,0,0,0-.19.27,0.227,0.227,0,0,0-.01.04,0.863,0.863,0,0,0-.08.36V1107h50v50h-50Zm14.88-17.18-11.57-4.02,39.08-22.79Zm30.82-27.2-28.2,32.02-1.32-3.29,29.6-28.85Zm-2.55,37.03-14.24-4.95,18.42-30.9Z" transform="translate(-949 -1107)"/>
  <path id="Shape_929_copy_2" data-name="Shape 929 copy 2" class="cls-2" d="M1282.16,1153.78l-3.66-9.14,0.66-1.76,27.54-30.26Z" transform="translate(-949 -1107)"/>
  <path id="Shape_7_copy_3" data-name="Shape 7 copy 3" class="cls-1" d="M1228.68,1134.98h22.91a0.292,0.292,0,0,1-.09.02H1226a2,2,0,0,1-1.96-1.62l-0.01-.01-0.01-.07-1.27-14.3h32.75a1.5,1.5,0,0,1,1.5,1.5,1.007,1.007,0,0,1-.03.25l0.02,0.02-0.07.26-30.93-.03s0.57,10.55.98,12.27A1.9,1.9,0,0,0,1228.68,1134.98ZM1209,1157v-49a1,1,0,0,0,1,1h8.5a1.5,1.5,0,0,1,1.46,1.2l2.09,23.48a0.422,0.422,0,0,0,.03.12c0,0.02.01,0.03,0.01,0.05a1.866,1.866,0,0,0,.07.22A3.993,3.993,0,0,0,1226,1137h26a1.115,1.115,0,0,0,.41-0.09,4.514,4.514,0,0,0,3.37-3.06,0.147,0.147,0,0,1,.02-0.04l0.09-.38c0.01-.05.03-0.1,0.04-0.15l3.05-12.26a1.082,1.082,0,0,0,.01-0.4c0-.04.01-0.08,0.01-0.12a3.484,3.484,0,0,0-3.19-3.47,0.8,0.8,0,0,0-.15-0.03h-33.09l-0.57-6.48v-0.02a3.5,3.5,0,0,0-3.06-3.46,1.7,1.7,0,0,0-.22-0.04H1259v50h-50Zm20-16a8,8,0,1,0,8,8A8,8,0,0,0,1229,1141Zm20,0a8,8,0,1,0,8,8A8,8,0,0,0,1249,1141Zm0,14a6,6,0,1,1,6-6A6,6,0,0,1,1249,1155Zm-20,0a6,6,0,1,1,6-6A6,6,0,0,1,1229,1155Zm-20-47v-1h1A1,1,0,0,0,1209,1108Z" transform="translate(-949 -1107)"/>
  <path id="Shape_7_copy_2" data-name="Shape 7 copy 2" class="cls-2" d="M1225.97,1133.27c-0.41-1.72-.98-12.27-0.98-12.27l31.93,0.03-3.02,12.11a2.471,2.471,0,0,1-2.31,1.84h-23.91A1.9,1.9,0,0,1,1225.97,1133.27Z" transform="translate(-949 -1107)"/>
  <path id="Rectangle_741_copy" data-name="Rectangle 741 copy" class="cls-1" d="M1157,1157v-3a3,3,0,0,0,3,3h44a3,3,0,0,0,3-3v-42a3,3,0,0,0-3-3h-28.18a3.01,3.01,0,0,0-2.82-2h34v50h-50Zm48-45v2h-13v-3h12A1,1,0,0,1,1205,1112Zm-29,9v-10h14v3h-8v7h-6Zm-2-11v12a1,1,0,0,0,1,1h30v31a1,1,0,0,1-1,1h-44a1,1,0,0,1-1-1v-44a1,1,0,0,1,1-1h13A1,1,0,0,1,1174,1110Zm8,39h10a1,1,0,0,0,0-2h-10A1,1,0,0,0,1182,1149Zm0-6h16a1,1,0,0,0,0-2h-16A1,1,0,0,0,1182,1143Zm0-6h16a1,1,0,0,0,0-2h-16A1,1,0,0,0,1182,1137Zm0-6h16a1,1,0,0,0,0-2h-16A1,1,0,0,0,1182,1131Zm-11-2a7,7,0,1,0,7,7A6.995,6.995,0,0,0,1171,1129Zm1.5,4a4.5,4.5,0,0,0-3.17,7.69,4.987,4.987,0,1,1,6.36-6.36A4.471,4.471,0,0,0,1172.5,1133Zm-15.5-23v-3h3A3,3,0,0,0,1157,1110Z" transform="translate(-949 -1107)"/>
  <path id="Rectangle_741_copy_2" data-name="Rectangle 741 copy 2" class="cls-2" d="M1171,1141a4.9,4.9,0,0,1-1.67-.31,4.143,4.143,0,0,1-1.62-3.19c-0.07-3.01,1.52-4.72,4.79-4.67a3.563,3.563,0,0,1,3.19,1.5,4.9,4.9,0,0,1,.31,1.67A5,5,0,0,1,1171,1141Zm34-20h-13v-7h13v7Zm-23,0v-7h8v7h-8Z" transform="translate(-949 -1107)"/>
  <path class="cls-1" d="M1105,1157v-6a6,6,0,0,0,6,6h31a6,6,0,0,0,6-6v-37a5,5,0,0,1,5-5h1a1,1,0,0,0,0-2h1v50h-50Zm17-47a4.988,4.988,0,0,0-4.58,3h28.68a6.644,6.644,0,0,0-.1,1v37a4,4,0,0,1-4,4h0a4,4,0,0,1-4-4v-3h0v-2a2.006,2.006,0,0,0-2-2h-22v-31a4,4,0,0,1,4-4h30.11a6.741,6.741,0,0,0-.84,1H1122Zm7,28h10a1,1,0,0,0,0-2h-10A1,1,0,0,0,1129,1138Zm0-6h10a1,1,0,0,0,0-2h-10A1,1,0,0,0,1129,1132Zm0-6h10a1,1,0,0,0,0-2h-10A1,1,0,0,0,1129,1126Zm0-6h10a1,1,0,0,0,0-2h-10A1,1,0,0,0,1129,1120Zm-8,18h3a1,1,0,0,0,0-2h-3A1,1,0,0,0,1121,1138Zm0-6h3a1,1,0,0,0,0-2h-3A1,1,0,0,0,1121,1132Zm0-6h3a1,1,0,0,0,0-2h-3A1,1,0,0,0,1121,1126Zm0-6h3a1,1,0,0,0,0-2h-3A1,1,0,0,0,1121,1120Zm-9.31,35H1111a4,4,0,0,1-4-4v-5h29v2h-27v2A5.983,5.983,0,0,0,1111.69,1155Zm0.31-42v31h-5a2.006,2.006,0,0,0-2,2v-39h13A6,6,0,0,0,1112,1113Z" transform="translate(-949 -1107)"/>
  <path id="Ellipse_274_copy_2" data-name="Ellipse 274 copy 2" class="cls-2" d="M1108,1150v-2h28v3a5.948,5.948,0,0,0,1.56,4h-26.87A5.983,5.983,0,0,1,1108,1150Zm38.1-37h-29.68a4.988,4.988,0,0,1,4.58-3h26.27A6.967,6.967,0,0,0,1146.1,1113Z" transform="translate(-949 -1107)"/>
  <path id="Shape_8_copy_4" data-name="Shape 8 copy 4" class="cls-1" d="M1053,1157v-25a25,25,0,1,0,25-25h25v50h-50Zm25-13a29.8,29.8,0,0,1,15.91,4.59c-0.11.09-.22,0.18-0.32,0.28a41.1,41.1,0,0,0-12.9-2.86,24.386,24.386,0,0,0-15.44,5.11,24.846,24.846,0,0,1-3.16-2.53A29.778,29.778,0,0,1,1078,1144Zm23-12a22.894,22.894,0,0,1-5.69,15.11,31.874,31.874,0,0,0-34.62,0A22.991,22.991,0,1,1,1101,1132Zm-23-15a11,11,0,1,0,11,11A10.994,10.994,0,0,0,1078,1117Zm1,4a7.993,7.993,0,0,0-.5,15.97c-0.17.01-.33,0.03-0.5,0.03a9,9,0,1,1,9-9c0,0.17-.02.33-0.03,0.5A7.978,7.978,0,0,0,1079,1121Zm-26,11v-25h25A25,25,0,0,0,1053,1132Z" transform="translate(-949 -1107)"/>
  <path id="Shape_8_copy_3" data-name="Shape 8 copy 3" class="cls-2" d="M1078.45,1136.98c-4.21-.23-8.09-3.06-7.93-7.98,0.16-4.9,3.35-8.39,8.48-8.48,4.7-.07,7.74,3.73,7.98,7.94A9,9,0,0,1,1078.45,1136.98Zm2.24,8.63a27,27,0,0,1,12.95,3.21,22.858,22.858,0,0,1-28.49,2.22C1065.81,1149.9,1069.01,1145.74,1080.69,1145.61Z" transform="translate(-949 -1107)"/>
  <path id="Rounded_Rectangle_925_copy_3" data-name="Rounded Rectangle 925 copy 3" class="cls-1" d="M1003,1116a2.006,2.006,0,0,1,2-2h42a2.006,2.006,0,0,1,2,2v4h-46v-4Zm0,6h46v2h-44v5h-2v-7Zm44,28h-42a2.006,2.006,0,0,1-2-2v-17h46v17A2.006,2.006,0,0,1,1047,1150Zm-32-8h-5a1,1,0,0,0,0,2h5A1,1,0,0,0,1015,1142Zm10,0h-5a1,1,0,0,0,0,2h5A1,1,0,0,0,1025,1142Zm-24,15v-10a5,5,0,0,0,5,5h40a5,5,0,0,0,5-5v-30a5,5,0,0,0-5-5h-40a5,5,0,0,0-5,5v-10h50v50h-50Z" transform="translate(-949 -1107)"/>
  <rect id="Rectangle_742_copy" data-name="Rectangle 742 copy" class="cls-3" x="56" y="17" width="44" height="5"/>
  <path id="Rectangle_744_copy" data-name="Rectangle 744 copy" class="cls-1" d="M949,1157v-1c0,0.03.015,0.06,0.018,0.09a0.771,0.771,0,0,0,.157.44,0.525,0.525,0,0,0,.057.1,0.044,0.044,0,0,0,.025.02,0.832,0.832,0,0,0,.265.21,0.054,0.054,0,0,0,.029.02,0.865,0.865,0,0,0,.355.1h0.013a0.235,0.235,0,0,0,.081.02,1.067,1.067,0,0,0,.255-0.05,0.125,0.125,0,0,1,.059-0.01,1.841,1.841,0,0,0,.261-0.14c0.024-.02.054-0.03,0.077-0.05L956,1152.3l5.348,4.45c0.036,0.03.081,0.04,0.12,0.07a0.9,0.9,0,0,0,.15.08,1.381,1.381,0,0,0,.2.06,1.679,1.679,0,0,0,.366,0,1.42,1.42,0,0,0,.2-0.06,0.943,0.943,0,0,0,.15-0.08c0.039-.03.084-0.04,0.12-0.07L968,1152.3l5.348,4.45c0.036,0.03.081,0.04,0.12,0.07a0.943,0.943,0,0,0,.15.08,1.381,1.381,0,0,0,.2.06,1.111,1.111,0,0,0,.183.01,1.123,1.123,0,0,0,.183-0.01,1.369,1.369,0,0,0,.2-0.06,0.911,0.911,0,0,0,.151-0.08c0.039-.03.084-0.04,0.12-0.07l3.308-2.75h4.079l3.309,2.75c0.036,0.03.081,0.04,0.12,0.07a0.9,0.9,0,0,0,.15.08,1.381,1.381,0,0,0,.2.06,1.679,1.679,0,0,0,.366,0,1.369,1.369,0,0,0,.2-0.06,0.911,0.911,0,0,0,.151-0.08c0.039-.03.084-0.04,0.12-0.07l3.308-2.75h4.079l3.309,2.75c0.023,0.02.052,0.03,0.077,0.05a1.788,1.788,0,0,0,.261.14,0.119,0.119,0,0,1,.058.01,1.085,1.085,0,0,0,.256.05,0.235,0.235,0,0,0,.08-0.02h0.013a0.861,0.861,0,0,0,.355-0.1,0.053,0.053,0,0,0,.03-0.02,0.829,0.829,0,0,0,.264-0.21,0.046,0.046,0,0,0,.026-0.02c0.026-.03.035-0.07,0.057-0.1a0.926,0.926,0,0,0,.106-0.19,0.888,0.888,0,0,0,.05-0.25c0-.03.019-0.06,0.019-0.09v-0.08a0.034,0.034,0,0,1,0-.01V1110a3,3,0,0,0-3-3h3v50H949Zm36.159-3h1.682l-0.841.7ZM997,1110v2H975a1,1,0,0,0-1,1v9h-3a1,1,0,0,0,0,2h3v5h-3a1,1,0,0,0,0,2h3v5h-3a1,1,0,0,0,0,2h3v16h0.841l-0.841.7-5.35-4.45a0.514,0.514,0,0,0-.11-0.06,0.575,0.575,0,0,0-.164-0.09,0.636,0.636,0,0,0-.19-0.05,0.584,0.584,0,0,0-.186-0.02,0.593,0.593,0,0,0-.187.02,0.652,0.652,0,0,0-.19.05,0.6,0.6,0,0,0-.164.09,0.567,0.567,0,0,0-.11.06L962,1154.7l-5.35-4.45a0.514,0.514,0,0,0-.11-0.06,0.575,0.575,0,0,0-.164-0.09,0.636,0.636,0,0,0-.19-0.05,0.875,0.875,0,0,0-.372,0,0.65,0.65,0,0,0-.191.05,0.6,0.6,0,0,0-.164.09,0.567,0.567,0,0,0-.11.06L951,1153.87V1110a1,1,0,0,1,1-1h44A1,1,0,0,1,997,1110Zm-31,12h-4a1,1,0,0,0,0,2h4A1,1,0,0,0,966,1122Zm0,7h-4a1,1,0,0,0,0,2h4A1,1,0,0,0,966,1129Zm0,7h-4a1,1,0,0,0,0,2h4A1,1,0,0,0,966,1136Zm-17-26v-3h3A3,3,0,0,0,949,1110Z" transform="translate(-949 -1107)"/>
  <path id="Rectangle_744_copy_3" data-name="Rectangle 744 copy 3" class="cls-2" d="M992.65,1150.25a0.514,0.514,0,0,0-.11-0.06,0.575,0.575,0,0,0-.164-0.09,0.636,0.636,0,0,0-.19-0.05,0.875,0.875,0,0,0-.372,0,0.65,0.65,0,0,0-.191.05,0.6,0.6,0,0,0-.164.09,0.567,0.567,0,0,0-.11.06L986,1154.7l-5.349-4.45a0.546,0.546,0,0,0-.111-0.06,0.575,0.575,0,0,0-.164-0.09,0.644,0.644,0,0,0-.19-0.05,0.584,0.584,0,0,0-.186-0.02,0.593,0.593,0,0,0-.187.02,0.652,0.652,0,0,0-.19.05,0.6,0.6,0,0,0-.164.09,0.567,0.567,0,0,0-.11.06L974,1154.7V1138h12a1,1,0,0,0,0-2H974v-5h12a1,1,0,0,0,0-2H974v-5h12a1,1,0,0,0,0-2H974v-9h0v-1h23v41.87Zm-9.409,4.75h-6.482l3.241-2.7Zm12,0h-6.482l3.241-2.7Z" transform="translate(-949 -1107)"/>
</svg>
