<svg id="Спрайт" xmlns="http://www.w3.org/2000/svg" width="52.031" height="34" viewBox="0 0 52.031 34">
  <defs>
    <style>
      .cls-1 {
        fill: #b8b8b8;
      }

      .cls-1, .cls-2 {
        fill-rule: evenodd;
      }

      .cls-2 {
        fill: #fff;
      }
    </style>
  </defs>
  <path id="Rounded_Rectangle_702_copy_7" data-name="Rounded Rectangle 702 copy 7" class="cls-1" d="M244.692,752.291a1,1,0,0,0-1.415,0L240,755.6l-3.305-3.308a1,1,0,1,0-1.414,1.413l4.016,4.018a1,1,0,0,0,1.414,0l3.985-4.018A1,1,0,0,0,244.692,752.291Z" transform="translate(-235 -747)"/>
  <path id="Rounded_Rectangle_818_copy_11" data-name="Rounded Rectangle 818 copy 11" class="cls-1" d="M287.017,751.005h0l-0.027,5.043a0.983,0.983,0,0,1-.989.99,1,1,0,0,1-1-1l0.014-2.672-6.327,6.352a1,1,0,1,1-1.415-1.414L283.563,752l-2.579,0a1,1,0,0,1-1-1,0.985,0.985,0,0,1,.989-0.99l4.771,0a1.01,1.01,0,0,1,1.269.961v0.036h0Z" transform="translate(-235 -747)"/>
  <path id="Rounded_Rectangle_853_copy" data-name="Rounded Rectangle 853 copy" class="cls-1" d="M256.717,755.686l-4.027,4.031c-0.006.006-.015,0.008-0.021,0.014a1.007,1.007,0,0,1-.29.191h0a0.973,0.973,0,0,1-.52.06,0.79,0.79,0,0,1-.106-0.02,0.968,0.968,0,0,1-.473-0.245l-3.993-4.031a0.984,0.984,0,0,1,0-1.4,1,1,0,0,1,1.41,0l2.3,2.325V749a1,1,0,0,1,2,0v7.6l2.308-2.31a1,1,0,0,1,1.409,0A0.986,0.986,0,0,1,256.717,755.686ZM248,761h8a1,1,0,0,1,0,2h-8A1,1,0,0,1,248,761Z" transform="translate(-235 -747)"/>
  <path id="Rounded_Rectangle_870_copy_2" data-name="Rounded Rectangle 870 copy 2" class="cls-1" d="M273,763h-3v-2h3v-3h2v3A2,2,0,0,1,273,763Zm0-14h-3v-2h3a2,2,0,0,1,2,2v3h-2v-3Zm-2,3v6a1,1,0,0,1-1,1h-6a1,1,0,0,1-1-1v-6a1,1,0,0,1,1-1h6A1,1,0,0,1,271,752Zm-2,1h-4v4h4v-4Zm-8-1h-2v-3a2,2,0,0,1,2-2h3v2h-3v3Zm0,9h3v2h-3a2,2,0,0,1-2-2v-3h2v3Z" transform="translate(-235 -747)"/>
  <path id="Rounded_Rectangle_702_copy_9" data-name="Rounded Rectangle 702 copy 9" class="cls-2" d="M244.692,770.291a1,1,0,0,0-1.415,0L240,773.6l-3.305-3.308a1,1,0,1,0-1.414,1.413l4.016,4.018a1,1,0,0,0,1.414,0l3.985-4.018A1,1,0,0,0,244.692,770.291Z" transform="translate(-235 -747)"/>
  <path id="Rounded_Rectangle_818_copy_12" data-name="Rounded Rectangle 818 copy 12" class="cls-2" d="M287.017,769.005h0l-0.027,5.043a0.983,0.983,0,0,1-.989.99,1,1,0,0,1-1-1l0.014-2.672-6.327,6.352a1,1,0,1,1-1.415-1.414L283.563,770l-2.579,0a1,1,0,0,1-1-1,0.985,0.985,0,0,1,.989-0.99l4.771,0a1.01,1.01,0,0,1,1.269.961v0.036h0Z" transform="translate(-235 -747)"/>
  <path id="Rounded_Rectangle_853_copy_2" data-name="Rounded Rectangle 853 copy 2" class="cls-2" d="M256.717,773.686l-4.027,4.031c-0.006.006-.015,0.008-0.021,0.014a1.007,1.007,0,0,1-.29.191h0a0.973,0.973,0,0,1-.52.06,0.79,0.79,0,0,1-.106-0.02,0.968,0.968,0,0,1-.473-0.245l-3.993-4.031a0.984,0.984,0,0,1,0-1.4,1,1,0,0,1,1.41,0l2.3,2.325V767a1,1,0,0,1,2,0v7.6l2.308-2.31a1,1,0,0,1,1.409,0A0.986,0.986,0,0,1,256.717,773.686ZM248,779h8a1,1,0,0,1,0,2h-8A1,1,0,0,1,248,779Z" transform="translate(-235 -747)"/>
  <path id="Rounded_Rectangle_870_copy_3" data-name="Rounded Rectangle 870 copy 3" class="cls-2" d="M273,781h-3v-2h3v-3h2v3A2,2,0,0,1,273,781Zm0-14h-3v-2h3a2,2,0,0,1,2,2v3h-2v-3Zm-2,3v6a1,1,0,0,1-1,1h-6a1,1,0,0,1-1-1v-6a1,1,0,0,1,1-1h6A1,1,0,0,1,271,770Zm-2,1h-4v4h4v-4Zm-8-1h-2v-3a2,2,0,0,1,2-2h3v2h-3v3Zm0,9h3v2h-3a2,2,0,0,1-2-2v-3h2v3Z" transform="translate(-235 -747)"/>
</svg>
