<svg xmlns="http://www.w3.org/2000/svg" width="11.938" height="12.03" viewBox="0 0 11.938 12.03">
  <defs>
    <style>
      .cls-1 {
        fill: #333;
        fill-rule: evenodd;
      }
    </style>
  </defs>
  <path class="cls-1" d="M774.684,8111l2.5-.33a2.907,2.907,0,0,0,2.1-2.27,2.135,2.135,0,0,0-.369-2.07,2.151,2.151,0,0,1,2.866.48c0.59,0.82-.145,2.87-0.145,2.87s-0.489.35,0.394,0.34c1.69-.04,4.317-0.05,3.845,2.11-0.545,2.49-.6,3.1-1.007,4.51a1.562,1.562,0,0,1-1.678,1.32c-0.307,0-2.474.09-4.5,0.01-1.016-.04-1.827-0.95-2.282-0.96a10.314,10.314,0,0,0-1.718-.01l-0.684-.76v-4.45Z" transform="translate(-774 -8105.97)"/>
</svg>
