<svg xmlns="http://www.w3.org/2000/svg" width="10" height="10" viewBox="0 0 10 10"><path id="Rounded_Rectangle_892_copy" data-name="Rounded Rectangle 892 copy" class="cls-1" d="M1263.5,667h-3a0.5,0.5,0,0,1,0-1h1.94a3.973,3.973,0,0,0-7.3,1h-1.04a4.984,4.984,0,0,1,8.9-1.971V663.5a0.5,0.5,0,0,1,1,0v3A0.5,0.5,0,0,1,1263.5,667Zm-9,2h3a0.5,0.5,0,0,1,0,1h-1.95a3.98,3.98,0,0,0,7.31-1h1.04a4.985,4.985,0,0,1-8.9,1.972V672.5a0.5,0.5,0,0,1-1,0v-3A0.5,0.5,0,0,1,1254.5,669Z" transform="translate(-1254 -663)"/></svg>