<svg xmlns="http://www.w3.org/2000/svg" width="16" height="16" viewBox="0 0 16 16">
  <defs>
    <style>
      .cls-1 {
        fill: #999;
        fill-rule: evenodd;
      }
    </style>
  </defs>
  <path class="cls-1" d="M975.973,719.735A1.9,1.9,0,0,1,976,720v4a2,2,0,0,1-2,2H964a2,2,0,0,1-2-2v-4a2.071,2.071,0,0,1,.026-0.264A1.993,1.993,0,0,1,961,718v-2a2,2,0,0,1,2-2h1.184a2.962,2.962,0,0,1-.184-1,5.385,5.385,0,0,1,10,0,2.962,2.962,0,0,1-.184,1H975a2,2,0,0,1,2,2v2A1.992,1.992,0,0,1,975.973,719.735ZM974,724v-4h-4v4h4Zm-10,0h4v-4h-4v4Zm-1-8v2h5v-2h-5Zm5-3h0a1,1,0,1,0-1,1h1v-1Zm3-1a1,1,0,0,0-1,1h0v1h1A1,1,0,0,0,971,712Zm4,4h-5v2h5v-2Z" transform="translate(-961 -710)"/>
</svg>
