<svg width="0" height="0" class="hidden">
    <symbol xmlns="http://www.w3.org/2000/svg" viewBox="0 0 16 16" id="info_big">
        <path fill-rule="evenodd" d="M1338,932a8,8,0,1,1-8,8A8,8,0,0,1,1338,932Zm0,2a6,6,0,1,1-6,6A6,6,0,0,1,1338,934Zm0,5a1,1,0,0,1,1,1v3a1,1,0,0,1-2,0v-3A1,1,0,0,1,1338,939Zm0-3a1,1,0,1,1-1,1A1,1,0,0,1,1338,936Z" transform="translate(-1330 -932)" />
    </symbol>
    <symbol viewBox="0 0 19 16" xmlns="http://www.w3.org/2000/svg" id="similar-19-16">
        <path d="M1.41421 8H4.58579C5.47669 8 5.92286 6.92286 5.29289 6.29289L3.70711 4.70711C3.31658 4.31658 2.68342 4.31658 2.29289 4.70711L0.707107 6.29289C0.0771422 6.92286 0.523309 8 1.41421 8Z"/>
        <path d="M14 12.2178L14.68 11.4846C14.2899 11.1228 13.6849 11.1298 13.3033 11.5005L14 12.2178ZM16.32 15.7332C16.725 16.1088 17.3577 16.0849 17.7332 15.68C18.1088 15.275 18.0849 14.6423 17.68 14.2668L16.32 15.7332ZM2 8C2 9.26772 2.60531 10.9915 3.80056 12.3976C5.02695 13.8405 6.91857 15 9.5 15V13C7.58143 13 6.22305 12.1595 5.32444 11.1024C4.39469 10.0085 4 8.73228 4 8H2ZM9.5 15C11.7438 15 13.4742 14.1226 14.6967 12.9351L13.3033 11.5005C12.4201 12.3583 11.178 13 9.5 13V15ZM13.32 12.951L16.32 15.7332L17.68 14.2668L14.68 11.4846L13.32 12.951Z"/>
        <path d="M17.5858 7H14.4142C13.5233 7 13.0771 8.07714 13.7071 8.70711L15.2929 10.2929C15.6834 10.6834 16.3166 10.6834 16.7071 10.2929L18.2929 8.70711C18.9229 8.07714 18.4767 7 17.5858 7Z"/>
        <path d="M4.30327 2.06486C3.9071 2.44966 3.89788 3.08275 4.28267 3.47892C4.66747 3.87509 5.30057 3.88431 5.69673 3.49952L4.30327 2.06486ZM17 7C17 5.73228 16.3947 4.00853 15.1994 2.60235C13.9731 1.15954 12.0814 0 9.5 0V2C11.4186 2 12.7769 2.84046 13.6756 3.89765C14.6053 4.99147 15 6.26772 15 7H17ZM9.5 0C7.25617 0 5.52579 0.87743 4.30327 2.06486L5.69673 3.49952C6.57993 2.64168 7.82197 2 9.5 2V0Z"/>
    </symbol>
</svg>