<svg xmlns="http://www.w3.org/2000/svg" width="22" height="28" viewBox="0 0 22 28"><path id="Rounded_Rectangle_1064_copy_2" data-name="Rounded Rectangle 1064 copy 2" class="cls-1" d="M1350.98,296.12a0.765,0.765,0,0,1-.06.256c-0.01.036-.04,0.063-0.05,0.1a1,1,0,0,1-.14.217l-14.89,15.883c-0.02.03-.05,0.049-0.07,0.076l-0.02.023s-0.01,0-.01,0a0.991,0.991,0,0,1-.93.339,1.006,1.006,0,0,1-.81-1.171l1.78-8.842H1330a1,1,0,0,1-1-1,0.991,0.991,0,0,1,.31-0.719l14.96-15.949c0.01-.011.02-0.014,0.03-0.025a1,1,0,0,1,.9-0.306,1.007,1.007,0,0,1,.81,1.172L1344.23,295H1350a0.986,0.986,0,0,1,.97.84,0.738,0.738,0,0,1,.03.144V296C1351,296.043,1350.98,296.079,1350.98,296.12Zm-7.75.88a1.009,1.009,0,0,1-.42.013,0.983,0.983,0,0,1-.8-0.978c0-.012-0.01-0.023-0.01-0.035s0.01-.019.01-0.03c0-.043-0.01-0.084-0.01-0.128l1.33-6.591L1332.31,301H1337c0.01,0,.01,0,0.02,0a0.984,0.984,0,0,1,.18,0,1.007,1.007,0,0,1,.81,1.172l-1.33,6.579L1347.7,297h-4.47Z" transform="translate(-1329 -285)"/></svg>