<svg xmlns="http://www.w3.org/2000/svg" width="16" height="16" viewBox="0 0 16 16">
  <defs>
    <style>
      .cls-1 {
        fill: #999;
        fill-rule: evenodd;
      }
    </style>
  </defs>
  <path id="Rounded_Rectangle_937" data-name="Rounded Rectangle 937" class="cls-1" d="M1338,932a8,8,0,1,1-8,8A8,8,0,0,1,1338,932Zm0,2a6,6,0,1,1-6,6A6,6,0,0,1,1338,934Zm0,5a1,1,0,0,1,1,1v3a1,1,0,0,1-2,0v-3A1,1,0,0,1,1338,939Zm0-3a1,1,0,1,1-1,1A1,1,0,0,1,1338,936Z" transform="translate(-1330 -932)"/>
</svg>
