<svg xmlns="http://www.w3.org/2000/svg" width="8" height="10" viewBox="0 0 8 10">
  <defs>
    <style>
      .cls-1 {
        fill: #333;
        fill-rule: evenodd;
      }
    </style>
  </defs>
  <path id="Ellipse_304_copy" data-name="Ellipse 304 copy" class="cls-1" d="M1221.08,3655.52l0.02,0.03-2.95,3.45h-0.3l-2.95-3.45,0.02-.03a3.937,3.937,0,0,1-.92-2.52,4,4,0,0,1,8,0A3.937,3.937,0,0,1,1221.08,3655.52ZM1218,3651a2.006,2.006,0,0,0-2,2,2.043,2.043,0,0,0,.38,1.17l-0.01.02,1.63,2.06,1.66-2.09-0.02-.03a1.925,1.925,0,0,0,.36-1.13A2.006,2.006,0,0,0,1218,3651Z" transform="translate(-1214 -3649)"/>
</svg>
