<svg xmlns="http://www.w3.org/2000/svg" width="15" height="15" viewBox="0 0 15 15">
  <defs>
    <style>
      .cls-1 {
        fill: #333;
        fill-rule: evenodd;
      }
    </style>
  </defs>
  <path id="facebook_copy_27" data-name="facebook copy 27" class="cls-1" d="M969,725h-2.988v-5.014l2.374,0,0.31-2.007h-2.684s0-2.285,0-2.51a0.562,0.562,0,0,1,.671-0.486c0.439,0,1.305,0,1.305,0L968.3,713a15.907,15.907,0,0,0-2.4.018,2.251,2.251,0,0,0-1.427.784,2.457,2.457,0,0,0-.477,1.6v2.591l-2-.014v2.007l2,0.007V725h-4a3,3,0,0,1-3-3v-9a3,3,0,0,1,3-3h9a3,3,0,0,1,3,3v9A3,3,0,0,1,969,725Z" transform="translate(-957 -710)"/>
</svg>
