<svg width="97" height="36" viewBox="0 0 97 36" fill="none" xmlns="http://www.w3.org/2000/svg">
<path fill-rule="evenodd" clip-rule="evenodd" d="M1.12471 1.12471C0 2.24942 0 4.0596 0 7.68V8.32C0 11.9404 0 13.7506 1.12471 14.8753C2.24942 16 4.0596 16 7.68 16H8.32C11.9404 16 13.7506 16 14.8753 14.8753C16 13.7506 16 11.9404 16 8.32V7.68C16 4.0596 16 2.24942 14.8753 1.12471C13.7506 0 11.9404 0 8.32 0H7.68C4.0596 0 2.24942 0 1.12471 1.12471Z" fill="#0077FF"/>
<path fill-rule="evenodd" clip-rule="evenodd" d="M2.69995 4.8667C2.78662 9.0267 4.86659 11.5267 8.51325 11.5267H8.71998V9.1467C10.06 9.28003 11.0732 10.26 11.4799 11.5267H13.3733C12.8533 9.63337 11.4866 8.5867 10.6332 8.1867C11.4866 7.69337 12.6866 6.49337 12.9732 4.8667H11.2532C10.8799 6.1867 9.77332 7.3867 8.71998 7.50003V4.8667H6.99992V9.48003C5.93325 9.21336 4.58662 7.92003 4.52662 4.8667H2.69995Z" fill="white"/>
<path fill-rule="evenodd" clip-rule="evenodd" d="M25.8333 0C22.6117 0 20 2.50721 20 5.6V10.4C20 13.4928 22.6117 16 25.8333 16H34.1667C37.3883 16 40 13.4928 40 10.4V5.6C40 2.50721 37.3883 0 34.1667 0H25.8333Z" fill="#FC0017"/>
<path fill-rule="evenodd" clip-rule="evenodd" d="M34 8L27 5V11L34 8Z" fill="white"/>
<path fill-rule="evenodd" clip-rule="evenodd" d="M52.5223 4.13463C52.5223 6.4124 50.7242 8.26928 48.5186 8.26928C46.2891 8.26928 44.491 6.4124 44.491 4.13463C44.491 1.85688 46.2891 0 48.5186 0C50.7242 0 52.5223 1.85688 52.5223 4.13463ZM50.1728 4.13463C50.1728 3.19382 49.4296 2.42631 48.5186 2.42631C47.5836 2.42631 46.8405 3.19382 46.8644 4.13463C46.8644 5.07545 47.6076 5.84296 48.5186 5.84296C49.4296 5.84296 50.1728 5.07545 50.1728 4.13463Z" fill="#EE8208"/>
<path d="M52.4504 10.6708C51.7311 11.1412 50.94 11.4631 50.1249 11.6611L52.4024 13.939C52.8579 14.4093 52.8579 15.1768 52.4024 15.6472C51.9469 16.1176 51.2037 16.1176 50.7482 15.6472L48.5426 13.3695L46.337 15.6472C46.0973 15.87 45.8096 15.9938 45.4979 15.9938C45.1863 15.9938 44.8986 15.8949 44.6588 15.6472C44.2033 15.1768 44.2033 14.4093 44.6588 13.939L46.8884 11.6364C46.0733 11.4383 45.2822 11.1165 44.563 10.6461C44.0116 10.2994 43.8437 9.55671 44.1554 8.98726C44.515 8.41782 45.2342 8.26928 45.7856 8.61589C47.4158 9.68049 49.5495 9.68049 51.1797 8.61589C51.7311 8.24451 52.4743 8.41782 52.81 8.98726C53.1696 9.55671 53.0018 10.3242 52.4504 10.6708Z" fill="#EE8208"/>
<path fill-rule="evenodd" clip-rule="evenodd" d="M58.3749 6.8879C63.7436 4.62993 67.3236 3.14133 69.1148 2.42212C74.2292 0.36862 75.2919 0.0119045 75.9846 0.00012559C76.1369 -0.00246506 76.4776 0.0339819 76.6982 0.206816C76.8845 0.352754 76.9358 0.549895 76.9603 0.68826C76.9848 0.826626 77.0154 1.14183 76.9911 1.38811C76.714 4.1992 75.5147 11.021 74.9046 14.1694C74.6465 15.5017 74.1382 15.9484 73.6461 15.9921C72.5766 16.0871 71.7645 15.3098 70.7287 14.6543C69.1078 13.6287 68.1921 12.9902 66.6188 11.9893C64.8005 10.8327 65.9792 10.1969 67.0154 9.15799C67.2866 8.88609 71.9987 4.74868 72.0899 4.37335C72.1013 4.32641 72.1119 4.15143 72.0042 4.05904C71.8965 3.96664 71.7376 3.99824 71.6229 4.02337C71.4604 4.05898 68.871 5.71112 63.8549 8.97978C63.1199 9.46697 62.4542 9.70435 61.8577 9.69191C61.2001 9.6782 59.9353 9.33301 58.995 9.03795C57.8417 8.67605 56.925 8.48471 57.0048 7.87009C57.0464 7.54996 57.5031 7.22256 58.3749 6.8879Z" fill="#24A1DE"/>
<path d="M97 8C97 3.58172 93.4183 0 89 0C84.5817 0 81 3.58172 81 8C81 12.4183 84.5817 16 89 16C93.4183 16 97 12.4183 97 8Z" fill="white"/>
<path d="M89 16C93.4183 16 97 12.4183 97 8C97 3.58172 93.4183 0 89 0C84.5817 0 81 3.58172 81 8C81 12.4183 84.5817 16 89 16Z" fill="#222222"/>
<path d="M96.9965 8.23995C96.9988 8.16025 97 8.08026 97 8C97 7.91974 96.9988 7.83975 96.9965 7.76006C93.7564 7.7195 91.9345 7.49751 90.7185 6.28146C89.5025 5.06546 89.2805 3.24362 89.2399 0.00352957C89.1603 0.00118201 89.0803 0 89 0C88.9197 0 88.8397 0.00118201 88.7601 0.00352956C88.7195 3.24362 88.4975 5.06546 87.2815 6.28146C86.0655 7.49752 84.2436 7.71955 81.0035 7.76006C81.0012 7.83975 81 7.91974 81 8C81 8.08026 81.0012 8.16025 81.0035 8.23994C84.2436 8.2805 86.0655 8.50254 87.2815 9.71854C88.4975 10.9345 88.7195 12.7564 88.7601 15.9965C88.8397 15.9988 88.9197 16 89 16C89.0803 16 89.1603 15.9988 89.2399 15.9965C89.2805 12.7564 89.5025 10.9345 90.7185 9.71854C91.9345 8.50254 93.7564 8.2805 96.9965 8.23995Z" fill="white"/>
<path fill-rule="evenodd" clip-rule="evenodd" d="M0 27.68C0 24.0596 0 22.2494 1.12471 21.1247C2.24942 20 4.0596 20 7.67999 20H8.32001C11.9404 20 13.7506 20 14.8753 21.1247C16 22.2494 16 24.0596 16 27.68V28.32C16 31.9404 16 33.7506 14.8753 34.8753C13.7506 36 11.9404 36 8.32001 36H7.67999C4.0596 36 2.24942 36 1.12471 34.8753C0 33.7506 0 31.9404 0 28.32V27.68ZM8.51324 31.5267C4.86659 31.5267 2.78662 29.0267 2.69995 24.8667H4.52663C4.58662 27.92 5.93326 29.2134 6.99992 29.48V24.8667H8.71999V27.5C9.77332 27.3867 10.8799 26.1867 11.2532 24.8667H12.9732C12.6866 26.4934 11.4866 27.6934 10.6332 28.1867C11.4866 28.5867 12.8533 29.6334 13.3733 31.5267H11.4799C11.0732 30.26 10.06 29.28 8.71999 29.1467V31.5267H8.51324Z" fill="white"/>
</svg>
