<svg width="20" height="20" viewBox="0 0 20 20" fill="none" xmlns="http://www.w3.org/2000/svg">
<path fill-rule="evenodd" clip-rule="evenodd" d="M7.167 4.85068C7.509 5.40527 8.27613 6.74278 8.38705 6.9868C8.48189 7.14856 8.51173 7.34027 8.47054 7.5232C8.42936 7.70613 8.32023 7.8666 8.16522 7.9721C7.8637 8.15492 7.58181 8.36836 7.32406 8.60898C7.19466 8.85577 7.07451 9.8106 8.49796 11.2276C9.9214 12.6445 11.0675 12.9311 11.3633 12.614C11.6591 12.297 11.8348 11.9467 12.0197 11.7618C12.1545 11.6152 12.3393 11.5243 12.5378 11.5072C12.7362 11.4901 12.9339 11.5479 13.0918 11.6694C13.8751 12.0833 14.6316 12.5464 15.3564 13.0558C15.8093 13.4052 16.1513 13.6594 15.9849 14.1132C15.8323 14.5675 15.5797 14.9816 15.2455 15.325C14.9734 15.5955 14.6384 15.7943 14.2706 15.9036C13.9029 16.013 13.5137 16.0295 13.138 15.9517C12.0671 15.6888 11.0504 15.2405 10.134 14.6272C9.16142 13.9312 8.2576 13.1438 7.43497 12.2757C6.68299 11.5367 5.99358 10.7365 5.37377 9.88358C4.76503 8.86569 4.325 7.75606 4.07057 6.59765C3.98546 6.29184 3.97719 5.96978 4.04653 5.66002C4.11587 5.35025 4.2606 5.06242 4.46796 4.82207C4.83781 4.43855 5.30899 4.16795 5.82667 4.0419C6.18716 3.94762 6.59392 3.94762 7.167 4.85068ZM10.0231 4.99764V3.99756C11.6165 3.99756 13.1447 4.63055 14.2714 5.75728C15.3982 6.88401 16.0312 8.41217 16.0312 10.0056H15.0329C15.0322 8.67732 14.5041 7.40368 13.5647 6.46462C12.6252 5.52555 11.3514 4.99788 10.0231 4.99764V4.99764ZM14.0253 10.0047H13.0271C13.0264 9.20821 12.7097 8.44453 12.1465 7.88133C11.5833 7.31813 10.8196 7.00141 10.0231 7.00068V5.99964C10.5489 5.99988 11.0695 6.10368 11.5552 6.30513C12.041 6.50658 12.4823 6.80172 12.8539 7.17371C13.2256 7.5457 13.5203 7.98723 13.7213 8.47313C13.9223 8.95903 14.0256 9.47978 14.0253 10.0056V10.0047Z" fill="#333333"/>
</svg>
