<svg width="50" height="50" viewBox="0 0 50 50" fill="none" xmlns="http://www.w3.org/2000/svg">
<path fill-rule="evenodd" clip-rule="evenodd" d="M40.266 40.266C46.1373 36.3154 50 29.6088 50 22C50 9.84974 40.1503 0 28 0C20.3912 0 13.6846 3.86266 9.73403 9.73404C3.86265 13.6846 0 20.3912 0 28C0 40.1503 9.84974 50 22 50C29.6088 50 36.3154 46.1373 40.266 40.266ZM42.6438 35.6221C45.9671 32.0511 48 27.263 48 22C48 10.9543 39.0457 2 28 2C22.737 2 17.9489 4.03286 14.3779 7.35622C16.7527 6.47907 19.3204 6 22 6C34.1503 6 44 15.8497 44 28C44 30.6796 43.5209 33.2473 42.6438 35.6221ZM42 28C42 39.0457 33.0457 48 22 48C10.9543 48 2 39.0457 2 28C2 16.9543 10.9543 8 22 8C33.0457 8 42 16.9543 42 28Z" fill="#307EDD"/>
<path opacity="0.1" d="M24 47C33.9411 47 42 39.165 42 29.5C42 19.835 33.9411 12 24 12C14.0589 12 6 19.835 6 29.5C6 39.165 14.0589 47 24 47Z" fill="#307EDD"/>
<path d="M16 37V19H27.0967V21.041H18V25.9785H22.895C24.2118 25.9785 25.3221 26.2012 26.2258 26.6465C27.1356 27.0918 27.8239 27.7196 28.2907 28.5298C28.7636 29.34 29 30.2956 29 31.3965C29 32.4974 28.7636 33.4684 28.2907 34.3096C27.8239 35.1507 27.1356 35.8094 26.2258 36.2856C25.3221 36.7619 24.2118 37 22.895 37H16ZM18 34.9961H23.0856C23.9236 34.9961 24.6328 34.8229 25.2134 34.4766C25.8 34.124 26.0523 33.6725 26.3515 33.1221C26.6568 32.5654 27 31.9779 27 31.3594C27 30.4502 26.6618 29.6678 25.9855 29.0122C25.3092 28.3504 24.3425 28.0195 23.0856 28.0195H18V34.9961Z" fill="#307EDD"/>
</svg>
