<svg id="Group_192_copy_3" data-name="Group 192 copy 3" xmlns="http://www.w3.org/2000/svg" width="50" height="50" viewBox="0 0 50 50">
  <defs>
    <style>
      .cls-1, .cls-2 {
        fill: #307edd;
      }

      .cls-1 {
        fill-rule: evenodd;
      }

      .cls-2 {
        opacity: 0.1;
      }
    </style>
  </defs>
  <path id="Rounded_Rectangle_926_copy" data-name="Rounded Rectangle 926 copy" class="cls-1" d="M1490,789h-10a1,1,0,0,1,0-2h7.17a22.994,22.994,0,0,0-44.07,7H1443a1,1,0,0,1-2,0,0.946,0.946,0,0,1,.17-0.521A24.948,24.948,0,0,1,1489,786.3V778a1,1,0,1,1,2,0v10A1,1,0,0,1,1490,789Zm-13,7a1,1,0,0,1-1,1h-8l4.8,6.426a1,1,0,0,1-.2,1.4,1.012,1.012,0,0,1-1.41-.205l-5.19-6.945-5.19,6.945a1.012,1.012,0,0,1-1.41.205,1,1,0,0,1-.2-1.4L1464,797h-8a1,1,0,0,1,0-2h8l-4.8-6.427a1,1,0,0,1,.2-1.4,1.012,1.012,0,0,1,1.41.206l5.19,6.944,5.19-6.944a1.012,1.012,0,0,1,1.41-.206,1,1,0,0,1,.2,1.4L1468,795h8A1,1,0,0,1,1477,796Zm-35,7h10a1,1,0,0,1,0,2h-7.17a22.994,22.994,0,0,0,44.07-7h0.1a1,1,0,0,1,2,0,0.949,0.949,0,0,1-.17.521A24.947,24.947,0,0,1,1443,805.7V814a1,1,0,1,1-2,0V804A1,1,0,0,1,1442,803Z" transform="translate(-1441 -771)"/>
  <circle class="cls-2" cx="28" cy="28" r="20"/>
</svg>
