<svg id="Group_191_copy_3" data-name="Group 191 copy 3" xmlns="http://www.w3.org/2000/svg" width="50" height="50" viewBox="0 0 50 50">
  <defs>
    <style>
      .cls-1, .cls-2 {
        fill: #307edd;
        fill-rule: evenodd;
      }

      .cls-2 {
        opacity: 0.1;
      }
    </style>
  </defs>
  <path id="Rounded_Rectangle_945" data-name="Rounded Rectangle 945" class="cls-1" d="M1120,615h-44a3,3,0,0,1-3-3V568a3,3,0,0,1,3-3h13a3.006,3.006,0,0,1,2.82,2H1120a3,3,0,0,1,3,3v42A3,3,0,0,1,1120,615Zm-14-46h-14v10h14V569Zm15,9.184V570a1,1,0,0,0-1-1h-12v10h13v-0.816Zm0,14.632V581h-30a1,1,0,0,1-1-1V568a1,1,0,0,0-1-1h-13a1,1,0,0,0-1,1v44a1,1,0,0,0,1,1h44a1,1,0,0,0,1-1V592.816ZM1114,601h-16a1,1,0,0,1,0-2h16A1,1,0,0,1,1114,601Zm0-6h-16a1,1,0,0,1,0-2h16A1,1,0,0,1,1114,595Zm0-6h-16a1,1,0,0,1,0-2h16A1,1,0,0,1,1114,589Zm-27,12a7,7,0,1,1,7-7A7,7,0,0,1,1087,601Zm0-12a5,5,0,1,0,5,5A5,5,0,0,0,1087,589Zm11,16h10a1,1,0,0,1,0,2h-10A1,1,0,0,1,1098,605Z" transform="translate(-1073 -565)"/>
  <path class="cls-2" d="M1088.5,591a4.5,4.5,0,1,1-4.5,4.5A4.5,4.5,0,0,1,1088.5,591Zm5.5-20h27v8h-27v-8Z" transform="translate(-1073 -565)"/>
</svg>
