<svg id="Group_189_copy_3" data-name="Group 189 copy 3" xmlns="http://www.w3.org/2000/svg" width="50" height="50" viewBox="0 0 50 50">
  <defs>
    <style>
      .cls-1, .cls-2 {
        fill: #1d7ce6;
        fill-rule: evenodd;
      }

      .cls-2 {
        opacity: 0.1;
      }
    </style>
  </defs>
  <path id="Ellipse_282_copy" data-name="Ellipse 282 copy" class="cls-1" d="M1466,407a25,25,0,1,1,25-25A25,25,0,0,1,1466,407Zm15.91-8.412a29.891,29.891,0,0,0-31.82,0A22.939,22.939,0,0,0,1481.91,398.587ZM1466,359a22.975,22.975,0,0,0-17.31,38.111,31.861,31.861,0,0,1,34.62,0A22.976,22.976,0,0,0,1466,359Zm0,30a11,11,0,1,1,11-11A11,11,0,0,1,1466,389Zm0-20a9,9,0,1,0,9,9A9,9,0,0,0,1466,369Z" transform="translate(-1441 -357)"/>
  <path id="Shape_8_copy" data-name="Shape 8 copy" class="cls-2" d="M1467,387a8,8,0,1,1,8-8A8,8,0,0,1,1467,387Zm16,12.429c-1.57.959-5.57,3.347-8.45,4.675a27.626,27.626,0,0,1-7.1,1.829c-0.58.031-1.17,0.054-1.76,0.053a25.927,25.927,0,0,1-7.27-.9c-1.41-.712-3.11-1.683-4.55-2.534a7,7,0,0,1-.88-1.218,24.247,24.247,0,0,1,15.7-5.325A42.794,42.794,0,0,1,1483,399.429Z" transform="translate(-1441 -357)"/>
</svg>
