<svg id="Group_187_copy_2" data-name="Group 187 copy 2" xmlns="http://www.w3.org/2000/svg" width="50" height="50" viewBox="0 0 50 50">
  <defs>
    <style>
      .cls-1, .cls-2 {
        fill: #307edd;
        fill-rule: evenodd;
      }

      .cls-2 {
        opacity: 0.1;
      }
    </style>
  </defs>
  <path id="Rounded_Rectangle_949" data-name="Rounded Rectangle 949" class="cls-1" d="M1490.99,578.62a1.086,1.086,0,0,1-.01.4l-3.05,12.257c-0.01.053-.03,0.1-0.04,0.152l-0.09.375c0,0.017-.02.029-0.02,0.046a4.511,4.511,0,0,1-3.37,3.057,1.008,1.008,0,0,1-.41.092h-26a4,4,0,0,1-3.84-2.928,1.541,1.541,0,0,1-.07-0.224c0-.015-0.01-0.03-0.01-0.045a0.5,0.5,0,0,1-.03-0.118l-2.09-23.488a1.5,1.5,0,0,0-1.46-1.2H1442a1,1,0,0,1,0-2h8.72a1.01,1.01,0,0,1,.22.044A3.489,3.489,0,0,1,1454,568.5v0.018l0.57,6.482h33.09a1,1,0,0,1,.15.031A3.487,3.487,0,0,1,1491,578.5C1491,578.541,1490.99,578.579,1490.99,578.62ZM1487.5,577h-32.75l1.27,14.3,0.01,0.072,0.01,0A2,2,0,0,0,1458,593h25.5a2.479,2.479,0,0,0,2.4-1.856l3.09-12.377-0.02-.016a1.051,1.051,0,0,0,.03-0.251A1.5,1.5,0,0,0,1487.5,577ZM1461,599a8,8,0,1,1-8,8A8,8,0,0,1,1461,599Zm0,14a6,6,0,1,0-6-6A6,6,0,0,0,1461,613Zm20-14a8,8,0,1,1-8,8A8,8,0,0,1,1481,599Zm0,14a6,6,0,1,0-6-6A6,6,0,0,0,1481,613Z" transform="translate(-1441 -565)"/>
  <path id="Shape_7_copy" data-name="Shape 7 copy" class="cls-2" d="M1484.61,592.984s1.39,0.289,2.14-1.711,2.6-10.527,2.6-10.527l0.01-1.711L1457.99,579s0.57,10.551.98,12.27a1.908,1.908,0,0,0,1.71,1.711h23.93Z" transform="translate(-1441 -565)"/>
</svg>
