<svg id="Group_188_copy_3" data-name="Group 188 copy 3" xmlns="http://www.w3.org/2000/svg" width="50" height="50" viewBox="0 0 50 50">
  <defs>
    <style>
      .cls-1, .cls-2 {
        fill: #307edd;
        fill-rule: evenodd;
      }

      .cls-2 {
        opacity: 0.1;
      }
    </style>
  </defs>
  <path id="Rounded_Rectangle_1009_copy_6" data-name="Rounded Rectangle 1009 copy 6" class="cls-1" d="M754.981,406.093a0.962,0.962,0,0,1-.051.255,0.906,0.906,0,0,1-.072.134,0.961,0.961,0,0,1-.078.149c-0.013.015-.032,0.021-0.046,0.035a0.967,0.967,0,0,1-.2.158c-0.029.017-.053,0.042-0.083,0.056a0.95,0.95,0,0,1-1.193-.226L748,402.289l-5.213,4.329a0.054,0.054,0,0,0-.007.013,0.941,0.941,0,0,1-.466.285c-0.014,0-.028.006-0.042,0.011a1.074,1.074,0,0,1-.544,0c-0.014,0-.028-0.006-0.042-0.011a0.941,0.941,0,0,1-.466-0.285,0.054,0.054,0,0,0-.007-0.013L736,402.289l-5.213,4.329a0.054,0.054,0,0,0-.007.013,0.941,0.941,0,0,1-.466.285c-0.014,0-.028.006-0.042,0.011a1.074,1.074,0,0,1-.544,0c-0.014,0-.028-0.006-0.042-0.011a0.941,0.941,0,0,1-.466-0.285,0.054,0.054,0,0,0-.007-0.013L724,402.289l-5.213,4.329a0.054,0.054,0,0,0-.007.013,0.941,0.941,0,0,1-.466.285c-0.014,0-.028.006-0.042,0.011a1.074,1.074,0,0,1-.544,0c-0.014,0-.028-0.006-0.042-0.011a0.941,0.941,0,0,1-.466-0.285,0.054,0.054,0,0,0-.007-0.013L712,402.289l-5.257,4.365a0.95,0.95,0,0,1-1.193.226,0.9,0.9,0,0,1-.082-0.055,1.048,1.048,0,0,1-.2-0.159c-0.013-.014-0.032-0.02-0.045-0.035a0.951,0.951,0,0,1-.078-0.148,0.709,0.709,0,0,1-.123-0.39c0-.032-0.019-0.06-0.019-0.093V360a3,3,0,0,1,3-3h44a3,3,0,0,1,3,3v46C755,406.033,754.984,406.06,754.981,406.093ZM753,391V360a1,1,0,0,0-1-1H708a1,1,0,0,0-1,1v43.845l4.314-3.582a1.016,1.016,0,0,1,.151-0.084,0.951,0.951,0,0,1,.158-0.089,0.979,0.979,0,0,1,.173-0.045,0.784,0.784,0,0,1,.408,0,0.979,0.979,0,0,1,.173.045,0.951,0.951,0,0,1,.158.089,1.016,1.016,0,0,1,.151.084L718,404.675l5.314-4.412a1.016,1.016,0,0,1,.151-0.084,0.951,0.951,0,0,1,.158-0.089,0.979,0.979,0,0,1,.173-0.045,0.784,0.784,0,0,1,.408,0,0.979,0.979,0,0,1,.173.045,0.951,0.951,0,0,1,.158.089,1.016,1.016,0,0,1,.151.084L730,404.675l5.314-4.412a1.016,1.016,0,0,1,.151-0.084,0.951,0.951,0,0,1,.158-0.089,0.979,0.979,0,0,1,.173-0.045,0.784,0.784,0,0,1,.408,0,0.979,0.979,0,0,1,.173.045,0.951,0.951,0,0,1,.158.089,1.016,1.016,0,0,1,.151.084L742,404.675l5.314-4.412a1.016,1.016,0,0,1,.151-0.084,0.951,0.951,0,0,1,.158-0.089,0.979,0.979,0,0,1,.173-0.045,0.784,0.784,0,0,1,.408,0,0.979,0.979,0,0,1,.173.045,0.951,0.951,0,0,1,.158.089,1.016,1.016,0,0,1,.151.084L753,403.845V391Zm-11-3H727a1,1,0,0,1,0-2h15A1,1,0,0,1,742,388Zm0-7H727a1,1,0,0,1,0-2h15A1,1,0,0,1,742,381Zm0-7H727a1,1,0,0,1,0-2h15A1,1,0,0,1,742,374Zm-20,14h-4a1,1,0,0,1,0-2h4A1,1,0,0,1,722,388Zm0-7h-4a1,1,0,0,1,0-2h4A1,1,0,0,1,722,381Zm0-7h-4a1,1,0,0,1,0-2h4A1,1,0,0,1,722,374Z" transform="translate(-705 -357)"/>
  <path class="cls-2" d="M731,362h22v43l-5-4-6,5-6-5-6,5V363A1,1,0,0,1,731,362Z" transform="translate(-705 -357)"/>
</svg>
