<svg id="Group_193_copy_3" data-name="Group 193 copy 3" xmlns="http://www.w3.org/2000/svg" width="50" height="50" viewBox="0 0 50 50">
  <defs>
    <style>
      .cls-1, .cls-2 {
        fill: #307edd;
      }

      .cls-1 {
        fill-rule: evenodd;
      }

      .cls-2 {
        opacity: 0.1;
      }
    </style>
  </defs>
  <path id="Ellipse_281_copy_3" data-name="Ellipse 281 copy 3" class="cls-1" d="M1119,821h-39a4,4,0,0,1-4-4v-5h-2a1,1,0,0,1,0-2h2v-8h-2a1,1,0,0,1,0-2h2v-8h-2a1,1,0,0,1,0-2h2v-8h-2a1,1,0,0,1,0-2h2v-5a4,4,0,0,1,4-4h39a4,4,0,0,1,4,4v42A4,4,0,0,1,1119,821Zm-32-48h-7a2,2,0,0,0-2,2v5h2.28a1.978,1.978,0,0,1,1.72-1,2,2,0,0,1,0,4,1.978,1.978,0,0,1-1.72-1H1078v8h2.28a1.976,1.976,0,0,1,1.72-1,2,2,0,0,1,0,4,1.978,1.978,0,0,1-1.72-1H1078v8h2.28a1.977,1.977,0,0,1,1.72-1,2,2,0,0,1,0,4,1.978,1.978,0,0,1-1.72-1H1078v8h2.28a1.978,1.978,0,0,1,1.72-1,2,2,0,0,1,0,4,1.978,1.978,0,0,1-1.72-1H1078v5a2,2,0,0,0,2,2h7V773Zm34,2a2,2,0,0,0-2-2h-30v46h30a2,2,0,0,0,2-2V775Zm-8,15h-18a1,1,0,0,1,0-2h18A1,1,0,0,1,1113,790Zm0-6h-18a1,1,0,0,1,0-2h18A1,1,0,0,1,1113,784Zm-18,10h11a1,1,0,0,1,0,2h-11A1,1,0,0,1,1095,794Z" transform="translate(-1073 -771)"/>
  <rect id="Rectangle_743_copy" data-name="Rectangle 743 copy" class="cls-2" x="19" y="5" width="29" height="43"/>
</svg>
