<svg id="Group_190_copy_3" data-name="Group 190 copy 3" xmlns="http://www.w3.org/2000/svg" width="50" height="50" viewBox="0 0 50 50">
  <defs>
    <style>
      .cls-1, .cls-2 {
        fill: #3d8ee9;
        fill-rule: evenodd;
      }

      .cls-2 {
        opacity: 0.1;
      }
    </style>
  </defs>
  <path id="Rounded_Rectangle_932_copy" data-name="Rounded Rectangle 932 copy" class="cls-1" d="M754,567h-1a5,5,0,0,0-5,5v37a6,6,0,0,1-6,6H711a6,6,0,0,1-6-6v-5a2,2,0,0,1,2-2h5V571a6,6,0,0,1,6-6h36A1,1,0,0,1,754,567Zm-47,37v5a3.95,3.95,0,0,0,5,3.858V613h25.557A5.957,5.957,0,0,1,736,609v-5H707Zm11-37a4,4,0,0,0-4,4v31h22a2,2,0,0,1,2,2v5a4,4,0,0,0,4,4h0a4,4,0,0,0,4-4V572a6.969,6.969,0,0,1,2.111-5H718Zm21,29H729a1,1,0,0,1,0-2h10A1,1,0,0,1,739,596Zm0-6H729a1,1,0,0,1,0-2h10A1,1,0,0,1,739,590Zm0-6H729a1,1,0,0,1,0-2h10A1,1,0,0,1,739,584Zm0-6H729a1,1,0,1,1,0-2h10A1,1,0,1,1,739,578Zm-15,18h-3a1,1,0,0,1,0-2h3A1,1,0,0,1,724,596Zm0-6h-3a1,1,0,0,1,0-2h3A1,1,0,0,1,724,590Zm0-6h-3a1,1,0,0,1,0-2h3A1,1,0,0,1,724,584Zm0-6h-3a1,1,0,1,1,0-2h3A1,1,0,1,1,724,578Z" transform="translate(-705 -565)"/>
  <path class="cls-2" d="M715,614a6,6,0,0,1-6-6v-2h29v8H715Zm2.419-43A5,5,0,0,1,722,568h26v3H717.419Z" transform="translate(-705 -565)"/>
</svg>
