<svg width="60" height="60" viewBox="0 0 60 60" fill="none" xmlns="http://www.w3.org/2000/svg">
    <path fill-rule="evenodd" clip-rule="evenodd" d="M30 14C22.8203 14 17 19.8203 17 27C17 34.1797 22.8203 40 30 40C37.1797 40 43 34.1797 43 27C43 19.8203 37.1797 14 30 14ZM19 27C19 20.9249 23.9249 16 30 16C36.0751 16 41 20.9249 41 27C41 33.0751 36.0751 38 30 38C23.9249 38 19 33.0751 19 27Z"/>
    <path fill-rule="evenodd" clip-rule="evenodd" d="M0 30C0 13.4315 13.4315 0 30 0C46.5685 0 60 13.4315 60 30C60 46.5685 46.5685 60 30 60C13.4315 60 0 46.5685 0 30ZM30 2C14.536 2 2 14.536 2 30C2 38.8944 6.14718 46.8202 12.6133 51.9492C17.5183 48.4552 23.5206 46.4 30 46.4C36.4794 46.4 42.4817 48.4552 47.3866 51.9492C53.8528 46.8202 58 38.8944 58 30C58 14.536 45.464 2 30 2ZM30 58C24.1894 58 18.7922 56.2301 14.3182 53.1999C18.792 50.1697 24.188 48.4 30 48.4C35.812 48.4 41.208 50.1698 45.6818 53.1999C41.2077 56.2301 35.8106 58 30 58Z"/>
    <g opacity="0.1">
        <path d="M31.5 39C36.7467 39 41 34.9706 41 30C41 25.0294 36.7467 21 31.5 21C26.2533 21 22 25.0294 22 30C22 34.9706 26.2533 39 31.5 39Z"/>
        <path d="M18 55.8C19.9882 54.4667 25.3811 51 32.5385 51C39.6959 51 43.6154 52.6 45 53.4C42.9231 55.8 38.1834 59 32.2189 59C26.2544 59 20.7692 57.4 18 55.8Z"/>
    </g>
</svg>
