<svg xmlns="http://www.w3.org/2000/svg" width="70" height="70" viewBox="0 0 70 70">
  <defs>
    <style>
      .cls-1 {
        fill: #fff;
        fill-rule: evenodd;
      }
    </style>
  </defs>
  <path id="Rounded_Rectangle_917_copy_4" data-name="Rounded Rectangle 917 copy 4" class="cls-1" d="M821,382V347a35,35,0,1,0,35-35h35v70H821Zm35-68a33,33,0,1,1-33,33A33,33,0,0,1,856,314Zm-16.71,35.694,9.994,10.008a0.984,0.984,0,0,0,1.058.223c0.008,0,.017,0,0.025,0a0.988,0.988,0,0,0,.324-0.214l0.007,0h0a0,0,0,0,0,0,0l22.015-22.021a1,1,0,1,0-1.416-1.412l-21.313,21.319-9.281-9.3a1.007,1.007,0,0,0-1.415,0A0.989,0.989,0,0,0,839.29,349.694ZM821,347V312h35A35,35,0,0,0,821,347Z" transform="translate(-821 -312)"/>
</svg>
